<svg viewBox="0 0 980 980" xmlns="http://www.w3.org/2000/svg">
	<path fill="#ed8223" d=" M 86.33 2.85 C 112.19 1.63 138.08 1.68 163.96 1.38 C 349.30 0.51 534.65 0.76 720.00 0.60 C 771.66 0.81 823.33 0.49 874.98 1.64 C 885.04 2.16 895.41 1.81 905.08 5.12 C 923.11 11.00 939.30 22.01 952.10 35.94 C 961.07 45.53 967.72 57.03 972.93 69.03 C 977.05 79.60 977.43 91.12 978.22 102.31 C 980.18 145.67 979.62 189.10 980.00 232.49 L 980.00 427.52 C 979.81 490.01 979.82 552.50 979.15 614.99 C 978.82 634.64 979.03 654.31 977.98 673.94 C 975.57 689.39 968.43 703.77 959.47 716.44 C 948.76 731.42 934.54 743.99 917.81 751.82 C 905.07 758.76 890.36 760.30 876.12 761.08 C 853.76 762.17 831.37 762.16 809.00 762.27 C 759.76 762.34 710.51 762.44 661.27 762.23 C 669.18 749.79 678.26 738.03 684.72 724.70 C 691.72 710.90 696.42 696.11 701.75 681.62 C 745.18 681.17 788.63 681.88 832.07 680.92 C 842.02 680.60 852.00 680.48 861.93 679.51 C 872.72 678.39 882.01 671.96 889.70 664.69 C 894.14 660.35 895.15 653.86 896.03 647.99 C 898.18 630.42 898.20 612.68 898.60 595.00 C 899.33 529.34 898.80 463.66 898.76 398.00 C 898.55 305.33 898.29 212.67 898.10 120.01 C 897.91 116.69 898.74 113.02 896.86 110.04 C 893.50 104.27 890.44 98.13 885.47 93.56 C 880.82 89.19 874.86 86.70 869.27 83.81 C 866.97 82.71 864.68 81.20 862.03 81.33 C 667.69 81.35 473.34 81.28 279.00 81.47 C 232.33 81.65 185.66 81.56 139.00 82.44 C 129.09 82.91 119.06 82.44 109.27 84.19 C 98.14 87.86 89.12 97.01 84.90 107.85 C 83.04 115.07 83.21 122.62 82.88 130.02 C 81.76 186.34 82.30 242.67 82.25 299.00 C 82.35 416.03 82.75 533.05 82.97 650.08 C 82.57 653.86 85.64 656.59 87.40 659.60 C 94.13 670.09 105.04 679.13 118.00 679.53 C 139.96 681.13 162.00 680.80 184.01 681.29 C 216.15 681.78 248.30 682.05 280.45 682.57 C 286.12 700.02 292.77 717.20 301.86 733.18 C 307.27 743.31 314.18 752.51 320.26 762.23 C 267.18 762.46 214.09 762.33 161.01 762.18 C 138.65 761.83 116.27 761.93 93.93 760.76 C 83.09 760.40 72.68 756.66 62.93 752.15 C 39.20 740.89 19.86 720.95 8.85 697.16 C 5.36 689.78 3.04 681.93 0.00 674.37 L 0.00 90.58 C 2.94 82.00 5.14 73.15 8.86 64.85 C 19.72 39.85 40.29 19.20 65.40 8.54 C 72.10 5.80 78.99 2.97 86.33 2.85 Z" />
	<path fill="#ed8223" d=" M 383.42 162.57 C 446.94 162.05 510.47 162.15 574.00 162.34 C 587.01 162.53 600.02 162.58 613.02 163.04 C 621.81 163.51 630.75 163.60 639.33 165.80 C 644.87 167.10 649.33 171.85 650.46 177.40 C 651.69 182.86 651.93 188.47 652.29 194.04 C 652.70 205.26 652.61 216.56 650.89 227.67 C 650.10 234.13 645.59 240.45 639.00 241.86 C 628.42 244.35 617.45 244.18 606.66 244.64 C 554.78 245.52 502.89 245.09 451.00 245.20 C 424.01 245.12 397.01 245.17 370.02 244.49 C 361.25 244.15 352.44 243.91 343.76 242.45 C 340.00 241.71 335.86 240.79 333.20 237.79 C 328.68 232.26 327.33 224.99 327.02 218.04 C 326.60 208.06 326.48 198.05 327.19 188.09 C 327.78 182.07 328.58 175.50 332.80 170.82 C 336.50 166.98 341.60 164.44 346.94 164.04 C 359.05 162.79 371.25 162.82 383.42 162.57 Z" />
	<path fill="#ed8223" d=" M 332.39 298.50 C 445.59 298.38 558.79 298.37 671.99 298.54 C 713.23 298.91 754.50 298.33 795.70 300.26 C 804.43 300.11 813.38 306.25 814.72 315.20 C 816.72 327.02 816.11 339.10 815.87 351.03 C 815.30 359.13 815.04 368.64 808.42 374.40 C 804.16 378.79 797.62 378.28 792.04 378.84 C 765.04 380.05 738.01 379.95 711.00 380.26 C 569.00 380.86 427.00 381.25 285.00 381.00 C 252.31 380.81 219.62 380.92 186.94 379.92 C 179.90 380.13 173.60 375.96 168.69 371.30 C 164.27 367.08 164.06 360.60 163.72 354.91 C 163.34 343.51 162.49 332.04 163.77 320.67 C 164.46 314.20 167.06 307.41 172.85 303.86 C 178.03 299.92 184.87 300.46 191.01 299.96 C 238.12 298.35 285.27 298.77 332.39 298.50 Z" />
	<path fill="#ed8223" d=" M 475.28 454.25 C 515.66 450.61 556.96 462.55 589.76 486.25 C 618.44 506.81 640.80 536.24 652.29 569.66 C 667.02 612.78 664.19 661.87 643.53 702.60 C 628.71 732.39 604.90 757.55 576.08 774.14 C 558.73 784.02 539.81 791.51 520.07 794.77 C 497.94 797.95 475.20 797.99 453.20 793.85 C 414.05 784.96 378.23 762.00 353.90 730.04 C 342.16 714.81 333.54 697.41 326.61 679.54 C 318.24 657.37 319.47 633.28 319.54 610.02 C 319.57 593.54 324.44 577.58 330.51 562.43 C 343.36 530.80 365.54 502.99 393.75 483.73 C 417.83 467.19 446.17 456.87 475.28 454.25 Z" />
	<path fill="#ed8223" d=" M 382.65 816.07 C 387.11 816.59 390.93 819.32 395.06 820.91 C 413.43 829.74 432.74 836.97 452.98 839.95 C 477.25 843.57 502.12 844.22 526.43 840.61 C 551.51 836.88 575.10 826.99 597.74 815.96 C 599.53 852.60 598.89 889.32 598.97 925.99 C 598.67 943.65 598.89 961.34 597.72 978.97 C 563.23 962.04 528.88 944.83 494.65 927.36 C 493.11 926.60 491.29 925.34 489.65 926.64 C 465.87 938.52 442.11 950.47 418.28 962.25 C 406.51 967.88 395.03 974.18 382.99 979.21 C 382.00 960.49 382.28 941.73 382.03 923.00 C 381.98 887.35 381.93 851.71 382.65 816.07 Z" />
</svg>
