<svg viewBox="0 0 141 121" xmlns="http://www.w3.org/2000/svg">
	<path fill="#ed8223" d=" M 24.70 0.00 L 25.54 0.00 C 33.69 0.35 40.95 7.67 40.37 15.97 C 40.17 23.28 34.05 29.38 26.93 30.32 C 30.95 30.46 35.02 30.11 39.00 30.78 C 46.07 32.31 51.26 37.94 58.00 40.24 C 65.52 40.71 73.09 40.26 80.63 40.43 C 80.62 43.79 80.62 47.14 80.63 50.49 C 73.10 50.47 65.56 50.55 58.03 50.48 C 49.12 50.51 43.64 41.50 35.04 40.47 C 29.38 40.29 23.70 40.51 18.03 40.39 C 15.91 40.48 13.39 40.09 11.74 41.76 C 10.20 43.01 10.18 45.12 10.17 46.93 C 10.22 55.81 10.18 64.70 10.20 73.59 C 13.57 76.96 16.99 80.28 20.29 83.71 C 20.21 92.75 20.29 101.79 20.24 110.82 C 23.61 110.84 26.97 110.85 30.34 110.83 C 30.33 97.43 30.34 84.03 30.33 70.63 C 33.68 70.61 37.03 70.62 40.38 70.63 C 40.37 87.42 40.39 104.21 40.37 121.00 L 10.23 121.00 C 10.17 109.96 10.20 98.91 10.21 87.87 C 6.84 84.41 3.38 81.05 0.00 77.60 L 0.00 45.01 C 0.42 39.97 3.04 34.97 7.56 32.47 C 12.28 29.52 18.06 30.55 23.33 30.37 C 16.03 29.15 9.83 22.57 10.19 14.99 C 10.11 7.12 17.02 0.52 24.70 0.00 M 23.43 10.55 C 19.69 11.74 19.07 17.52 22.48 19.46 C 25.08 21.32 29.10 19.94 30.05 16.90 C 31.66 13.08 27.20 8.87 23.43 10.55 Z" />
	<path fill="#ed8223" d=" M 64.75 0.00 L 126.12 0.00 C 128.51 0.49 131.00 2.24 130.82 4.95 C 131.01 34.68 130.66 64.44 130.99 94.16 C 133.76 101.41 138.13 107.97 141.00 115.20 L 141.00 117.12 C 139.87 118.45 138.53 119.59 137.50 121.00 L 54.78 121.00 C 51.81 120.40 49.34 117.09 50.80 114.14 C 53.66 108.12 57.58 102.64 60.34 96.58 C 60.73 84.58 60.39 72.53 60.49 60.51 C 63.86 60.49 67.23 60.49 70.60 60.51 C 70.58 63.87 70.59 67.24 70.56 70.60 C 87.33 70.64 104.10 70.63 120.86 70.61 C 120.82 57.20 120.82 43.80 120.86 30.39 C 100.74 30.36 80.61 30.40 60.49 30.37 C 60.56 21.91 60.40 13.44 60.55 4.98 C 60.37 2.41 62.69 0.88 64.75 0.00 M 70.56 10.29 C 70.58 13.61 70.59 16.93 70.57 20.25 C 87.33 20.26 104.10 20.27 120.86 20.25 C 120.83 16.92 120.83 13.60 120.86 10.28 C 104.10 10.25 87.33 10.23 70.56 10.29 M 70.57 80.67 C 70.59 84.02 70.58 87.37 70.56 90.72 C 87.33 90.76 104.10 90.75 120.86 90.73 C 120.83 87.38 120.83 84.03 120.87 80.68 C 104.10 80.65 87.34 80.66 70.57 80.67 M 64.09 110.81 C 85.34 110.85 106.59 110.86 127.84 110.80 C 126.11 107.48 124.44 104.11 122.77 100.75 C 105.10 100.72 87.44 100.75 69.77 100.74 C 67.86 104.09 65.97 107.44 64.09 110.81 Z" />
</svg>
