<svg viewBox="0 0 680 827" xmlns="http://www.w3.org/2000/svg">
	<path fill="#ed8223" d=" M 266.89 10.90 C 292.51 1.96 320.07 -1.35 347.07 1.40 C 398.49 5.97 447.16 33.66 477.95 75.01 C 485.49 84.91 492.00 95.59 497.31 106.84 C 497.84 108.05 498.66 109.10 499.64 109.98 C 499.50 110.39 499.24 111.19 499.10 111.60 L 500.39 111.29 C 500.74 112.96 501.17 114.62 501.60 116.28 L 502.42 116.39 C 502.69 118.09 503.14 119.75 503.59 121.41 L 504.41 121.36 C 506.26 129.56 509.37 137.40 511.27 145.59 C 513.77 160.91 516.05 176.39 515.38 191.97 C 513.71 213.33 507.39 233.97 500.24 254.05 C 486.67 291.51 469.02 327.30 450.89 362.72 C 443.66 376.59 436.40 390.47 428.07 403.71 C 407.92 439.37 387.40 474.83 365.42 509.40 C 355.94 524.49 346.32 539.50 336.56 554.42 C 334.33 557.85 331.90 561.17 330.05 564.84 C 329.00 564.62 327.96 564.42 326.92 564.20 C 326.08 562.10 324.89 560.18 323.60 558.33 C 284.12 498.19 246.80 436.62 212.36 373.46 C 193.90 338.02 175.72 302.33 161.31 265.00 C 154.43 247.15 148.28 228.92 144.65 210.11 C 140.92 191.64 142.02 172.55 145.07 154.08 C 147.09 141.95 150.88 130.24 154.81 118.64 C 166.70 89.98 185.15 63.86 209.08 43.99 C 226.17 29.63 245.89 18.45 266.89 10.90 M 315.63 66.87 C 286.83 70.78 260.27 88.35 245.61 113.48 C 236.85 128.37 231.76 145.71 232.29 163.06 C 231.62 196.43 250.76 228.81 279.29 245.72 C 295.62 255.48 314.97 260.34 333.96 259.25 C 351.60 258.28 368.94 252.48 383.48 242.42 C 413.33 222.34 430.21 184.55 424.51 148.95 C 421.21 125.00 408.36 102.57 389.50 87.48 C 372.27 73.64 350.15 65.46 327.96 66.28 C 323.84 66.31 319.70 66.22 315.63 66.87 Z" />
	<path fill="#ed8223" d=" M 445.31 456.02 C 455.78 437.21 466.84 418.69 476.27 399.34 C 487.32 403.71 497.90 409.21 508.78 414.00 C 527.76 422.62 546.50 431.74 565.48 440.34 C 573.81 444.04 580.58 451.38 583.05 460.23 C 613.51 561.07 644.01 661.91 674.46 762.76 C 675.87 767.58 678.84 771.90 679.38 776.97 C 679.79 780.64 679.81 784.37 679.20 788.02 C 677.17 798.07 669.53 806.44 660.19 810.37 C 653.23 813.70 645.14 813.23 637.79 811.62 C 564.24 791.15 490.53 771.22 417.02 750.65 C 358.88 775.05 300.65 799.25 242.50 823.63 C 238.19 825.53 233.53 826.37 228.89 827.00 L 33.00 827.00 C 27.80 826.34 22.42 825.80 17.72 823.30 C 10.54 819.84 4.90 813.46 2.24 805.96 C -0.79 798.04 0.31 789.20 3.24 781.43 C 34.33 678.19 65.78 575.04 96.56 471.70 C 99.11 465.41 103.32 459.71 108.75 455.62 C 113.84 452.41 120.01 451.29 125.96 451.25 C 133.32 451.22 140.66 450.57 148.03 450.67 C 170.33 450.78 192.63 450.68 214.93 450.75 C 228.44 474.95 243.19 498.44 257.75 522.03 C 269.38 540.11 281.15 558.11 292.88 576.13 C 304.59 593.42 316.43 610.64 328.12 627.95 C 331.94 626.51 336.71 625.87 338.90 621.96 C 354.26 599.00 370.08 576.34 385.09 553.14 C 406.05 521.33 425.80 488.74 445.31 456.02 M 483.15 419.00 C 478.22 428.51 472.55 437.64 467.87 447.27 C 492.00 458.35 516.11 469.45 540.11 480.80 C 550.05 515.34 561.11 549.58 571.00 584.13 C 565.87 583.35 560.89 581.88 555.86 580.66 C 517.56 571.12 479.26 561.55 440.95 552.06 C 437.88 551.23 434.81 550.39 431.64 550.15 C 430.52 545.53 431.28 540.75 431.07 536.06 C 430.88 526.91 431.50 517.74 430.65 508.62 C 430.00 509.94 429.38 511.29 428.65 512.58 C 418.07 529.90 407.09 546.96 395.98 563.95 C 389.03 574.32 382.54 585.05 375.00 595.01 C 382.72 591.53 390.69 588.58 398.69 585.80 C 398.78 626.26 398.71 666.72 398.75 707.19 C 347.58 728.29 296.69 750.08 245.46 771.01 C 245.42 728.85 245.51 686.70 245.43 644.55 C 265.47 636.80 285.51 629.04 305.61 621.45 C 299.27 612.45 293.15 603.29 287.06 594.12 C 273.14 599.25 259.39 604.81 245.49 609.97 C 245.45 583.55 245.47 557.13 245.50 530.71 C 232.19 509.46 218.93 488.15 206.61 466.31 C 181.73 466.29 156.85 466.31 131.96 466.32 C 126.58 466.41 120.54 466.31 116.14 469.91 C 111.63 473.27 110.32 479.05 109.00 484.20 C 105.31 496.11 101.62 508.02 97.99 519.94 C 72.38 605.00 46.62 690.02 21.05 775.09 C 19.21 781.03 17.31 786.95 15.71 792.95 C 14.04 801.99 21.78 811.36 31.00 811.43 C 97.01 811.51 163.01 811.44 229.02 811.47 C 233.62 811.59 237.67 809.17 241.82 807.57 C 299.57 783.41 357.35 759.32 415.08 735.11 C 416.44 734.39 417.99 735.10 419.38 735.39 C 493.94 756.20 568.57 776.77 643.20 797.37 C 652.58 799.85 664.04 793.13 664.65 783.04 C 665.34 777.97 662.00 773.80 660.50 769.24 C 651.35 738.83 642.23 708.40 632.97 678.02 C 632.02 674.67 630.99 671.35 629.95 668.04 C 609.55 600.04 588.91 532.10 568.45 464.12 C 567.08 459.25 563.20 455.55 558.57 453.72 C 533.31 442.42 508.45 430.18 483.15 419.00 Z" />
	<path fill="#ed8223" d=" M 137.71 498.51 C 162.95 498.51 188.20 498.63 213.44 498.47 C 213.27 538.21 213.31 577.95 213.42 617.70 C 197.63 617.62 181.87 618.65 166.08 618.57 C 144.46 618.72 122.87 619.51 101.26 619.70 C 111.98 584.81 122.40 549.82 132.93 514.86 C 134.57 509.43 136.36 504.03 137.71 498.51 Z" />
	<path fill="#ed8223" d=" M 430.55 582.30 C 480.91 594.78 531.23 607.48 581.61 619.93 C 583.77 620.79 583.35 623.57 584.13 625.39 C 586.91 634.18 589.27 643.10 592.11 651.87 C 602.48 686.17 612.46 720.60 623.23 754.76 C 623.37 755.77 623.66 757.77 623.81 758.77 C 622.81 758.63 620.81 758.36 619.81 758.22 C 602.81 753.06 585.55 748.75 568.48 743.85 C 548.19 738.38 527.98 732.57 507.68 727.15 C 493.11 723.00 478.49 719.04 463.87 715.06 C 452.83 712.03 441.85 708.74 430.72 706.12 C 430.50 664.84 430.84 623.57 430.55 582.30 Z" />
	<path fill="#ed8223" d=" M 150.97 650.64 C 171.82 650.69 192.66 650.21 213.48 649.53 C 213.28 692.85 213.30 736.19 213.49 779.52 C 160.06 779.36 106.63 779.39 53.19 779.52 C 62.86 746.54 73.02 713.67 82.83 680.72 C 86.00 671.07 88.41 661.18 91.87 651.63 C 111.58 651.58 131.30 651.71 150.97 650.64 Z" />
</svg>