<svg viewBox="0 0 342 498" xmlns="http://www.w3.org/2000/svg">
	<path fill="#ed8223" d=" M 136.54 1.48 C 141.70 -0.45 147.41 1.14 151.76 4.21 C 168.39 14.92 185.02 25.62 201.66 36.31 C 204.83 38.36 208.31 40.30 210.36 43.60 C 213.67 48.56 213.56 55.42 210.28 60.36 C 201.24 74.60 192.08 88.76 183.01 102.97 C 189.87 101.78 196.91 101.94 203.59 104.04 C 207.74 97.71 211.59 91.18 215.98 85.02 C 219.77 79.68 227.10 77.35 233.26 79.66 C 260.84 91.04 285.29 109.77 303.72 133.22 C 319.78 153.61 331.16 177.62 336.84 202.94 C 342.99 230.89 342.39 260.37 334.64 287.95 C 328.56 310.50 317.60 331.60 303.22 349.98 C 310.58 356.64 315.57 366.02 316.04 376.03 C 317.81 394.80 302.78 413.30 284.01 415.24 C 209.42 415.29 134.82 415.19 60.22 415.29 C 60.43 392.29 60.25 369.29 60.31 346.28 C 84.76 346.27 109.20 346.28 133.64 346.28 C 133.71 349.53 133.63 352.93 135.06 355.94 C 137.37 361.34 143.04 365.05 148.92 365.01 C 165.29 365.12 181.66 365.04 198.04 365.05 C 204.41 365.20 210.03 361.86 215.92 359.96 C 232.60 352.89 247.77 342.30 260.17 329.09 C 280.58 307.56 293.08 278.69 294.69 249.06 C 296.45 222.41 289.65 195.24 275.34 172.66 C 263.64 154.00 247.11 138.41 227.80 127.79 C 231.12 137.83 230.61 149.21 225.65 158.63 C 221.20 167.39 213.30 174.33 204.01 177.55 C 193.22 181.42 180.69 180.14 170.94 174.08 C 162.07 168.77 155.58 159.87 153.17 149.83 C 151.55 151.73 150.24 153.86 148.94 155.98 C 137.07 174.46 125.27 192.98 113.36 211.44 C 110.18 216.57 103.94 219.69 97.93 218.64 C 91.63 217.51 86.88 212.81 81.43 209.81 C 77.20 216.42 73.05 223.09 68.71 229.63 C 65.63 234.45 59.73 237.26 54.04 236.47 C 50.02 236.07 46.71 233.58 43.40 231.51 C 40.07 229.32 36.33 227.43 34.09 224.00 C 30.79 219.23 30.61 212.59 33.61 207.64 C 37.71 200.91 42.19 194.43 46.25 187.68 C 41.70 183.20 34.25 181.29 30.90 175.32 C 27.82 170.20 28.35 163.46 31.75 158.63 C 63.24 109.49 94.76 60.38 126.23 11.23 C 128.68 7.13 131.78 2.97 136.54 1.48 M 188.33 127.41 C 182.82 128.57 178.19 133.24 177.43 138.87 C 175.86 146.47 182.11 154.41 189.83 154.85 C 198.12 156.07 205.90 148.20 205.04 139.96 C 204.66 131.90 196.22 125.38 188.33 127.41 M 276.43 365.52 C 270.37 366.79 265.37 372.67 265.78 378.97 C 265.96 385.09 271.00 390.67 277.12 391.30 C 284.39 392.54 291.60 386.32 291.83 379.04 C 292.66 370.91 284.35 363.76 276.43 365.52 Z" />
	<path fill="#ed8223" d=" M 11.28 303.37 C 67.88 303.16 124.49 303.33 181.09 303.29 C 185.69 303.03 190.52 305.55 191.99 310.11 C 193.09 314.17 193.14 318.68 191.61 322.63 C 189.79 326.71 185.22 328.71 180.93 328.50 C 124.95 328.50 68.96 328.50 12.98 328.50 C 9.90 328.48 6.63 327.80 4.42 325.50 C 0.88 322.17 0.91 316.83 1.42 312.36 C 1.90 307.44 6.35 303.44 11.28 303.37 Z" />
	<path fill="#ed8223" d=" M 54.99 434.03 C 61.92 432.89 68.98 433.28 75.97 433.22 C 145.38 433.22 214.80 433.21 284.21 433.22 C 284.25 448.83 284.19 464.43 284.24 480.04 C 284.28 483.72 283.90 487.59 281.79 490.73 C 279.15 495.07 274.26 497.51 269.31 498.00 L 0.49 498.00 C 0.50 484.17 4.92 470.35 13.28 459.30 C 23.19 445.89 38.48 436.55 54.99 434.03 Z" />
</svg>
