<svg viewBox="0 0 649 827" xmlns="http://www.w3.org/2000/svg">
	<path fill="#38ae25" d=" M 164.94 2.44 C 173.81 0.32 182.98 0.92 192.02 0.84 C 268.34 0.83 344.66 0.83 420.98 0.82 C 437.28 0.77 453.59 7.24 465.13 18.82 C 476.96 30.24 483.94 46.55 483.91 63.01 C 483.95 100.38 483.88 137.75 483.95 175.11 C 483.60 177.15 485.72 178.03 486.95 179.20 C 539.07 220.58 576.69 279.80 591.83 344.62 C 598.54 344.62 605.24 344.57 611.95 344.62 C 622.64 344.74 633.09 349.81 639.90 358.02 C 645.58 364.53 648.19 373.07 649.00 381.54 L 649.00 444.44 C 648.42 448.60 648.03 452.86 646.60 456.85 C 642.47 469.12 631.50 478.80 618.79 481.31 C 609.90 482.89 600.81 481.89 591.83 482.14 C 576.33 548.17 537.96 608.83 483.88 649.97 C 483.98 687.66 483.89 725.35 483.92 763.03 C 484.13 779.54 477.29 795.94 465.56 807.54 C 453.95 819.25 437.53 826.04 421.03 825.80 C 340.36 825.79 259.70 825.78 179.04 825.78 C 167.05 825.87 155.03 822.46 145.00 815.86 C 126.35 804.11 115.10 782.01 116.28 760.02 C 116.32 723.33 116.25 686.64 116.32 649.96 C 78.89 620.74 48.30 582.75 28.21 539.70 C 3.43 487.17 -5.16 427.29 3.30 369.86 C 8.77 332.19 21.64 295.62 40.89 262.78 C 60.23 229.65 86.03 200.35 116.27 176.76 C 116.25 139.18 116.32 101.60 116.34 64.02 C 116.16 51.80 119.67 39.56 126.38 29.34 C 135.12 15.85 149.21 5.89 164.94 2.44 M 167.42 27.60 C 152.29 32.15 141.20 47.14 141.28 62.95 C 141.27 95.08 141.22 127.20 141.31 159.33 C 182.57 133.30 230.28 117.46 278.97 114.16 C 341.73 109.44 405.72 125.67 458.86 159.32 C 459.00 127.56 458.88 95.80 458.92 64.04 C 459.11 54.30 455.33 44.56 448.57 37.54 C 441.54 30.02 431.29 25.78 421.02 25.80 C 342.01 25.81 263.01 25.81 184.01 25.80 C 178.43 25.68 172.77 25.90 167.42 27.60 M 290.42 138.50 C 262.73 139.47 235.17 144.65 209.03 153.88 C 147.76 175.26 94.85 219.27 62.31 275.38 C 42.29 309.69 29.84 348.40 26.26 387.96 C 22.60 427.24 27.46 467.31 40.63 504.51 C 63.95 571.30 114.21 628.08 177.58 659.49 C 214.81 678.17 256.36 688.13 298.02 688.36 C 343.73 688.78 389.51 677.52 429.75 655.81 C 485.87 625.83 530.97 575.83 554.87 516.86 C 572.24 474.45 578.59 427.64 573.34 382.12 C 569.17 344.99 557.19 308.78 538.51 276.43 C 518.59 241.84 491.04 211.69 458.46 188.65 C 409.93 154.15 349.93 136.21 290.42 138.50 M 596.56 369.55 C 597.57 376.68 598.48 383.83 599.07 391.01 C 601.13 413.06 599.79 435.28 596.60 457.15 C 601.72 457.08 606.84 457.31 611.96 457.06 C 618.49 456.66 623.95 450.58 623.64 444.05 C 623.64 423.35 623.68 402.66 623.65 381.96 C 623.72 376.00 618.91 370.56 613.04 369.73 C 607.55 369.36 602.05 369.71 596.56 369.55 M 141.31 667.43 C 141.21 699.29 141.30 731.16 141.27 763.02 C 141.18 772.22 144.62 781.40 150.78 788.24 C 157.80 796.21 168.31 801.03 178.97 800.80 C 259.99 800.79 341.00 800.81 422.01 800.79 C 437.96 800.88 452.95 789.40 457.34 774.12 C 459.00 768.92 458.99 763.41 458.93 758.01 C 458.90 727.81 458.95 697.61 458.90 667.41 C 437.91 680.57 415.33 691.19 391.77 698.83 C 349.44 712.66 303.97 716.63 259.87 710.60 C 217.85 704.95 177.21 689.94 141.31 667.43 Z" />
	<path fill="#38ae25" d=" M 172.42 53.59 C 177.75 52.36 183.71 55.07 186.17 59.98 C 187.53 62.42 187.66 65.27 187.62 68.00 C 187.55 75.68 187.64 83.36 187.55 91.04 C 187.65 97.33 182.23 103.00 175.96 103.30 C 169.09 103.93 162.44 97.95 162.64 90.99 C 162.63 82.34 162.53 73.69 162.66 65.04 C 162.85 59.59 167.15 54.73 172.42 53.59 Z" />
	<path fill="#38ae25" d=" M 232.34 54.50 C 239.46 50.90 249.07 55.92 249.91 63.90 C 250.31 72.91 250.00 81.96 250.04 90.99 C 250.17 97.51 244.40 103.27 237.92 103.35 C 231.22 103.76 225.03 97.77 225.14 91.08 C 225.09 82.69 225.14 74.29 225.17 65.90 C 225.02 61.11 227.94 56.41 232.34 54.50 Z" />
	<path fill="#38ae25" d=" M 295.25 54.34 C 302.37 51.05 311.68 56.21 312.43 64.07 C 312.72 73.07 312.58 82.10 312.59 91.11 C 312.67 98.82 304.38 105.21 296.96 102.93 C 291.61 101.63 287.54 96.52 287.58 90.99 C 287.54 82.68 287.59 74.38 287.63 66.08 C 287.47 61.07 290.63 56.24 295.25 54.34 Z" />
	<path fill="#38ae25" d=" M 357.31 54.49 C 364.53 50.78 374.08 55.98 374.96 64.01 C 375.31 72.99 375.07 82.00 375.09 90.99 C 375.23 98.17 368.20 104.36 361.10 103.24 C 355.07 102.71 350.10 97.14 350.15 91.11 C 350.08 82.72 350.10 74.33 350.11 65.94 C 349.98 61.13 352.94 56.47 357.31 54.49 Z" />
	<path fill="#38ae25" d=" M 420.28 54.29 C 427.46 50.96 436.72 56.29 437.48 64.15 C 437.80 73.12 437.52 82.11 437.54 91.09 C 437.58 96.66 433.40 101.84 427.96 103.02 C 420.89 104.91 413.01 99.29 412.69 91.95 C 412.52 83.31 412.61 74.66 412.57 66.02 C 412.47 61.03 415.58 56.09 420.28 54.29 Z" />
	<path fill="#38ae25" d=" M 281.55 176.81 C 293.64 175.37 305.94 175.62 318.08 176.59 C 324.91 177.19 330.12 184.39 328.75 191.08 C 327.81 197.45 321.39 202.21 315.03 201.41 C 305.35 200.68 295.64 200.69 285.96 201.34 C 280.36 201.87 274.84 198.17 273.09 192.86 C 270.67 186.36 274.79 178.47 281.55 176.81 Z" />
	<path fill="#38ae25" d=" M 375.40 190.58 C 379.26 189.39 383.25 190.60 386.78 192.21 C 428.82 208.53 465.72 237.46 492.13 273.95 C 514.15 304.29 528.97 339.85 534.77 376.90 C 541.73 421.03 535.89 467.12 518.02 508.07 C 491.73 568.91 438.84 617.67 375.90 638.55 C 329.45 654.21 278.14 654.94 231.23 640.77 C 199.05 631.12 169.06 614.35 143.83 592.19 C 113.91 566.07 90.57 532.40 76.97 495.06 C 64.75 461.69 60.19 425.54 63.73 390.18 C 67.46 352.51 80.48 315.85 101.13 284.14 C 128.24 242.31 168.68 209.11 215.36 191.44 C 222.04 188.60 230.24 193.16 231.79 200.12 C 233.49 206.20 229.76 213.02 223.78 214.96 C 190.90 227.59 161.34 248.68 138.61 275.58 C 113.99 304.49 97.17 340.03 90.70 377.47 C 81.60 429.54 92.78 484.92 121.84 529.13 C 142.58 560.94 171.90 587.15 205.97 603.98 C 243.72 622.85 287.22 629.53 328.98 623.88 C 364.11 619.21 397.99 605.44 426.42 584.27 C 456.10 562.31 479.99 532.54 494.80 498.71 C 511.61 460.45 516.68 417.15 509.23 376.03 C 503.24 342.60 489.00 310.72 468.30 283.81 C 444.84 253.16 412.91 229.01 376.87 215.16 C 372.92 213.91 369.07 211.50 367.49 207.50 C 364.46 200.94 368.46 192.46 375.40 190.58 Z" />
	<path fill="#38ae25" d=" M 287.58 255.03 C 287.24 249.27 291.22 243.53 296.90 242.20 C 304.31 239.84 312.66 246.14 312.55 253.88 C 312.66 299.85 312.52 345.82 312.62 391.79 C 316.37 393.90 319.48 397.01 321.58 400.76 C 358.71 400.88 395.84 400.73 432.96 400.84 C 439.78 400.88 445.75 407.22 445.17 414.05 C 444.95 420.32 439.36 425.86 433.04 425.79 C 395.95 425.85 358.86 425.77 321.77 425.83 C 318.17 431.95 312.02 436.54 305.00 437.82 C 297.79 439.39 290.00 437.33 284.30 432.71 C 277.92 427.55 274.37 419.11 275.25 410.94 C 275.96 403.04 280.67 395.66 287.58 391.74 C 287.59 346.17 287.58 300.60 287.58 255.03 Z" />
	<path fill="#38ae25" d=" M 146.25 401.47 C 152.38 400.09 158.76 401.11 164.99 400.81 C 171.67 401.02 180.01 399.28 184.71 405.39 C 190.92 412.09 186.48 424.42 177.42 425.60 C 168.60 426.09 159.74 425.68 150.91 425.82 C 145.23 426.18 139.56 422.37 138.11 416.80 C 136.12 410.58 140.03 403.34 146.25 401.47 Z" />
	<path fill="#38ae25" d=" M 297.21 526.18 C 302.90 524.64 309.28 527.98 311.56 533.35 C 312.83 536.06 312.57 539.11 312.61 542.02 C 312.53 549.38 312.68 556.74 312.54 564.10 C 312.36 570.52 306.42 576.10 299.99 575.80 C 293.57 575.96 287.76 570.35 287.64 563.93 C 287.52 555.30 287.57 546.65 287.62 538.02 C 287.64 532.49 291.85 527.39 297.21 526.18 Z" />
	<path fill="#38ae25" d=" M 172.09 721.97 C 179.21 719.90 187.14 725.59 187.52 732.97 C 187.72 741.66 187.58 750.37 187.59 759.07 C 187.79 765.76 181.78 771.84 175.06 771.61 C 168.71 771.79 162.83 766.33 162.68 759.96 C 162.56 751.32 162.63 742.68 162.64 734.04 C 162.51 728.45 166.68 723.27 172.09 721.97 Z" />
	<path fill="#38ae25" d=" M 234.18 722.08 C 241.32 719.78 249.64 725.38 249.99 732.92 C 250.22 741.62 250.03 750.34 250.05 759.04 C 250.33 765.93 243.93 772.08 237.07 771.63 C 230.56 771.56 224.88 765.56 225.10 759.07 C 225.07 750.68 225.05 742.29 225.11 733.91 C 225.08 728.51 228.99 723.50 234.18 722.08 Z" />
	<path fill="#38ae25" d=" M 297.11 721.97 C 304.18 719.99 312.14 725.59 312.51 732.94 C 312.66 741.96 312.59 751.00 312.51 760.03 C 312.32 766.12 306.98 771.37 300.91 771.59 C 294.28 772.16 287.82 766.68 287.69 759.95 C 287.51 751.31 287.58 742.66 287.58 734.02 C 287.55 728.44 291.70 723.26 297.11 721.97 Z" />
	<path fill="#38ae25" d=" M 358.28 722.40 C 365.59 719.27 374.50 725.04 375.05 732.86 C 375.26 741.55 375.10 750.27 375.10 758.97 C 375.32 765.89 368.91 772.15 361.97 771.58 C 355.48 771.50 349.91 765.45 350.13 759.01 C 350.11 750.64 350.06 742.26 350.12 733.88 C 350.15 728.86 353.54 724.07 358.28 722.40 Z" />
	<path fill="#38ae25" d=" M 421.26 722.23 C 428.53 719.61 437.20 725.32 437.52 733.07 C 437.71 741.38 437.57 749.69 437.64 758.00 C 437.95 763.09 435.14 768.35 430.38 770.42 C 422.89 774.40 412.83 768.35 412.65 759.94 C 412.52 751.31 412.63 742.67 412.64 734.04 C 412.53 728.77 416.31 723.85 421.26 722.23 Z" />
</svg>
