<svg viewBox="0 0 318 233" xmlns="http://www.w3.org/2000/svg">
	<path d=" M 104.19 2.16 C 105.62 0.57 107.92 0.64 109.87 0.58 C 140.92 0.61 171.96 0.59 203.01 0.59 C 205.94 0.64 208.92 0.33 211.81 0.93 C 214.39 1.64 215.49 4.45 215.31 6.91 C 215.33 29.46 215.29 52.01 215.32 74.56 C 230.59 74.62 245.86 74.47 261.13 74.62 C 264.09 74.43 266.66 77.05 266.48 80.00 C 266.62 102.84 266.48 125.68 266.55 148.53 C 282.04 148.62 297.54 148.35 313.03 148.65 C 316.80 148.74 318.03 152.95 318.00 156.10 L 318.00 221.77 C 317.57 225.37 318.69 231.10 314.09 232.42 C 312.80 232.56 310.20 232.85 308.90 233.00 L 12.02 233.00 C 8.23 232.42 2.13 233.98 0.61 229.16 C 0.46 228.00 0.15 225.68 0.00 224.52 L 0.00 158.84 C 0.11 157.38 0.33 154.46 0.44 152.99 C 0.52 149.64 4.09 148.29 6.91 148.53 C 21.77 148.51 36.63 148.55 51.49 148.52 C 51.50 126.32 51.52 104.12 51.48 81.92 C 51.57 79.93 51.38 77.56 53.02 76.10 C 54.52 74.48 56.89 74.61 58.91 74.54 C 73.50 74.58 88.09 74.56 102.68 74.56 C 102.68 52.35 102.70 30.14 102.67 7.93 C 102.74 5.95 102.63 3.65 104.19 2.16 M 112.95 10.85 C 112.93 32.09 112.94 53.32 112.95 74.56 C 143.66 74.56 174.37 74.57 205.09 74.55 C 205.09 53.32 205.10 32.09 205.08 10.85 C 174.37 10.84 143.66 10.84 112.95 10.85 M 61.72 84.83 C 61.72 106.06 61.73 127.29 61.72 148.53 C 92.43 148.53 123.15 148.53 153.87 148.53 C 153.88 127.29 153.88 106.06 153.86 84.82 C 123.15 84.82 92.44 84.80 61.72 84.83 M 164.14 84.82 C 164.13 106.06 164.11 127.30 164.14 148.54 C 194.85 148.52 225.56 148.54 256.27 148.53 C 256.28 127.29 256.28 106.06 256.28 84.82 C 225.56 84.80 194.85 84.82 164.14 84.82 M 10.53 158.77 C 10.54 180.00 10.53 201.23 10.54 222.46 C 41.25 222.47 71.96 222.46 102.68 222.47 C 102.69 201.24 102.70 180.00 102.67 158.77 C 71.95 158.73 41.24 158.75 10.53 158.77 M 112.95 158.76 C 112.93 180.00 112.94 201.23 112.95 222.47 C 143.66 222.46 174.37 222.47 205.08 222.46 C 205.09 201.23 205.10 179.99 205.08 158.76 C 174.37 158.75 143.66 158.75 112.95 158.76 M 215.33 222.47 C 246.05 222.46 276.77 222.47 307.49 222.46 C 307.51 201.23 307.48 180.00 307.51 158.77 C 276.79 158.73 246.07 158.76 215.35 158.75 C 215.28 179.99 215.32 201.23 215.33 222.47 Z" />
	<path d=" M 188.38 15.48 C 191.55 13.35 196.28 16.03 196.06 19.85 C 196.16 32.27 196.19 44.70 196.05 57.12 C 196.07 60.44 192.36 62.93 189.29 61.71 C 186.98 60.97 185.73 58.49 185.89 56.16 C 185.85 44.40 185.87 32.64 185.88 20.87 C 185.80 18.82 186.44 16.50 188.38 15.48 Z" />
	<path d=" M 239.49 88.52 C 242.67 86.23 247.60 89.04 247.27 92.96 C 247.37 104.99 247.30 117.03 247.30 129.07 C 247.66 132.10 245.16 135.16 242.02 134.93 C 239.01 134.93 236.82 131.97 237.11 129.09 C 237.07 117.36 237.10 105.63 237.09 93.90 C 237.03 91.87 237.58 89.59 239.49 88.52 Z" />
	<path d=" M 293.21 160.09 C 296.32 159.00 299.87 161.66 299.75 164.94 C 299.91 175.67 299.76 186.40 299.83 197.13 C 299.92 199.40 299.56 202.12 297.33 203.32 C 294.20 205.47 289.46 202.84 289.63 199.03 C 289.47 188.01 289.59 176.98 289.57 165.96 C 289.37 163.49 290.66 160.74 293.21 160.09 Z" />
</svg>
