<svg viewBox="0 0 312 500" xmlns="http://www.w3.org/2000/svg">
	<path d=" M 148.00 0.00 L 164.00 0.00 C 164.00 2.39 164.00 4.79 164.01 7.18 C 174.48 7.27 184.97 7.02 195.44 7.30 C 204.02 7.67 211.38 14.25 213.63 22.38 C 236.78 33.88 256.56 52.14 269.40 74.61 C 281.22 94.95 287.05 118.52 286.84 142.00 C 292.55 143.62 298.28 145.21 303.99 146.82 C 304.00 159.60 304.00 172.39 303.99 185.18 C 300.80 185.18 297.61 185.19 294.42 185.18 C 298.83 189.70 302.17 195.38 303.15 201.68 C 305.43 213.79 300.33 227.09 290.07 234.07 C 284.83 237.88 278.37 239.46 272.01 239.99 C 262.53 264.43 251.34 288.51 235.41 309.47 C 226.63 321.31 216.10 331.90 204.02 340.37 C 204.00 342.51 204.00 344.66 203.99 346.81 C 231.03 359.76 257.97 372.91 284.90 386.10 C 300.85 393.83 311.70 410.73 312.00 428.47 L 312.00 500.00 L 0.00 500.00 L 0.00 428.46 C 0.31 410.73 11.14 393.84 27.08 386.11 C 54.01 372.92 81.04 359.94 108.01 346.81 C 108.00 344.66 107.99 342.51 107.98 340.37 C 96.08 331.66 85.57 321.09 76.74 309.28 C 60.71 288.43 49.51 264.38 39.99 239.99 C 31.28 239.42 22.43 236.14 16.67 229.35 C 5.38 217.45 5.50 196.54 17.58 185.19 C 14.39 185.19 11.20 185.18 8.01 185.18 C 8.00 172.39 8.00 159.61 8.00 146.82 C 13.74 144.98 19.59 143.47 25.26 141.44 C 24.95 123.10 28.58 104.72 35.85 87.88 C 47.76 59.94 69.78 36.46 96.92 22.81 C 98.73 22.15 98.97 20.07 99.76 18.57 C 102.78 11.47 110.31 6.73 118.01 6.84 C 128.00 6.76 138.00 6.84 148.00 6.82 C 148.00 4.54 148.00 2.27 148.00 0.00 M 113.60 28.05 C 113.58 48.30 113.60 68.55 113.59 88.81 C 108.26 88.82 102.93 88.81 97.60 88.81 C 97.59 72.82 97.60 56.82 97.59 40.83 C 87.87 47.09 78.50 54.12 70.95 62.95 C 56.66 78.67 46.89 98.49 43.23 119.42 C 40.65 130.76 41.28 142.46 41.18 153.99 C 35.46 155.61 29.73 157.20 24.00 158.81 C 24.00 162.15 24.00 165.48 24.01 168.82 C 112.00 168.81 200.00 168.81 287.99 168.82 C 288.00 165.33 288.02 161.85 287.96 158.36 C 282.24 156.82 276.54 155.18 270.83 153.60 C 270.71 141.88 271.38 129.99 268.70 118.49 C 263.14 86.18 242.54 57.09 214.40 40.40 C 214.41 56.40 214.41 72.40 214.40 88.40 C 209.07 88.41 203.75 88.40 198.42 88.41 C 198.38 68.28 198.43 48.15 198.40 28.02 C 198.72 25.44 196.69 22.78 194.00 22.87 C 184.00 22.73 174.00 22.86 164.00 22.82 C 163.99 53.48 164.01 84.15 163.99 114.82 C 158.66 114.81 153.33 114.81 148.01 114.82 C 147.99 84.15 148.01 53.48 148.00 22.82 C 137.99 22.86 127.97 22.73 117.96 22.87 C 115.27 22.80 113.27 25.47 113.60 28.05 M 45.21 185.16 C 45.84 200.35 49.42 215.16 53.31 229.78 C 62.67 255.32 74.15 280.47 90.97 302.03 C 102.33 316.48 116.47 329.44 133.81 336.16 C 147.80 341.80 163.88 341.61 177.89 336.14 C 193.30 330.24 206.31 319.38 217.01 307.01 C 236.47 284.21 249.19 256.59 259.34 228.62 C 263.98 214.61 265.99 199.87 266.81 185.18 C 192.94 185.18 119.08 185.21 45.21 185.16 M 282.02 195.98 C 281.00 205.14 279.48 214.22 277.62 223.24 C 288.43 219.40 291.72 202.74 282.02 195.98 M 24.55 204.50 C 22.68 212.20 27.37 220.59 34.79 223.22 C 32.52 214.27 31.31 205.13 29.81 196.04 C 27.28 198.28 25.18 201.12 24.55 204.50 M 165.14 355.39 C 151.23 357.30 137.11 354.34 124.35 348.80 C 124.08 358.74 127.87 368.94 135.64 375.37 C 144.34 383.13 157.14 384.77 168.14 381.87 C 176.36 378.91 183.15 372.08 186.11 363.86 C 187.33 358.93 188.46 353.91 188.45 348.81 C 180.96 351.87 173.23 354.52 165.14 355.39 M 34.27 400.30 C 23.39 405.37 16.02 416.95 16.04 428.96 C 15.95 447.31 16.02 465.65 16.00 484.00 C 28.00 484.00 40.00 484.00 52.00 484.00 C 52.00 480.00 52.00 476.00 52.00 472.00 C 57.33 472.00 62.67 472.00 68.00 472.00 C 68.00 476.00 68.00 480.00 68.00 484.00 C 126.67 484.00 185.33 484.00 244.00 484.00 C 244.00 480.00 244.00 476.00 244.00 472.00 C 249.33 472.00 254.66 472.00 260.00 472.00 C 260.00 476.00 260.00 480.00 260.00 484.00 C 272.14 484.00 284.27 484.00 296.41 484.00 C 296.38 465.67 296.47 447.35 296.36 429.03 C 296.19 417.46 289.40 406.13 278.90 401.09 C 253.69 388.80 228.42 376.63 203.18 364.41 C 200.08 377.24 190.93 388.22 179.43 394.49 C 173.92 397.01 168.04 398.73 162.10 399.86 C 153.34 400.45 144.52 398.93 136.34 395.79 C 129.68 392.83 124.87 387.18 119.79 382.18 C 115.06 377.01 111.36 370.83 109.61 364.01 C 84.48 376.08 59.37 388.17 34.27 400.30 Z" />
	<path d=" M 70.00 140.00 C 127.33 140.00 184.67 140.00 242.00 140.00 C 242.00 145.33 242.00 150.67 242.00 156.00 C 184.67 156.00 127.33 156.00 70.00 156.00 C 70.00 150.67 70.00 145.33 70.00 140.00 Z" />
</svg>
