<svg viewBox="0 0 1000 1240" xmlns="http://www.w3.org/2000/svg">
<path d=" M 94.52 0.00 L 905.40 0.00 C 922.57 1.29 939.57 6.43 954.00 15.94 C 970.58 26.57 983.84 42.23 991.70 60.27 C 996.54 71.11 998.99 82.85 1000.00 94.63 L 1000.00 1145.35 C 998.56 1165.64 991.36 1185.60 978.61 1201.54 C 960.61 1224.72 932.05 1239.28 902.67 1240.00 L 94.77 1240.00 C 77.75 1238.79 60.92 1233.68 46.59 1224.35 C 29.74 1213.71 16.20 1197.93 8.28 1179.66 C 3.45 1168.85 0.99 1157.15 0.00 1145.40 L 0.00 94.63 C 1.53 70.74 11.56 47.45 28.39 30.35 C 45.61 12.37 69.74 1.62 94.52 0.00 M 90.48 40.75 C 79.26 42.58 68.50 47.44 60.06 55.10 C 47.33 66.26 39.92 83.09 40.01 100.00 C 39.99 442.66 40.00 785.31 40.00 1127.97 C 40.08 1136.96 39.44 1146.12 41.85 1154.90 C 46.62 1174.18 61.63 1190.54 80.54 1196.73 C 92.85 1201.32 106.15 1199.71 119.00 1200.00 C 374.65 1200.00 630.31 1200.00 885.97 1200.00 C 893.02 1199.87 900.11 1200.33 907.15 1199.57 C 919.67 1198.01 931.75 1192.55 940.97 1183.90 C 953.30 1172.50 960.31 1155.73 960.00 1138.96 C 959.99 792.65 960.01 446.34 959.99 100.04 C 960.34 75.90 944.58 52.48 921.89 44.09 C 913.99 40.97 905.45 39.79 897.00 40.00 C 632.32 40.00 367.65 40.00 102.98 40.00 C 98.80 40.01 94.61 40.06 90.48 40.75 Z" />
<path d=" M 120.00 120.00 C 373.33 120.00 626.67 120.00 880.00 120.00 C 880.00 186.67 880.00 253.33 880.00 320.00 C 626.66 320.00 373.33 320.00 120.00 320.00 C 120.00 253.33 120.00 186.67 120.00 120.00 M 160.00 160.00 C 160.00 200.00 160.00 240.00 160.00 280.00 C 386.67 280.00 613.33 280.00 840.00 280.00 C 840.00 240.00 840.00 200.00 840.00 160.00 C 613.33 160.00 386.67 160.00 160.00 160.00 Z" />
<path d=" M 95.41 420.55 C 100.89 419.27 106.89 420.36 111.47 423.64 C 117.64 427.83 120.98 435.72 119.74 443.08 C 118.58 451.09 112.07 458.01 104.10 459.55 C 97.13 461.12 89.44 458.48 84.85 453.02 C 80.36 447.90 78.82 440.41 80.94 433.94 C 82.96 427.33 88.69 422.07 95.41 420.55 Z" />
<path d=" M 175.43 420.54 C 185.92 417.79 197.59 425.19 199.55 435.85 C 201.35 443.76 197.66 452.50 190.80 456.80 C 184.61 460.90 176.10 461.04 169.77 457.16 C 163.18 453.33 159.21 445.46 160.12 437.87 C 160.85 429.60 167.34 422.32 175.43 420.54 Z" />
<path d=" M 255.41 420.55 C 260.66 419.33 266.42 420.26 270.91 423.28 C 277.46 427.38 281.05 435.57 279.73 443.17 C 278.53 451.14 272.05 458.00 264.13 459.54 C 256.92 461.18 248.96 458.31 244.41 452.50 C 240.25 447.40 238.90 440.19 240.94 433.94 C 242.96 427.33 248.69 422.08 255.41 420.55 Z" />
<path d=" M 335.38 420.56 C 346.63 417.52 359.03 426.31 359.87 437.92 C 360.76 445.50 356.79 453.35 350.20 457.17 C 343.89 461.04 335.41 460.89 329.22 456.83 C 322.65 452.71 318.94 444.53 320.25 436.87 C 321.36 429.02 327.65 422.29 335.38 420.56 Z" />
<path d=" M 415.37 420.56 C 420.65 419.32 426.44 420.26 430.95 423.30 C 437.48 427.42 441.06 435.60 439.72 443.19 C 438.52 451.16 432.03 458.02 424.10 459.55 C 416.90 461.18 408.95 458.30 404.41 452.50 C 400.26 447.41 398.90 440.21 400.93 433.96 C 402.94 427.36 408.66 422.10 415.37 420.56 Z" />
<path d=" M 495.42 420.54 C 500.69 419.33 506.46 420.27 510.96 423.30 C 517.48 427.42 521.06 435.60 519.72 443.19 C 518.52 451.17 512.02 458.03 504.09 459.55 C 497.13 461.12 489.46 458.49 484.87 453.05 C 480.72 448.31 479.06 441.56 480.52 435.43 C 482.14 428.16 488.17 422.17 495.42 420.54 Z" />
<path d=" M 575.46 420.54 C 580.91 419.28 586.88 420.37 591.45 423.63 C 597.67 427.84 601.02 435.80 599.72 443.20 C 598.52 451.14 592.08 457.96 584.19 459.53 C 577.44 461.08 569.99 458.69 565.34 453.58 C 561.21 449.16 559.25 442.81 560.26 436.83 C 561.38 428.97 567.71 422.24 575.46 420.54 Z" />
<path d=" M 655.45 420.54 C 660.72 419.33 666.48 420.28 670.98 423.32 C 677.47 427.43 681.03 435.56 679.74 443.12 C 678.56 451.09 672.11 457.96 664.19 459.53 C 656.98 461.20 649.00 458.33 644.44 452.53 C 640.27 447.44 638.90 440.23 640.93 433.97 C 642.94 427.33 648.70 422.06 655.45 420.54 Z" />
<path d=" M 735.42 420.54 C 746.26 417.68 758.27 425.70 759.73 436.81 C 761.12 444.69 757.14 453.14 750.23 457.16 C 744.10 460.91 735.93 460.92 729.80 457.18 C 723.19 453.35 719.21 445.48 720.12 437.88 C 720.84 429.61 727.34 422.33 735.42 420.54 Z" />
<path d=" M 815.42 420.55 C 820.67 419.33 826.42 420.27 830.91 423.27 C 836.81 427.00 840.37 434.04 839.96 441.00 C 839.66 447.81 835.58 454.31 829.57 457.53 C 823.30 461.05 815.14 460.75 809.15 456.78 C 802.63 452.66 798.95 444.53 800.24 436.91 C 801.34 429.02 807.67 422.27 815.42 420.55 Z" />
<path d=" M 895.41 420.55 C 906.65 417.53 919.04 426.32 919.88 437.93 C 920.76 445.52 916.77 453.38 910.17 457.19 C 903.85 461.04 895.38 460.88 889.20 456.81 C 882.64 452.70 878.93 444.52 880.25 436.87 C 881.36 429.00 887.67 422.27 895.41 420.55 Z" />
<path d=" M 120.00 560.00 C 173.34 560.00 226.67 560.00 280.00 560.00 C 280.00 613.33 280.00 666.67 280.00 720.00 C 226.67 720.00 173.33 720.00 120.00 720.00 C 120.00 666.67 120.00 613.33 120.00 560.00 M 160.00 600.00 C 160.00 626.67 160.00 653.33 160.00 680.00 C 186.67 680.00 213.33 680.00 240.00 680.00 C 240.00 653.33 240.00 626.67 240.00 600.01 C 213.33 600.00 186.67 600.00 160.00 600.00 Z" />
<path d=" M 320.00 560.00 C 373.33 560.00 426.66 560.00 480.00 560.00 C 480.00 613.33 480.00 666.66 480.00 720.00 C 426.67 720.00 373.33 720.00 320.00 720.00 C 320.00 666.67 320.00 613.33 320.00 560.00 M 360.00 600.00 C 360.00 626.67 360.00 653.33 360.00 680.00 C 386.67 680.00 413.33 680.00 440.00 680.00 C 440.00 653.33 440.00 626.67 440.00 600.00 C 413.33 600.00 386.67 600.00 360.00 600.00 Z" />
<path d=" M 520.00 560.00 C 573.33 560.00 626.67 560.00 680.00 560.00 C 680.00 613.33 680.00 666.67 680.00 720.00 C 626.67 720.00 573.33 720.00 520.00 720.00 C 520.00 666.67 520.00 613.33 520.00 560.00 M 560.00 600.00 C 560.00 626.67 560.00 653.33 560.00 680.00 C 586.67 680.00 613.33 680.00 640.00 679.99 C 640.00 653.33 640.00 626.67 640.00 600.00 C 613.33 600.00 586.67 600.00 560.00 600.00 Z" />
<path d=" M 720.00 560.00 C 773.33 560.00 826.66 560.00 880.00 560.00 C 880.00 613.33 880.00 666.67 880.00 720.00 C 826.66 720.00 773.33 720.00 720.00 720.00 C 720.00 666.67 720.00 613.33 720.00 560.00 M 760.00 600.00 C 760.00 626.67 760.00 653.33 760.00 680.00 C 786.67 680.00 813.33 680.00 840.00 680.00 C 840.00 653.33 840.00 626.67 840.00 600.00 C 813.33 600.00 786.67 600.00 760.00 600.00 Z" />
<path d=" M 120.00 760.00 C 173.34 760.00 226.67 760.00 280.00 760.00 C 280.00 813.33 280.00 866.67 280.00 920.00 C 226.66 920.00 173.33 920.00 120.00 920.00 C 120.00 866.66 120.00 813.33 120.00 760.00 M 160.00 800.00 C 160.00 826.67 160.00 853.33 160.00 880.00 C 186.67 880.00 213.33 880.00 240.00 880.00 C 240.00 853.33 240.00 826.67 240.00 800.00 C 213.33 800.00 186.67 800.00 160.00 800.00 Z" />
<path d=" M 320.00 760.00 C 373.33 760.00 426.67 760.00 480.00 760.00 C 480.00 813.33 480.00 866.67 480.00 920.00 C 426.67 920.00 373.33 920.00 320.00 920.00 C 320.00 866.67 320.00 813.33 320.00 760.00 M 360.00 800.00 C 360.00 826.67 360.00 853.33 360.00 880.00 C 386.67 880.00 413.33 880.00 440.00 880.00 C 440.00 853.33 440.00 826.67 440.00 800.00 C 413.33 800.00 386.67 800.00 360.00 800.00 Z" />
<path d=" M 520.00 760.00 C 573.33 760.00 626.67 760.00 680.00 760.00 C 680.00 813.33 680.00 866.67 680.00 920.00 C 626.67 920.00 573.33 920.00 520.00 920.00 C 520.00 866.67 520.00 813.33 520.00 760.00 M 560.00 800.00 C 560.00 826.67 560.00 853.33 560.00 880.00 C 586.67 880.00 613.33 880.00 640.00 880.00 C 640.00 853.33 640.00 826.67 640.00 800.00 C 613.33 800.00 586.67 800.00 560.00 800.00 Z" />
<path d=" M 720.00 760.00 C 773.33 760.00 826.66 760.00 880.00 760.00 C 880.00 813.33 880.00 866.66 880.00 920.00 C 826.66 920.00 773.33 920.00 720.00 920.00 C 720.00 866.66 720.00 813.33 720.00 760.00 M 760.00 800.00 C 760.00 826.67 760.00 853.33 760.00 880.00 C 786.67 880.00 813.33 880.00 840.00 880.00 C 840.00 853.33 840.00 826.67 840.00 800.00 C 813.33 800.00 786.67 800.00 760.00 800.00 Z" />
<path d=" M 120.00 960.00 C 173.33 960.00 226.67 960.00 280.00 960.00 C 280.00 1013.33 280.00 1066.66 280.00 1120.00 C 226.67 1120.00 173.33 1120.00 120.00 1120.00 C 120.00 1066.66 120.00 1013.33 120.00 960.00 M 160.01 1000.00 C 160.00 1026.67 160.00 1053.33 160.00 1080.00 C 186.67 1080.00 213.33 1080.00 240.00 1080.00 C 240.00 1053.33 240.00 1026.67 240.00 1000.00 C 213.33 1000.00 186.67 1000.00 160.01 1000.00 Z" />
<path d=" M 320.00 960.00 C 373.33 960.00 426.67 960.00 480.00 960.00 C 480.00 1013.33 480.00 1066.66 480.00 1120.00 C 426.67 1120.00 373.33 1120.00 320.00 1120.00 C 320.00 1066.67 320.00 1013.33 320.00 960.00 M 360.00 1000.00 C 360.00 1026.67 360.00 1053.33 360.00 1080.00 C 386.67 1080.00 413.33 1080.00 440.00 1080.00 C 440.00 1053.33 440.00 1026.67 440.00 1000.00 C 413.33 1000.00 386.67 1000.00 360.00 1000.00 Z" />
<path d=" M 520.00 960.00 C 573.33 960.00 626.67 960.00 680.00 960.00 C 680.00 1013.33 680.00 1066.67 680.00 1120.00 C 626.66 1120.00 573.33 1120.00 520.00 1120.00 C 520.00 1066.67 520.00 1013.33 520.00 960.00 M 560.00 1000.00 C 560.00 1026.67 560.00 1053.33 560.00 1080.00 C 586.67 1080.00 613.33 1080.00 640.00 1080.00 C 640.00 1053.33 640.00 1026.67 640.00 1000.00 C 613.33 1000.00 586.67 1000.00 560.00 1000.00 Z" />
<path d=" M 720.00 960.00 C 773.33 960.00 826.66 960.00 880.00 960.00 C 880.00 1013.33 880.00 1066.67 880.00 1120.00 C 826.67 1120.00 773.34 1120.00 720.00 1120.00 C 720.00 1066.67 720.00 1013.33 720.00 960.00 M 760.00 1000.00 C 760.00 1026.67 760.00 1053.33 760.00 1080.00 C 786.67 1080.00 813.33 1080.00 840.00 1080.00 C 840.00 1053.33 840.00 1026.67 840.00 1000.00 C 813.33 1000.00 786.67 1000.00 760.00 1000.00 Z" />
</svg>
