<svg viewBox="0 0 512 424" xmlns="http://www.w3.org/2000/svg">
	<path d=" M 359.35 1.32 C 362.96 -0.74 367.78 0.60 370.13 3.95 C 380.14 17.05 387.80 32.49 389.58 49.05 C 391.01 61.71 387.76 74.90 380.15 85.17 C 376.30 90.45 372.81 96.14 371.41 102.60 C 367.88 117.37 371.87 132.74 377.72 146.37 C 379.39 150.51 381.92 154.23 383.70 158.32 C 385.72 162.61 383.06 168.08 378.64 169.52 C 375.32 170.63 371.32 169.45 369.31 166.56 C 362.26 155.35 357.40 142.83 354.59 129.91 C 351.68 115.15 352.57 99.17 359.74 85.71 C 363.33 78.67 369.33 72.92 371.42 65.13 C 374.98 53.48 371.57 41.09 366.61 30.40 C 363.98 24.36 360.13 18.99 356.42 13.59 C 353.46 9.68 354.90 3.43 359.35 1.32 Z" />
	<path d=" M 416.32 1.23 C 420.21 -0.88 425.15 0.95 427.44 4.56 C 437.33 17.76 444.93 33.29 446.50 49.88 C 447.32 59.08 445.87 68.55 441.86 76.90 C 438.49 84.50 432.07 90.39 429.51 98.40 C 424.04 113.98 428.03 131.01 434.25 145.73 C 436.06 150.38 438.99 154.49 440.83 159.12 C 442.90 164.88 437.00 171.31 431.08 169.75 C 425.82 168.75 424.30 163.03 421.85 159.07 C 415.88 147.35 411.59 134.62 410.20 121.51 C 409.00 109.51 410.73 97.03 416.31 86.25 C 419.82 78.98 426.07 73.16 428.21 65.20 C 431.75 53.60 428.48 41.23 423.52 30.57 C 420.87 24.51 417.06 19.10 413.30 13.70 C 410.22 9.72 411.71 3.31 416.32 1.23 Z" />
	<path d=" M 62.36 4.57 C 65.61 3.63 69.24 5.00 71.26 7.67 C 78.37 16.62 83.79 26.86 87.55 37.64 C 92.18 51.15 92.81 66.51 86.85 79.72 C 83.45 87.96 76.45 94.20 73.82 102.80 C 68.44 118.67 72.78 135.89 79.23 150.76 C 80.96 155.13 83.83 158.97 85.42 163.40 C 86.73 167.85 83.46 172.82 78.98 173.68 C 75.36 174.53 71.46 172.55 69.80 169.28 C 62.00 156.03 56.47 141.27 54.72 125.95 C 53.21 112.21 55.71 97.79 63.12 86.00 C 66.84 80.26 71.43 74.83 73.02 68.02 C 76.16 56.04 72.45 43.56 67.18 32.77 C 64.54 27.01 60.62 22.01 57.23 16.71 C 54.43 12.23 57.26 5.76 62.36 4.57 Z" />
	<path d=" M 119.41 4.51 C 122.97 3.57 126.71 5.42 128.69 8.40 C 138.27 21.11 145.61 35.98 147.63 51.89 C 148.77 61.53 147.52 71.54 143.40 80.37 C 139.91 88.32 133.17 94.47 130.60 102.89 C 125.58 117.78 129.21 133.94 134.89 148.08 C 136.84 153.28 140.01 157.89 142.10 163.01 C 143.99 168.17 139.41 174.13 133.98 173.87 C 130.33 173.91 127.34 171.22 125.92 168.04 C 120.05 158.02 115.87 147.09 113.14 135.82 C 109.95 121.30 110.26 105.52 116.77 91.92 C 120.24 83.81 127.23 77.60 129.57 68.95 C 133.13 57.05 129.58 44.44 124.41 33.59 C 121.73 27.57 117.72 22.31 114.14 16.83 C 111.17 12.29 114.14 5.57 119.41 4.51 Z" />
	<path d=" M 229.66 93.56 C 240.72 81.20 260.65 78.59 274.67 87.31 C 287.19 94.62 294.00 110.13 291.15 124.31 C 289.36 134.09 283.07 142.69 274.67 147.90 C 274.65 150.75 274.65 153.60 274.66 156.46 C 308.10 159.72 340.89 170.53 369.13 188.84 C 407.86 213.47 438.10 251.22 453.57 294.45 C 460.98 314.46 464.72 335.66 465.95 356.93 C 475.77 357.46 486.21 355.35 495.49 359.52 C 504.98 363.70 511.40 373.50 512.00 383.79 L 512.00 396.85 C 511.43 405.97 506.44 414.75 498.57 419.49 C 494.26 422.30 489.13 423.27 484.13 424.00 L 29.01 424.00 C 22.18 423.47 15.17 421.64 9.96 416.96 C 4.07 412.06 0.62 404.66 0.00 397.07 L 0.00 383.99 C 0.51 372.50 8.49 361.71 19.56 358.34 C 28.16 355.88 37.24 357.34 46.05 356.93 C 46.97 348.32 47.11 339.60 48.88 331.10 C 50.12 324.47 51.11 317.77 53.17 311.33 C 67.76 255.49 106.87 206.69 158.03 180.04 C 182.49 166.82 209.74 159.27 237.33 156.47 C 237.34 153.61 237.34 150.75 237.33 147.90 C 233.55 145.35 229.95 142.45 227.25 138.73 C 217.03 125.66 218.25 105.52 229.66 93.56 M 244.67 102.67 C 239.37 106.52 236.31 113.39 237.40 119.90 C 238.11 125.78 241.89 131.20 247.23 133.78 C 250.22 135.25 253.49 137.31 254.00 140.91 C 254.55 145.82 254.11 150.76 254.26 155.69 C 255.41 155.69 256.56 155.69 257.71 155.69 C 257.86 150.80 257.41 145.88 257.96 141.01 C 258.44 137.37 261.71 135.27 264.73 133.79 C 270.10 131.23 273.89 125.79 274.60 119.89 C 275.69 113.39 272.62 106.55 267.35 102.70 C 260.87 97.80 251.16 97.79 244.67 102.67 M 170.55 192.61 C 127.62 213.65 93.04 251.28 75.98 295.97 C 68.18 315.36 64.35 336.13 63.03 356.94 C 157.02 356.95 251.01 356.92 345.00 356.95 C 350.07 356.39 355.14 360.61 354.67 365.88 C 354.55 370.80 349.75 374.26 345.06 373.87 C 240.04 373.89 135.02 373.88 30.00 373.87 C 26.02 373.76 21.72 374.97 19.32 378.37 C 16.68 381.64 16.96 386.06 16.91 390.02 C 16.97 394.23 16.57 398.99 19.46 402.47 C 21.85 405.76 26.07 406.89 29.97 406.81 C 180.66 406.81 331.35 406.81 482.04 406.81 C 485.89 406.89 490.08 405.79 492.48 402.55 C 495.43 399.07 495.03 394.27 495.09 390.02 C 495.04 386.05 495.31 381.60 492.65 378.33 C 490.25 374.97 485.96 373.78 482.01 373.88 C 455.31 373.85 428.61 373.92 401.92 373.85 C 396.66 374.28 391.74 369.33 392.82 364.02 C 393.45 359.72 397.67 356.67 401.94 356.97 C 417.61 356.89 433.29 356.96 448.97 356.94 C 448.03 348.31 447.80 339.58 445.88 331.09 C 441.85 307.78 433.14 285.33 420.83 265.16 C 398.88 229.15 364.84 200.63 325.44 185.57 C 275.82 166.33 218.18 168.78 170.55 192.61 Z" />
</svg>
