<svg viewBox="0 0 657 657" xmlns="http://www.w3.org/2000/svg">
	<path d=" M 62.34 0.00 L 63.65 0.00 C 66.51 3.43 70.93 4.88 74.40 7.57 C 103.80 25.19 133.25 42.74 162.64 60.37 C 168.08 63.66 173.70 66.64 179.17 69.86 C 179.09 94.55 179.19 119.25 179.12 143.94 C 212.14 177.07 245.29 210.08 278.32 243.20 C 289.22 232.43 299.70 221.24 310.43 210.31 C 308.72 201.27 306.70 192.22 306.53 182.99 C 306.15 151.45 314.75 119.91 330.88 92.82 C 347.95 64.01 373.36 40.19 403.30 25.16 C 432.66 10.22 466.40 3.95 499.17 7.47 C 517.47 9.40 535.33 14.56 552.21 21.83 C 563.24 26.35 574.26 30.87 585.31 35.36 C 545.78 74.97 506.17 114.49 466.63 154.08 C 478.32 166.40 490.08 178.65 501.86 190.90 C 540.66 152.12 579.45 113.32 618.24 74.53 C 627.58 89.63 638.71 103.83 645.30 120.47 C 652.82 138.92 655.69 159.13 654.31 178.97 C 653.99 182.63 653.24 186.25 653.14 189.94 C 651.47 227.69 636.94 264.67 612.71 293.64 C 583.85 328.60 540.93 351.60 495.73 355.72 C 536.58 396.72 577.79 437.37 618.79 478.21 C 626.07 485.59 633.95 492.52 639.70 501.23 C 650.89 517.16 656.14 536.65 656.66 555.96 C 655.97 570.16 653.26 584.42 647.21 597.36 C 640.85 611.63 630.76 623.96 619.04 634.17 C 607.28 644.10 593.02 651.00 577.95 654.07 C 554.82 658.92 530.10 654.95 509.44 643.56 C 499.93 638.49 491.73 631.40 483.69 624.31 C 433.00 573.31 382.23 522.37 331.55 471.36 C 279.23 523.77 227.07 576.35 174.81 628.82 C 162.32 641.41 146.09 650.20 128.75 653.88 C 106.39 658.76 82.44 655.42 62.11 644.96 C 49.91 638.81 39.24 629.93 30.19 619.76 C 14.89 602.38 6.59 579.18 6.94 556.07 C 6.95 530.60 17.41 505.39 35.21 487.21 C 104.53 417.61 173.83 347.99 243.20 278.45 C 210.74 246.02 178.07 213.79 145.55 181.42 C 144.35 180.13 142.93 178.88 141.03 179.17 C 117.30 179.16 93.57 179.16 69.84 179.18 C 65.96 172.42 62.24 165.57 58.15 158.93 C 39.97 128.75 22.13 98.37 3.75 68.32 C 2.84 66.75 1.78 65.27 0.51 63.97 L 0.00 63.83 L 0.00 62.68 L 0.75 61.99 C 5.59 57.42 9.89 52.31 14.65 47.65 C 29.59 32.92 44.07 17.72 59.44 3.42 C 60.50 2.36 61.45 1.20 62.34 0.00 M 394.25 92.17 C 373.16 112.61 359.60 140.70 357.03 169.99 C 355.09 189.22 358.68 208.52 364.30 226.86 C 269.55 321.58 175.24 416.75 80.81 511.79 C 73.70 519.08 65.68 525.90 61.21 535.27 C 53.39 550.37 54.13 569.80 64.21 583.70 C 72.50 594.60 84.18 603.53 97.87 606.14 C 112.47 609.24 128.60 604.83 139.16 594.17 C 237.13 495.94 335.08 397.69 433.06 299.47 C 445.74 301.45 458.24 304.60 471.01 306.02 C 504.36 308.88 538.38 296.49 563.03 274.02 C 590.55 249.34 606.27 211.93 603.93 174.97 C 602.99 170.85 600.98 167.05 600.09 162.91 C 567.07 195.94 534.05 228.96 501.02 261.98 C 466.36 225.57 431.06 189.78 396.37 153.39 C 427.83 121.92 459.33 90.48 490.75 58.97 C 487.83 58.15 484.99 56.89 481.96 56.53 C 449.53 56.15 417.31 69.41 394.25 92.17 M 70.42 62.75 C 67.91 65.36 65.35 67.91 62.75 70.43 C 74.63 90.09 86.70 109.63 98.74 129.18 C 107.09 129.11 115.44 129.23 123.79 129.11 C 125.53 127.31 127.31 125.54 129.11 123.80 C 129.21 115.45 129.08 107.10 129.18 98.75 C 109.63 86.69 90.08 74.62 70.42 62.75 M 366.70 436.12 C 415.45 485.45 464.55 534.43 513.37 583.69 C 518.73 588.96 523.74 594.72 530.13 598.82 C 543.45 607.72 561.35 609.85 576.06 603.14 C 584.49 599.53 591.11 592.85 596.75 585.80 C 606.97 572.56 610.22 553.90 603.72 538.31 C 600.61 529.80 593.97 523.51 587.67 517.33 C 537.10 467.18 486.76 416.78 436.12 366.70 C 413.00 389.86 389.86 413.00 366.70 436.12 Z" />
</svg>
