<svg viewBox="0 0 978 928" xmlns="http://www.w3.org/2000/svg">
	<path d=" M 455.13 3.18 C 464.43 -1.27 476.22 0.25 484.04 6.99 C 527.06 47.51 556.85 101.83 567.74 159.94 C 614.18 127.61 670.49 109.91 727.06 109.58 C 733.65 109.50 740.62 109.21 746.61 112.45 C 755.42 116.74 761.48 126.11 761.66 135.93 C 762.51 178.28 754.00 220.85 736.44 259.43 C 710.80 316.08 666.03 363.77 611.31 393.26 C 568.22 416.57 518.98 428.13 470.03 427.00 C 460.32 428.14 450.79 423.74 444.58 416.37 C 419.84 391.79 399.51 362.74 385.23 330.91 C 354.66 263.25 352.20 183.57 378.17 114.05 C 392.37 75.79 415.10 40.79 443.98 11.98 C 447.31 8.61 450.71 5.10 455.13 3.18 M 466.58 67.90 C 449.81 88.41 436.55 111.80 427.78 136.80 C 414.67 173.87 411.45 214.28 417.98 253.02 C 424.49 292.07 441.49 329.25 466.58 359.86 C 479.54 344.03 490.38 326.45 498.70 307.75 C 516.18 268.60 522.11 224.54 516.31 182.11 C 510.72 140.41 493.30 100.40 466.58 67.90 M 572.55 225.82 C 570.59 275.50 555.41 324.61 528.68 366.55 C 581.74 354.56 629.80 322.73 662.08 279.02 C 686.77 245.97 702.13 206.12 706.18 165.08 C 656.53 169.85 608.91 191.75 572.55 225.82 Z" />
	<path d=" M 830.74 377.70 C 843.90 365.13 861.14 356.92 879.20 354.65 C 895.66 352.53 912.72 355.12 927.71 362.28 C 945.11 370.51 959.58 384.74 968.16 401.96 C 975.39 416.42 978.44 432.93 976.91 449.02 C 975.29 466.79 968.02 483.99 956.35 497.49 C 951.56 502.96 946.20 507.90 941.12 513.10 C 842.45 611.77 743.78 710.44 645.11 809.11 C 640.58 813.58 636.23 818.27 631.24 822.24 C 617.06 833.73 599.15 840.46 580.93 841.22 C 575.30 841.43 569.66 841.29 564.04 841.33 C 474.06 841.31 384.09 841.36 294.11 841.31 C 267.90 867.37 241.85 893.59 215.67 919.68 C 205.42 930.15 186.80 929.71 176.99 918.83 C 120.90 862.72 64.79 806.62 8.68 750.51 C -2.20 740.27 -1.83 721.20 9.34 711.30 C 66.04 654.67 122.70 598.02 179.38 541.39 C 188.97 531.96 198.04 521.88 209.09 514.10 C 232.09 497.31 260.53 488.17 289.01 488.45 C 413.36 488.43 537.70 488.42 662.05 488.40 C 678.00 488.35 693.94 492.62 707.69 500.71 C 748.72 459.72 789.67 418.65 830.74 377.70 M 874.57 412.55 C 869.42 415.16 865.72 419.69 861.65 423.63 C 822.19 463.10 782.72 502.56 743.27 542.04 C 751.40 561.54 752.14 584.00 745.12 603.94 C 738.25 623.88 723.75 640.98 705.36 651.24 C 692.51 658.47 677.76 662.22 663.03 662.20 C 594.03 662.20 525.03 662.22 456.03 662.19 C 444.37 662.30 433.34 653.97 430.17 642.76 C 427.68 634.58 429.37 625.28 434.61 618.52 C 439.60 611.94 447.69 607.82 455.97 607.84 C 524.98 607.81 594.00 607.84 663.02 607.82 C 673.04 607.93 682.92 603.01 688.94 595.01 C 695.03 587.14 697.09 576.39 694.45 566.82 C 691.92 557.25 684.47 549.39 675.56 545.38 C 670.06 542.82 663.90 542.58 657.95 542.77 C 534.62 542.79 411.28 542.81 287.95 542.83 C 267.18 542.75 246.59 551.23 231.84 565.84 C 176.66 620.98 121.47 676.10 66.30 731.25 C 109.78 774.74 153.26 818.22 196.75 861.69 C 219.09 839.38 241.40 817.03 263.74 794.72 C 269.51 788.87 277.94 786.36 286.03 786.94 C 383.02 786.96 480.01 786.96 577.01 786.94 C 585.62 786.97 594.14 783.35 600.14 777.17 C 703.81 673.51 807.46 569.84 911.14 466.18 C 914.79 462.72 918.15 458.81 920.15 454.13 C 925.36 442.76 923.19 428.49 914.77 419.23 C 905.05 408.03 887.43 405.53 874.57 412.55 Z" />
</svg>
