<svg viewBox="0 0 1024 640" xmlns="http://www.w3.org/2000/svg">
	<path d=" M 506.26 0.00 L 517.72 0.00 C 561.38 0.64 604.96 7.10 646.87 19.38 C 717.81 39.93 783.52 76.19 841.80 121.22 C 896.76 163.77 945.64 213.95 988.14 268.89 C 1000.81 285.36 1012.84 302.32 1024.00 319.85 L 1024.00 320.00 C 1010.44 341.71 995.21 362.33 979.31 382.38 C 941.56 429.53 899.06 472.99 851.92 510.81 C 800.70 551.86 743.67 586.18 682.00 609.02 C 629.52 628.59 573.73 639.26 517.71 640.00 L 506.29 640.00 C 457.92 639.26 409.68 631.29 363.68 616.31 C 291.81 593.17 225.82 554.03 167.58 506.33 C 126.52 472.69 89.11 434.70 55.27 393.83 C 35.41 369.70 16.71 344.58 0.00 318.16 L 0.00 318.03 C 16.14 292.38 34.54 268.22 53.82 244.85 C 95.92 194.42 143.51 148.35 196.68 109.67 C 262.52 61.65 337.70 25.22 417.92 9.34 C 447.00 3.50 476.61 0.52 506.26 0.00 M 490.96 64.52 C 418.48 67.66 347.26 89.44 284.35 125.32 C 231.64 155.12 184.48 194.16 143.36 238.48 C 120.07 263.86 98.36 290.83 79.99 320.01 C 91.06 337.63 103.45 354.40 116.54 370.57 C 148.91 410.31 185.92 446.34 226.94 477.11 C 258.99 501.07 293.62 521.68 330.31 537.70 C 370.55 555.31 413.30 567.25 456.90 572.61 C 507.89 578.86 559.97 576.40 610.11 565.18 C 647.86 556.72 684.48 543.33 718.97 525.80 C 780.59 494.59 835.30 450.76 881.99 400.06 C 904.76 375.09 926.01 348.61 944.01 319.98 C 935.23 305.98 925.59 292.53 915.46 279.48 C 891.80 249.15 865.43 220.93 836.71 195.33 C 782.05 146.48 718.07 107.24 647.96 85.07 C 597.41 68.91 543.95 62.04 490.96 64.52 Z" />
	<path d=" M 494.54 128.82 C 535.25 125.04 577.09 134.62 611.94 156.04 C 642.35 174.59 667.43 201.76 683.45 233.59 C 703.58 273.13 709.08 319.78 699.12 362.99 C 690.79 399.75 671.16 433.81 643.72 459.64 C 616.58 485.31 581.81 502.87 544.96 509.13 C 501.20 516.82 454.84 508.78 416.40 486.47 C 384.25 468.04 357.65 440.09 340.87 407.05 C 327.78 381.45 320.63 352.84 320.09 324.09 C 319.35 292.63 326.51 261.02 340.84 232.99 C 356.32 202.51 380.13 176.33 408.99 158.00 C 434.62 141.62 464.23 131.51 494.54 128.82 Z" />
</svg>
