<svg viewBox="0 0 980 980" xmlns="http://www.w3.org/2000/svg">
	<path d=" M 56.04 1.77 C 87.02 0.87 118.01 0.93 149.00 0.74 C 256.67 0.47 364.33 0.72 472.00 0.80 C 580.00 0.88 688.00 1.04 795.99 1.13 C 799.59 1.20 803.21 0.90 806.80 1.30 C 820.91 6.86 833.28 16.69 841.76 29.28 C 844.80 34.17 845.87 39.94 846.65 45.56 C 847.81 54.53 848.08 63.58 848.39 72.62 C 849.25 112.40 848.96 152.20 849.02 192.00 C 849.02 247.73 849.03 303.47 849.01 359.20 C 837.39 359.20 825.76 359.19 814.14 359.20 C 813.93 321.24 813.56 283.28 813.12 245.33 C 553.93 245.33 294.74 245.35 35.54 245.32 C 35.53 430.89 35.54 616.47 35.54 802.05 C 35.27 805.11 38.44 806.75 40.14 808.85 C 42.28 810.59 43.96 813.76 47.06 813.63 C 161.87 814.11 276.69 814.36 391.50 814.68 C 391.51 826.30 391.51 837.91 391.51 849.52 C 332.67 849.40 273.84 849.24 215.01 849.12 C 164.33 848.73 113.65 849.07 62.99 847.96 C 52.63 847.22 41.38 848.43 32.07 842.89 C 19.98 836.12 9.96 825.68 3.70 813.32 C 2.42 810.69 0.50 808.12 0.66 805.06 C 0.43 682.86 0.35 560.67 0.00 438.47 L 0.00 238.53 C 0.39 175.66 -0.10 112.79 1.23 49.94 C 0.99 42.64 3.95 35.74 7.58 29.57 C 14.37 18.23 24.97 9.31 37.11 4.16 C 43.06 1.53 49.72 2.27 56.04 1.77 M 37.33 43.32 C 34.86 44.66 35.63 47.64 35.49 49.95 C 35.12 103.10 34.72 156.24 34.29 209.39 C 294.24 209.41 554.19 209.41 814.14 209.39 C 814.16 179.59 814.20 149.80 814.12 120.00 C 813.89 96.31 814.22 72.58 812.61 48.93 C 812.56 42.44 806.63 36.30 800.01 36.79 C 781.68 36.07 763.33 35.95 745.00 35.75 C 692.00 35.34 639.00 35.28 586.00 35.13 C 406.67 34.96 227.32 34.97 47.99 35.03 C 43.87 36.66 40.96 40.71 37.33 43.32 Z" />
	<path d=" M 176.07 104.76 C 228.05 104.76 280.02 104.76 332.00 104.76 C 331.99 116.40 332.02 128.03 331.98 139.67 C 280.01 139.62 228.04 139.63 176.08 139.67 C 176.07 128.03 176.08 116.39 176.07 104.76 Z" />
	<path d=" M 463.31 104.76 C 515.97 104.76 568.63 104.77 621.29 104.75 C 621.32 116.39 621.30 128.02 621.30 139.66 C 568.64 139.64 515.98 139.63 463.32 139.66 C 463.31 128.03 463.33 116.39 463.31 104.76 Z" />
	<path d=" M 315.58 332.49 C 327.21 332.45 338.85 332.46 350.50 332.48 C 350.23 358.82 349.89 385.16 349.46 411.49 C 338.17 411.87 326.89 412.34 315.60 412.70 C 315.59 385.96 315.63 359.23 315.58 332.49 Z" />
	<path d=" M 558.24 425.10 C 596.24 406.12 638.34 394.69 680.95 394.28 C 722.01 393.92 763.30 401.63 801.03 417.97 C 857.89 442.62 906.17 485.91 938.03 538.95 C 963.49 580.97 978.38 629.42 980.00 678.58 L 980.00 692.43 C 978.35 742.78 963.88 792.68 937.81 835.82 C 901.83 896.12 843.79 942.71 777.33 965.26 C 735.90 979.16 691.26 982.25 648.01 976.96 C 600.21 971.06 554.50 951.70 515.86 923.12 C 467.10 887.29 429.61 836.41 409.83 779.22 C 402.93 759.10 397.57 738.29 396.01 717.01 C 394.11 692.25 393.90 667.22 397.35 642.58 C 401.35 619.69 407.81 597.18 416.80 575.74 C 429.89 544.41 448.96 515.80 471.49 490.48 C 495.91 463.44 525.69 441.40 558.24 425.10 M 654.46 430.80 C 618.38 435.21 583.28 447.38 552.21 466.23 C 521.53 484.80 494.73 509.81 474.30 539.30 C 450.73 573.21 435.97 613.05 431.04 654.01 C 425.35 700.69 432.19 748.89 450.94 792.04 C 463.57 821.31 481.76 848.16 504.26 870.74 C 525.75 892.23 551.25 909.65 579.00 922.00 C 621.38 940.96 668.81 948.25 714.96 943.45 C 754.10 939.43 792.43 926.71 825.80 905.79 C 856.53 886.76 882.52 860.56 902.56 830.58 C 927.13 794.14 941.04 750.90 943.57 707.09 C 945.10 680.24 943.97 653.05 938.12 626.73 C 932.41 601.11 921.68 576.89 908.87 554.08 C 900.82 539.69 890.93 526.37 879.65 514.36 C 867.55 501.41 854.61 489.19 840.35 478.63 C 808.92 455.11 771.69 439.71 733.09 432.97 C 707.04 429.77 680.63 428.78 654.46 430.80 Z" />
	<path d=" M 112.79 437.49 C 121.56 436.89 130.37 437.23 139.15 437.13 C 139.13 463.87 139.17 490.60 139.14 517.34 C 127.85 516.96 116.57 516.51 105.29 516.13 C 104.92 492.76 104.38 469.39 104.76 446.02 C 104.84 443.81 104.80 441.57 105.28 439.40 C 107.41 437.78 110.25 437.80 112.79 437.49 Z" />
	<path d=" M 210.98 436.93 C 222.26 437.30 233.54 437.77 244.82 438.15 C 244.80 464.14 244.81 490.13 244.81 516.13 C 233.54 516.52 222.26 516.96 210.98 517.35 C 210.97 490.54 210.97 463.74 210.98 436.93 Z" />
	<path d=" M 315.60 437.12 C 327.22 437.15 338.85 437.14 350.47 437.12 C 350.49 463.80 350.48 490.48 350.48 517.16 C 338.85 517.15 327.23 517.18 315.61 517.14 C 315.59 490.47 315.60 463.79 315.60 437.12 Z" />
	<path d=" M 656.17 515.10 C 667.79 515.09 679.40 515.10 691.02 515.09 C 691.05 571.17 691.03 627.25 691.03 683.33 C 747.12 683.33 803.21 683.35 859.30 683.32 C 859.30 694.95 859.31 706.58 859.29 718.21 C 791.58 718.24 723.87 718.21 656.17 718.22 C 656.19 650.51 656.18 582.81 656.17 515.10 Z" />
	<path d=" M 107.42 542.67 C 117.93 541.24 128.58 541.99 139.15 541.81 C 139.15 568.48 139.14 595.14 139.16 621.81 C 127.52 621.79 115.89 621.80 104.26 621.80 C 104.44 597.18 103.81 572.53 105.05 547.93 C 105.39 546.05 104.62 542.74 107.42 542.67 Z" />
	<path d=" M 210.98 541.57 C 221.30 541.92 231.61 542.34 241.93 542.67 C 242.89 542.85 245.18 542.35 244.84 544.07 C 245.26 569.98 245.61 595.90 245.84 621.81 C 234.23 621.79 222.62 621.79 211.01 621.81 C 210.94 595.07 210.99 568.32 210.98 541.57 Z" />
	<path d=" M 315.60 541.58 C 326.89 541.93 338.17 542.42 349.46 542.77 C 349.88 569.12 350.26 595.47 350.47 621.82 C 338.85 621.78 327.23 621.79 315.61 621.82 C 315.59 595.07 315.60 568.32 315.60 541.58 Z" />
	<path d=" M 104.28 648.44 C 115.88 648.47 127.49 648.47 139.10 648.44 C 139.24 674.43 139.13 700.43 139.16 726.42 C 127.52 726.42 115.89 726.43 104.26 726.41 C 104.31 700.42 104.27 674.43 104.28 648.44 Z" />
	<path d=" M 211.03 648.43 C 222.63 648.48 234.23 648.47 245.84 648.44 C 245.86 674.43 245.82 700.42 245.86 726.41 C 234.23 726.43 222.61 726.42 210.99 726.42 C 211.00 700.42 210.92 674.42 211.03 648.43 Z" />
	<path d=" M 315.61 648.47 C 327.23 648.46 338.86 648.44 350.49 648.48 C 350.47 674.46 350.51 700.44 350.46 726.43 C 338.84 726.41 327.22 726.43 315.60 726.41 C 315.60 700.43 315.59 674.45 315.61 648.47 Z" />
</svg>
