<svg viewBox="0 0 512 422" xmlns="http://www.w3.org/2000/svg">
	<path d=" M 197.45 0.00 L 312.83 0.00 L 314.39 0.70 C 311.91 0.88 309.43 1.02 306.95 1.02 C 275.98 0.98 245.01 1.01 214.04 1.00 C 209.02 0.96 203.99 1.23 198.99 0.75 L 197.45 0.00 Z" />
	<path d=" M 28.07 421.23 C 34.04 420.84 40.01 421.02 45.99 421.00 C 167.97 421.00 289.95 421.00 411.93 421.00 C 435.92 421.16 459.92 420.67 483.89 421.25 L 482.36 422.00 L 29.56 422.00 L 28.07 421.23 Z" />
	<path d=" M 172.64 17.65 C 177.31 7.65 187.91 0.72 198.99 0.75 C 203.99 1.23 209.02 0.96 214.04 1.00 C 245.01 1.01 275.98 0.98 306.95 1.02 C 309.43 1.02 311.91 0.88 314.39 0.70 C 322.47 1.35 330.31 5.14 335.42 11.49 C 340.03 16.90 342.31 23.99 342.34 31.05 C 342.44 43.96 342.34 56.86 342.37 69.77 C 360.27 69.79 378.16 69.78 396.05 69.78 C 396.06 64.76 396.06 59.74 396.06 54.73 C 416.38 54.71 436.70 54.71 457.03 54.72 C 457.03 59.75 457.03 64.77 457.04 69.79 C 466.71 70.00 476.42 69.26 486.05 70.27 C 499.98 72.19 511.08 84.72 512.00 98.65 L 512.00 392.27 C 511.29 400.33 507.72 408.21 501.56 413.56 C 496.69 417.96 490.38 420.53 483.89 421.25 C 459.92 420.67 435.92 421.16 411.93 421.00 C 289.95 421.00 167.97 421.00 45.99 421.00 C 40.01 421.02 34.04 420.84 28.07 421.23 C 19.49 420.39 11.33 415.91 6.19 408.96 C 2.53 404.20 0.66 398.30 0.00 392.38 L 0.00 98.78 C 0.71 91.90 3.26 85.09 8.02 79.98 C 13.58 73.78 21.72 70.05 30.04 69.88 C 38.35 69.63 46.66 69.86 54.96 69.78 C 54.97 64.48 54.97 59.18 54.97 53.88 C 75.31 53.87 95.64 53.87 115.97 53.88 C 115.97 59.18 115.97 64.48 115.99 69.78 C 133.88 69.78 151.77 69.79 169.66 69.77 C 169.64 58.52 169.68 47.26 169.64 36.01 C 169.55 29.79 169.77 23.31 172.64 17.65 M 210.88 41.85 C 210.91 51.16 210.79 60.47 210.95 69.78 C 241.00 69.72 271.04 69.75 301.08 69.76 C 301.16 60.46 301.11 51.16 301.12 41.85 C 271.04 41.84 240.96 41.84 210.88 41.85 M 29.46 90.61 C 23.92 91.14 20.14 96.64 20.63 102.00 C 20.65 198.00 20.58 294.00 20.67 390.00 C 20.28 396.17 25.96 401.24 32.00 400.74 C 179.67 400.78 327.35 400.72 475.03 400.76 C 479.22 400.67 484.04 401.33 487.52 398.42 C 490.41 396.26 491.45 392.54 491.40 389.07 C 491.40 293.37 491.39 197.67 491.37 101.97 C 491.30 99.19 490.88 96.20 488.92 94.07 C 486.57 91.10 482.60 90.28 479.00 90.37 C 332.68 90.38 186.35 90.37 40.03 90.37 C 36.51 90.42 32.96 90.17 29.46 90.61 Z" />
	<path d=" M 240.49 117.70 C 272.61 113.74 306.11 122.43 332.10 141.77 C 356.30 159.42 374.04 185.79 381.06 214.93 C 390.19 251.38 382.24 291.69 359.69 321.77 C 337.62 352.21 301.56 372.03 263.99 374.04 C 233.41 376.11 202.24 366.64 177.98 347.92 C 151.62 328.02 133.46 297.56 128.70 264.85 C 122.79 227.56 134.54 187.96 159.89 159.97 C 180.41 136.68 209.67 121.39 240.49 117.70 M 251.34 137.52 C 237.21 138.06 223.21 141.49 210.42 147.50 C 187.24 158.18 168.20 177.44 157.60 200.64 C 147.09 223.44 144.99 249.97 151.68 274.16 C 157.75 296.66 171.49 316.94 189.93 331.14 C 207.33 344.68 228.97 352.67 251.00 353.59 C 275.44 354.82 300.22 347.35 319.88 332.79 C 336.61 320.55 349.74 303.43 357.08 284.03 C 366.12 260.55 366.49 233.87 358.19 210.12 C 349.87 186.05 332.72 165.15 310.72 152.31 C 292.92 141.75 272.01 136.55 251.34 137.52 Z" />
	<path d=" M 240.79 170.19 C 250.94 170.18 261.09 170.19 271.24 170.18 C 271.24 190.21 271.30 210.24 271.21 230.27 C 291.27 230.48 311.34 230.21 331.41 230.40 C 331.31 240.55 331.45 250.70 331.33 260.84 C 311.30 260.83 291.26 260.73 271.22 260.89 C 271.29 280.92 271.24 300.94 271.25 320.97 C 261.09 320.97 250.94 320.98 240.79 320.97 C 240.77 300.92 240.78 280.87 240.78 260.82 C 220.73 260.81 200.69 260.81 180.65 260.83 C 180.57 250.69 180.70 240.56 180.57 230.43 C 200.65 230.18 220.74 230.48 240.82 230.28 C 240.73 210.25 240.79 190.22 240.79 170.19 Z" />
</svg>
