<svg viewBox="0 0 43 57" xmlns="http://www.w3.org/2000/svg">
	<path d=" M 0.00 0.00 L 29.63 0.00 C 34.19 4.44 38.65 9.00 43.00 13.65 L 43.00 57.00 L 0.00 57.00 L 0.00 0.00 M 1.53 1.64 C 1.21 19.63 1.53 37.64 1.38 55.64 C 14.93 55.72 28.49 55.67 42.04 55.67 C 42.64 49.45 42.22 43.21 42.31 36.98 C 42.22 29.93 42.59 22.87 42.15 15.82 C 37.49 15.85 32.82 15.87 28.16 15.79 C 28.12 11.00 28.31 6.20 28.01 1.40 C 19.19 1.62 10.33 1.12 1.53 1.64 M 29.36 1.77 C 29.28 6.03 29.35 10.30 29.29 14.56 C 33.50 14.56 37.71 14.63 41.91 14.45 C 37.67 10.28 33.69 5.84 29.36 1.77 Z" />
	<path d=" M 9.58 24.56 C 12.30 24.38 16.84 24.20 16.95 27.99 C 17.62 31.16 14.86 33.20 12.03 33.51 C 12.06 35.07 12.10 36.62 12.15 38.18 C 11.29 38.24 10.44 38.32 9.59 38.42 C 9.57 33.80 9.57 29.18 9.58 24.56 M 11.83 31.28 C 15.22 31.28 15.25 27.35 12.89 25.78 C 11.72 27.39 11.95 29.42 11.83 31.28 Z" />
	<path d=" M 18.68 24.60 C 21.41 24.39 25.17 24.28 26.25 27.45 C 27.25 30.89 27.36 35.78 23.93 37.94 C 22.24 38.48 20.43 38.34 18.68 38.42 C 18.73 33.81 18.75 29.21 18.68 24.60 M 21.14 26.22 C 21.06 29.81 21.01 33.40 21.26 36.98 C 25.48 35.56 24.88 29.97 23.45 26.65 C 22.87 26.54 21.72 26.33 21.14 26.22 Z" />
	<path d=" M 28.74 24.57 C 30.66 24.58 32.58 24.58 34.50 24.57 C 34.46 25.38 34.38 26.18 34.28 26.98 C 33.49 26.93 31.91 26.81 31.13 26.75 C 31.17 28.02 31.18 29.28 31.17 30.54 C 32.00 30.54 33.66 30.53 34.48 30.53 C 34.71 32.84 32.75 32.64 31.14 32.72 C 30.85 34.97 32.50 39.05 28.75 38.52 C 28.77 33.87 28.79 29.22 28.74 24.57 Z" />
</svg>