<svg viewBox="0 0 637 640" xmlns="http://www.w3.org/2000/svg">
	<path d=" M 381.02 0.00 L 387.50 0.00 C 412.28 1.36 436.97 5.56 460.49 13.61 C 498.00 26.20 532.48 47.60 560.49 75.53 C 585.24 100.08 604.97 129.68 618.03 162.01 C 629.40 189.89 635.51 219.76 637.00 249.80 L 637.00 256.41 C 635.89 261.67 633.43 266.79 629.14 270.16 C 622.16 276.09 611.26 276.52 603.78 271.26 C 597.76 267.33 594.27 260.18 594.45 253.05 C 593.05 199.04 570.45 145.95 532.45 107.54 C 496.38 70.45 446.62 47.17 395.05 43.12 C 387.73 42.07 379.76 43.75 373.04 39.95 C 364.61 35.53 360.01 25.06 362.60 15.87 C 364.65 7.37 372.46 1.07 381.02 0.00 Z" />
	<path d=" M 355.47 78.64 C 356.94 78.33 358.44 78.24 359.95 78.23 C 415.23 79.35 469.42 104.44 506.25 145.66 C 538.45 181.06 557.37 228.15 558.74 275.98 C 559.12 282.50 556.12 289.04 551.06 293.12 C 544.50 298.71 534.42 299.53 527.04 295.11 C 520.64 291.50 516.50 284.37 516.40 277.05 C 515.13 238.08 499.20 199.81 472.36 171.53 C 443.76 140.87 402.87 122.18 360.97 120.60 C 353.58 120.79 346.20 117.01 342.24 110.73 C 338.89 105.55 337.94 98.88 339.87 93.00 C 342.01 85.89 348.24 80.24 355.47 78.64 Z" />
	<path d=" M 108.11 84.40 C 137.94 78.94 169.89 89.36 191.28 110.75 C 205.88 124.81 215.37 143.08 223.57 161.38 C 232.21 181.36 238.46 203.15 236.35 225.11 C 234.83 241.17 227.78 256.82 215.91 267.86 C 209.52 273.99 201.53 278.07 195.01 284.04 C 184.68 293.05 175.44 304.89 174.20 318.99 C 172.89 335.28 181.55 350.26 191.31 362.59 C 213.30 389.44 237.56 414.44 263.60 437.38 C 273.89 446.26 284.20 455.52 296.71 461.16 C 307.23 466.12 319.77 467.92 330.82 463.62 C 344.35 458.48 354.68 447.52 362.85 435.92 C 367.17 429.37 372.15 423.15 378.35 418.27 C 390.27 408.53 405.69 403.69 420.97 403.40 C 441.65 402.86 461.82 409.19 480.54 417.48 C 496.36 424.79 512.16 432.91 525.02 444.89 C 537.42 456.21 547.03 470.66 552.18 486.68 C 557.42 503.15 558.64 521.25 553.97 537.99 C 549.30 551.36 540.88 563.10 531.48 573.55 C 508.03 599.08 476.63 615.91 444.17 627.12 C 425.39 633.34 406.17 639.02 386.29 640.00 L 374.50 640.00 C 335.27 637.98 297.83 623.80 263.30 605.83 C 217.70 581.72 175.92 550.83 137.48 516.55 C 126.85 507.48 117.98 496.63 108.94 486.04 C 89.03 462.27 70.53 437.30 53.99 411.06 C 35.85 382.05 19.87 351.40 9.68 318.64 C 4.35 301.59 1.05 283.92 0.00 266.09 L 0.00 254.46 C 0.57 245.16 1.62 235.87 3.89 226.82 C 11.93 193.49 24.46 160.70 44.75 132.81 C 55.81 117.70 69.23 104.09 85.16 94.11 C 92.25 89.74 99.83 85.85 108.11 84.40 M 118.15 117.26 C 114.88 117.53 111.57 118.05 108.64 119.59 C 97.23 125.16 87.58 133.79 79.30 143.30 C 64.46 160.60 54.02 181.24 46.32 202.58 C 41.75 215.51 37.80 228.71 35.27 242.20 C 31.01 269.87 37.65 297.89 47.29 323.74 C 59.90 356.86 78.09 387.56 98.29 416.57 C 113.15 437.79 129.21 458.16 146.34 477.58 C 153.64 486.30 162.57 493.42 171.05 500.92 C 188.22 515.57 206.03 529.47 224.52 542.42 C 251.46 561.23 279.86 578.24 310.33 590.71 C 332.49 599.65 356.02 606.19 380.06 606.28 C 395.83 606.42 411.11 602.06 426.05 597.48 C 448.08 590.54 469.52 580.97 488.16 567.19 C 499.38 558.85 509.61 548.92 517.09 537.04 C 519.32 533.25 521.75 529.37 522.22 524.91 C 523.39 516.63 523.00 508.11 520.89 500.02 C 517.29 485.73 507.89 473.44 496.14 464.79 C 485.77 457.23 474.14 451.60 462.40 446.52 C 448.36 440.81 433.25 436.10 417.92 437.57 C 408.02 438.47 398.39 443.55 392.90 451.97 C 382.51 467.57 369.32 481.79 352.68 490.76 C 339.41 498.03 323.92 501.21 308.88 499.44 C 289.65 497.28 272.02 487.82 257.00 476.01 C 224.79 449.77 195.39 420.14 168.68 388.35 C 158.73 376.64 150.03 363.61 144.89 349.05 C 138.64 331.89 138.49 312.42 145.42 295.43 C 153.42 275.46 169.24 259.65 186.84 247.79 C 192.08 244.45 196.54 239.78 199.18 234.11 C 203.24 225.66 203.40 215.94 202.19 206.82 C 199.94 191.68 194.10 177.34 187.27 163.74 C 181.10 151.32 173.61 139.14 162.64 130.38 C 150.36 120.23 133.94 115.62 118.15 117.26 Z" />
	<path d=" M 328.17 159.28 C 333.04 158.01 338.11 158.89 343.04 159.29 C 376.32 162.60 408.30 177.45 432.28 200.77 C 460.02 227.22 476.87 264.66 478.31 302.96 C 478.57 310.29 474.57 317.49 468.35 321.33 C 461.82 325.51 452.98 325.66 446.34 321.65 C 440.10 318.06 436.02 311.14 435.80 303.95 C 434.63 279.30 424.77 255.14 408.17 236.86 C 389.23 215.58 361.56 202.43 333.11 201.15 C 323.05 200.98 313.78 192.99 312.49 182.95 C 310.75 172.55 317.92 161.72 328.17 159.28 Z" />
</svg>