<svg viewBox="0 0 706 705" xmlns="http://www.w3.org/2000/svg">
	<path d=" M 140.68 0.00 L 146.62 0.00 C 160.10 1.22 170.37 12.23 176.15 23.71 C 201.90 72.62 227.67 121.53 253.49 170.42 C 262.73 186.14 257.88 207.02 245.83 219.84 C 233.69 232.01 221.54 244.17 209.36 256.30 C 205.60 260.02 203.59 265.85 205.09 271.03 C 208.84 286.63 216.09 301.12 224.01 314.98 C 239.09 340.43 257.14 364.09 277.59 385.46 C 292.58 401.11 307.87 416.50 323.69 431.31 C 345.12 451.35 368.78 468.97 394.06 483.84 C 406.64 490.72 419.63 497.62 433.94 499.97 C 439.14 501.59 445.08 499.77 448.78 495.87 C 459.51 484.89 470.29 473.97 481.04 463.02 C 486.09 458.07 490.61 452.43 496.76 448.76 C 507.06 442.11 519.99 440.48 531.90 442.69 C 538.31 443.89 544.13 447.05 549.62 450.45 C 594.01 476.68 638.41 502.91 682.81 529.12 C 687.81 531.95 692.67 535.16 696.59 539.41 C 702.26 545.44 706.01 553.59 705.58 561.98 C 705.47 570.75 701.52 579.19 695.37 585.36 C 661.30 619.28 627.09 653.06 593.05 687.00 C 585.50 694.17 575.87 698.80 566.00 701.84 C 550.36 706.31 533.83 704.55 517.91 702.75 C 498.87 700.55 479.88 697.38 461.59 691.49 C 426.49 680.62 392.83 665.39 360.98 647.12 C 332.59 630.80 304.79 613.29 278.90 593.20 C 249.52 570.50 222.02 545.47 195.79 519.22 C 163.76 487.73 133.07 454.72 106.34 418.57 C 88.11 393.76 70.89 368.16 55.82 341.29 C 39.17 311.13 24.41 279.72 14.65 246.61 C 7.53 223.31 2.10 199.36 0.63 174.99 C 0.35 169.67 0.46 164.34 0.80 159.03 C 1.19 153.55 0.94 147.98 2.42 142.63 C 5.67 129.93 11.74 117.54 21.66 108.73 C 54.22 76.26 86.72 43.72 119.23 11.19 C 124.82 5.12 132.43 0.94 140.68 0.00 Z" />
</svg>
