<svg viewBox="0 0 980 752" xmlns="http://www.w3.org/2000/svg">
	<path d=" M 382.34 23.96 C 408.31 5.84 440.84 -0.17 472.01 0.98 C 520.43 2.27 567.09 16.73 614.85 23.19 C 629.95 25.07 645.29 26.23 660.45 24.29 C 665.26 23.79 670.57 23.40 674.87 26.09 C 678.89 28.39 681.36 32.66 682.35 37.10 C 686.92 54.36 688.48 72.25 689.62 90.02 C 692.50 147.04 686.59 204.34 674.04 259.98 C 673.23 286.01 675.39 312.23 671.73 338.12 C 665.93 379.74 649.07 419.90 622.76 452.74 C 599.54 481.72 568.42 505.25 532.45 515.62 C 508.39 522.63 482.57 523.59 458.09 518.16 C 421.93 510.42 389.66 489.20 365.19 461.84 C 332.15 425.02 311.88 377.23 307.20 328.06 C 305.77 313.39 306.30 298.63 306.30 283.92 C 306.32 281.94 305.80 280.03 305.38 278.12 C 300.62 257.51 296.35 236.78 292.58 215.97 C 288.13 190.82 284.04 165.53 282.89 139.98 C 281.64 115.99 286.29 91.31 298.50 70.43 C 308.09 53.78 322.85 40.07 340.46 32.29 C 353.57 26.42 368.01 23.68 382.34 23.96 M 402.99 46.87 C 398.37 49.51 394.48 53.93 388.88 54.42 C 380.24 54.40 371.46 54.65 363.06 56.92 C 347.05 60.95 332.91 71.65 324.57 85.89 C 315.27 101.45 312.60 120.07 313.45 137.94 C 314.54 163.45 318.84 188.69 323.34 213.78 C 330.55 195.21 339.06 177.14 348.75 159.73 C 350.91 155.66 354.94 152.62 359.50 151.79 C 407.09 145.67 455.43 144.84 503.13 150.33 C 547.63 155.61 591.90 165.83 632.92 184.16 C 637.98 186.78 644.06 188.53 647.32 193.57 C 649.64 197.57 651.04 202.03 652.99 206.21 C 656.59 181.97 658.78 157.52 659.41 133.02 C 660.00 107.13 659.16 81.11 655.00 55.51 C 618.11 57.61 581.90 48.61 545.93 41.81 C 517.31 36.13 488.33 30.69 459.02 31.51 C 439.52 32.12 419.66 36.37 402.99 46.87 M 371.80 181.48 C 361.23 201.85 351.67 222.83 344.80 244.76 C 340.38 259.12 336.92 273.97 336.82 289.07 C 336.78 295.39 336.78 301.71 336.82 308.03 C 336.98 338.54 344.33 368.93 357.73 396.31 C 373.88 429.34 399.15 458.71 431.84 476.17 C 450.85 486.25 472.43 491.76 494.00 491.00 C 513.43 490.42 532.57 484.84 549.62 475.57 C 565.74 466.83 580.06 454.97 592.29 441.35 C 620.74 409.62 638.14 368.45 642.27 326.12 C 643.60 312.77 643.10 299.34 643.20 285.96 C 643.13 277.95 643.33 269.94 643.11 261.94 C 636.48 245.71 629.48 229.62 622.67 213.46 C 600.99 203.55 578.11 196.51 554.97 190.96 C 495.12 176.89 432.79 174.40 371.80 181.48 Z" />
	<path d=" M 705.60 129.47 C 700.61 119.83 709.35 107.35 720.01 108.21 C 741.71 108.73 763.23 111.89 784.64 115.22 C 805.04 118.35 825.38 122.33 846.02 123.54 C 851.00 124.01 856.06 123.07 860.99 124.04 C 867.40 125.49 872.38 131.47 872.68 138.04 C 871.67 151.00 872.18 164.04 871.54 177.03 C 869.86 222.91 865.73 268.74 858.10 314.03 C 856.48 320.58 857.28 327.36 857.10 334.04 C 857.22 351.59 854.70 369.21 849.10 385.87 C 839.42 415.08 820.20 441.43 794.07 457.96 C 773.17 471.34 747.75 477.53 723.04 475.05 C 703.65 473.20 684.92 465.93 668.97 454.81 C 665.06 452.16 660.84 449.26 659.36 444.52 C 656.41 437.02 660.61 427.77 668.20 425.10 C 673.32 423.02 679.41 424.09 683.66 427.58 C 696.94 437.71 713.22 444.03 729.97 444.75 C 748.26 445.78 766.65 439.95 781.52 429.36 C 798.33 417.51 810.84 400.16 818.26 381.09 C 824.49 365.22 826.99 348.05 826.60 331.05 C 827.05 310.80 822.67 290.62 815.02 271.92 C 785.78 255.31 752.13 248.37 718.90 245.82 C 711.89 245.54 705.68 239.81 704.68 232.89 C 703.29 225.74 708.08 218.28 714.93 216.10 C 719.12 214.55 723.59 215.65 727.90 215.89 C 765.62 219.27 803.48 228.75 836.01 248.70 C 839.14 217.12 841.17 185.43 841.60 153.70 C 800.48 150.40 760.22 139.62 718.89 138.56 C 713.23 138.27 707.89 134.65 705.60 129.47 Z" />
	<path d=" M 169.73 138.87 C 192.87 123.56 222.02 121.02 248.90 124.64 C 254.60 126.13 259.17 131.14 260.03 136.98 C 261.34 143.80 257.10 151.09 250.64 153.53 C 246.31 155.46 241.53 154.33 237.01 154.11 C 221.33 153.06 204.77 154.07 190.75 161.82 C 185.79 164.27 181.81 169.02 175.98 169.37 C 171.00 169.44 165.84 169.25 161.12 171.14 C 152.37 174.37 146.15 182.23 142.78 190.69 C 136.12 207.55 138.12 226.13 140.25 243.67 C 141.90 239.36 142.78 234.51 145.94 230.96 C 148.05 228.62 150.91 226.98 154.01 226.36 C 190.42 221.21 227.35 224.94 263.44 230.80 C 269.73 232.07 274.71 237.72 275.44 244.05 C 276.37 251.18 271.55 258.54 264.61 260.45 C 260.12 261.84 255.48 260.38 250.98 259.87 C 223.77 255.72 196.11 253.06 168.60 255.50 C 161.77 275.53 155.93 296.08 153.78 317.19 C 152.60 335.24 153.04 353.69 158.31 371.12 C 165.40 395.49 180.54 418.00 202.14 431.72 C 216.28 440.79 233.23 445.61 250.05 444.65 C 266.87 443.90 283.17 437.45 296.51 427.29 C 300.76 423.88 306.81 422.96 311.85 425.06 C 316.85 426.98 320.65 431.74 321.29 437.08 C 322.10 442.42 319.80 448.09 315.51 451.37 C 300.25 463.19 282.05 471.31 262.93 474.20 C 242.38 477.36 220.96 474.62 201.88 466.33 C 177.27 455.78 156.93 436.49 143.44 413.52 C 128.54 388.45 121.98 358.98 122.80 329.95 C 122.64 325.68 123.22 321.34 122.32 317.12 C 117.01 292.57 112.42 267.85 109.43 242.90 C 107.61 227.02 106.60 210.77 109.90 195.01 C 113.37 177.78 121.82 160.89 136.11 150.17 C 145.69 142.79 157.72 139.18 169.73 138.87 Z" />
	<path d=" M 815.11 456.02 C 824.20 453.48 834.59 457.21 839.92 465.02 C 845.11 472.84 850.23 480.71 855.43 488.52 C 874.31 492.35 893.13 496.44 912.00 500.32 C 923.65 502.60 934.60 507.89 944.06 515.02 C 966.01 531.89 979.19 559.14 980.00 586.70 L 980.00 608.65 C 979.73 616.60 976.64 624.39 971.38 630.36 C 963.90 639.05 952.45 643.91 941.04 643.86 C 918.35 643.87 895.67 643.86 872.99 643.87 C 865.30 644.05 858.31 637.62 857.67 630.00 C 856.71 621.73 863.68 613.57 872.03 613.36 C 894.69 613.29 917.35 613.36 940.01 613.33 C 943.48 613.38 947.79 612.43 949.31 608.89 C 949.76 602.63 949.36 596.33 949.50 590.05 C 949.75 575.40 944.84 560.68 935.71 549.20 C 928.20 539.68 917.45 532.56 905.49 530.19 C 888.00 526.57 870.54 522.84 853.06 519.19 C 843.42 532.87 833.98 546.69 824.40 560.41 C 821.99 563.93 818.17 566.52 813.91 567.11 C 807.60 568.10 800.78 564.76 797.98 558.96 C 795.39 554.02 795.89 547.73 799.09 543.18 C 808.58 529.38 818.11 515.60 827.60 501.80 C 824.78 497.54 821.95 493.29 819.13 489.04 C 799.57 503.57 780.06 518.18 760.54 532.77 C 756.38 536.31 750.42 537.68 745.23 535.76 C 737.38 533.29 732.83 523.84 735.89 516.17 C 737.36 511.33 741.79 508.55 745.64 505.73 C 764.57 491.59 783.52 477.47 802.44 463.31 C 806.32 460.36 810.24 457.15 815.11 456.02 Z" />
	<path d=" M 139.71 465.63 C 144.97 457.64 155.51 453.67 164.73 456.21 C 170.84 457.63 175.40 462.16 180.37 465.67 C 199.45 479.87 218.48 494.13 237.55 508.35 C 242.13 511.29 245.21 516.55 244.91 522.07 C 244.87 530.29 237.20 537.41 228.99 536.81 C 223.49 536.82 219.35 532.92 215.22 529.85 C 197.08 516.31 178.96 502.73 160.81 489.20 C 157.97 493.46 155.13 497.73 152.31 502.00 C 161.84 515.68 171.39 529.35 180.91 543.03 C 184.26 547.68 184.72 554.19 181.97 559.23 C 178.84 565.42 171.12 568.63 164.49 566.76 C 160.57 565.76 157.34 563.03 155.18 559.68 C 145.79 546.17 136.49 532.60 127.01 519.16 C 112.35 522.45 97.61 525.30 82.93 528.48 C 76.75 529.82 70.36 530.64 64.60 533.40 C 48.77 540.41 37.43 555.45 32.92 571.94 C 29.54 583.32 30.85 595.30 30.61 606.98 C 30.34 611.31 35.38 613.29 38.99 613.29 C 61.95 613.41 84.91 613.27 107.87 613.36 C 116.59 613.50 123.80 622.35 122.32 630.93 C 121.32 638.25 114.48 644.20 107.06 643.99 C 84.38 644.01 61.70 644.01 39.02 643.98 C 27.11 644.02 15.15 638.69 7.68 629.33 C 2.95 623.50 0.22 616.12 0.00 608.61 L 0.00 586.48 C 0.76 562.70 10.70 539.31 27.47 522.41 C 38.93 510.99 53.76 502.61 69.82 499.95 C 88.05 496.16 106.32 492.51 124.55 488.67 C 129.58 480.97 134.66 473.31 139.71 465.63 Z" />
	<path d=" M 597.91 494.86 C 603.18 490.40 610.11 487.86 617.03 488.25 C 625.28 488.65 633.24 493.12 637.84 499.99 C 645.81 512.10 653.83 524.18 661.80 536.30 C 692.02 542.58 722.24 548.93 752.45 555.29 C 782.00 562.78 807.39 583.22 822.97 609.19 C 833.02 625.79 839.35 644.63 841.34 663.93 C 842.32 673.24 841.91 682.62 842.00 691.97 C 841.85 701.37 842.88 711.14 839.31 720.08 C 833.86 734.93 820.23 745.93 805.01 749.57 C 796.20 751.86 787.03 751.20 778.03 751.27 C 581.69 751.31 385.35 751.24 189.02 751.30 C 176.97 751.23 164.80 747.49 155.35 739.90 C 147.19 733.44 141.12 724.23 139.02 713.99 C 137.64 707.42 138.23 700.66 138.10 694.00 C 138.22 682.68 137.61 671.30 139.21 660.06 C 143.64 626.85 161.02 595.17 187.81 574.82 C 197.95 567.12 209.38 561.14 221.49 557.22 C 227.79 555.13 234.38 554.22 240.83 552.76 C 266.55 547.26 292.34 542.10 318.02 536.48 C 326.76 524.04 334.77 511.01 343.41 498.47 C 352.19 486.92 370.50 485.10 381.47 494.56 C 417.73 525.58 453.82 556.79 490.00 587.89 C 525.98 556.90 561.93 525.86 597.91 494.86 M 365.11 520.80 C 358.77 530.40 352.43 540.00 346.11 549.61 C 371.48 584.46 396.82 619.34 422.21 654.18 C 437.31 639.09 452.40 624.00 467.49 608.90 C 433.38 579.52 399.24 550.16 365.11 520.80 M 512.52 608.87 C 527.58 623.99 542.70 639.05 557.77 654.16 C 583.23 619.38 608.48 584.45 633.90 549.63 C 627.62 540.02 621.26 530.46 614.95 520.86 C 580.72 550.09 546.69 579.57 512.52 608.87 M 233.95 585.34 C 217.97 589.73 203.60 599.29 192.84 611.83 C 180.34 626.52 172.24 644.86 169.60 663.96 C 168.11 675.24 168.90 686.65 168.70 697.99 C 168.88 702.54 167.89 707.57 170.55 711.63 C 174.42 717.67 181.90 720.61 188.88 720.52 C 273.48 720.55 358.08 720.52 442.68 720.54 C 445.72 705.36 448.77 690.19 451.78 675.02 C 450.86 673.59 449.96 672.16 449.08 670.73 C 442.82 676.87 436.76 683.22 430.40 689.26 C 424.09 695.16 413.04 694.02 408.11 686.91 C 379.05 646.99 350.04 607.03 321.00 567.10 C 292.00 573.24 262.95 579.20 233.95 585.34 M 574.88 682.99 C 572.55 686.19 570.33 689.79 566.60 691.53 C 560.78 694.57 553.20 693.05 548.69 688.39 C 542.80 682.50 536.93 676.59 531.02 670.73 C 530.13 672.16 529.23 673.59 528.32 675.01 C 531.32 690.19 534.37 705.36 537.41 720.53 C 622.29 720.51 707.17 720.58 792.05 720.50 C 800.53 720.49 810.44 715.16 811.28 705.92 C 811.56 696.63 811.32 687.32 811.40 678.02 C 811.56 654.00 802.77 630.06 787.19 611.81 C 774.89 597.52 757.86 586.96 739.15 583.83 C 712.48 578.22 685.79 572.63 659.10 567.11 C 631.03 605.74 602.95 644.36 574.88 682.99 M 474.70 645.03 C 474.82 648.68 474.15 652.62 475.90 656.01 C 476.76 657.53 478.09 659.32 480.05 659.28 C 486.68 659.37 493.32 659.37 499.95 659.28 C 501.63 659.33 502.86 657.89 503.71 656.62 C 505.92 653.15 505.18 648.87 505.30 644.99 C 500.20 639.89 495.12 634.79 490.01 629.71 C 484.90 634.81 479.79 639.90 474.70 645.03 M 480.00 690.00 C 477.95 700.18 475.81 710.35 473.83 720.55 C 484.60 720.43 495.37 720.70 506.14 720.42 C 503.99 710.30 502.06 700.14 500.00 690.00 C 493.33 689.99 486.67 690.00 480.00 690.00 Z" />
</svg>
