<svg viewBox="0 0 1300 1150" xmlns="http://www.w3.org/2000/svg">
	<path d=" M 298.41 0.00 L 401.60 0.00 C 415.58 0.48 429.23 7.00 438.18 17.79 C 445.80 26.68 449.90 38.32 450.03 49.99 C 467.02 50.03 484.01 49.95 501.01 50.04 C 540.60 50.07 579.96 64.36 610.47 89.57 C 626.14 102.41 639.53 117.98 650.00 135.31 C 666.04 108.70 689.08 86.25 716.41 71.40 C 742.46 57.03 772.28 49.64 802.03 50.01 C 910.35 50.00 1018.68 49.98 1127.01 50.02 C 1152.18 49.74 1176.77 63.78 1189.59 85.40 C 1196.21 96.39 1199.83 109.15 1199.98 121.97 C 1200.04 131.31 1199.97 140.65 1200.00 149.99 C 1211.36 150.21 1222.76 149.51 1234.08 150.53 C 1254.84 152.97 1274.25 164.61 1286.21 181.74 C 1294.39 193.07 1298.90 206.76 1300.00 220.63 L 1300.00 1028.51 C 1299.07 1045.09 1292.72 1061.35 1281.77 1073.89 C 1268.25 1089.71 1247.90 1099.52 1227.06 1099.96 C 1076.39 1100.05 925.71 1099.97 775.03 1100.01 C 774.95 1115.48 767.42 1130.74 754.93 1139.93 C 746.81 1146.06 736.80 1149.59 726.64 1150.00 L 573.30 1150.00 C 561.96 1149.55 550.86 1145.16 542.30 1137.72 C 531.42 1128.42 525.04 1114.30 524.96 1100.01 C 374.97 1099.99 224.98 1100.01 74.98 1100.00 C 58.18 1100.08 41.52 1094.13 28.40 1083.68 C 11.59 1070.50 1.07 1049.90 0.00 1028.58 L 0.00 220.67 C 0.88 210.40 3.36 200.21 8.13 191.04 C 17.34 172.82 34.27 158.63 53.93 153.02 C 68.85 148.38 84.64 150.48 99.99 149.99 C 100.55 134.24 98.29 118.06 102.85 102.70 C 107.31 87.06 117.24 73.08 130.50 63.66 C 142.77 54.80 157.87 49.95 173.01 50.02 C 198.66 49.97 224.31 50.02 249.97 49.99 C 250.08 38.32 254.18 26.68 261.80 17.79 C 270.75 6.98 284.42 0.48 298.41 0.00 M 150.01 122.93 C 149.99 365.29 150.00 607.64 150.01 850.00 C 264.67 850.00 379.34 850.00 494.00 850.00 C 505.03 850.02 516.14 850.20 527.04 852.12 C 564.02 857.74 598.96 875.83 624.99 902.68 C 625.01 677.44 624.99 452.21 625.00 226.98 C 625.10 213.78 623.32 200.55 619.38 187.95 C 610.67 159.79 591.64 134.98 566.67 119.32 C 546.89 106.76 523.51 99.98 500.08 100.03 C 483.39 99.96 466.70 100.01 450.00 100.01 C 449.99 149.68 450.01 199.34 449.99 249.01 C 450.11 259.56 446.97 270.17 440.78 278.75 C 431.70 291.86 415.99 300.03 400.04 299.99 C 367.02 300.01 334.01 299.99 300.99 300.00 C 293.34 300.06 285.62 298.54 278.75 295.15 C 261.54 287.33 249.88 268.99 250.02 250.09 C 249.97 200.06 250.02 150.03 250.00 100.01 C 223.99 100.03 197.99 99.94 171.99 100.05 C 160.08 100.17 149.70 111.04 150.01 122.93 M 717.90 130.80 C 694.40 151.15 678.93 180.57 675.74 211.52 C 674.51 223.32 675.17 235.20 675.00 247.03 C 674.99 465.63 675.03 684.22 674.98 902.82 C 705.29 871.16 748.19 851.98 791.96 850.21 C 803.63 849.85 815.30 850.05 826.97 850.00 C 934.64 850.00 1042.32 850.01 1150.00 850.00 C 1150.00 607.67 1150.01 365.34 1149.99 123.02 C 1150.34 110.75 1139.34 99.65 1127.06 100.02 C 1018.37 99.99 909.69 99.99 801.00 100.02 C 770.77 99.68 740.61 110.84 717.90 130.80 M 50.01 225.01 C 49.99 491.70 49.99 758.39 50.01 1025.08 C 49.75 1038.04 61.07 1049.80 74.04 1049.97 C 241.03 1050.04 408.01 1049.98 575.00 1050.00 C 575.01 1066.67 574.99 1083.33 575.00 1100.00 C 625.00 1100.00 675.00 1100.00 725.00 1100.00 C 725.01 1083.33 724.99 1066.67 725.00 1050.00 C 891.67 1049.99 1058.34 1050.00 1225.00 1050.00 C 1238.33 1050.33 1250.26 1038.37 1249.98 1025.05 C 1250.03 759.36 1249.98 493.67 1250.01 227.98 C 1250.13 223.36 1249.70 218.61 1247.64 214.42 C 1243.84 206.11 1235.16 200.28 1226.02 200.05 C 1217.34 199.94 1208.67 200.02 1200.00 200.01 C 1199.99 449.66 1200.01 699.32 1199.99 948.98 C 1200.12 959.53 1196.97 970.15 1190.79 978.74 C 1181.69 991.87 1165.94 1000.06 1149.97 999.99 C 1016.63 1000.02 883.29 999.96 749.95 1000.02 C 727.67 999.82 705.68 1010.39 691.77 1027.77 C 680.96 1040.97 674.98 1057.94 674.98 1074.99 C 658.33 1075.00 641.67 1075.00 625.02 1074.99 C 625.14 1050.50 612.36 1026.46 591.98 1012.87 C 579.46 1004.30 564.22 999.79 549.05 1000.01 C 416.02 999.98 283.00 1000.02 149.98 999.99 C 129.96 1000.18 110.70 987.03 103.54 968.35 C 99.71 959.41 99.87 949.55 100.00 940.02 C 100.00 693.35 100.00 446.68 100.00 200.01 C 90.98 200.06 81.96 199.87 72.95 200.10 C 60.36 200.81 49.70 212.39 50.01 225.01 M 150.01 900.00 C 150.00 916.67 150.00 933.33 150.01 950.00 C 277.99 950.00 405.98 950.00 533.97 950.00 C 546.31 950.04 558.78 949.57 570.96 951.97 C 584.32 954.23 597.05 959.24 609.05 965.43 C 603.06 954.16 595.14 943.92 586.01 935.01 C 563.33 912.81 531.87 899.80 500.09 900.03 C 383.39 899.96 266.70 900.01 150.01 900.00 M 690.89 965.56 C 707.50 956.54 726.06 950.91 744.99 950.19 C 754.30 949.83 763.62 950.06 772.94 950.00 C 898.63 950.00 1024.31 950.01 1150.00 950.00 C 1150.00 933.33 1150.00 916.67 1150.00 900.00 C 1032.67 900.03 915.35 899.93 798.02 900.06 C 753.87 900.18 711.39 926.62 690.89 965.56 Z" />
</svg>
