<svg viewBox="0 0 800 600" xmlns="http://www.w3.org/2000/svg">
	<path d=" M 395.35 0.00 L 403.58 0.00 C 433.16 0.77 462.62 8.76 488.15 23.81 C 511.27 37.14 530.83 56.16 545.78 78.19 C 583.86 69.90 624.95 78.23 657.35 99.71 C 682.43 116.20 702.39 140.35 713.77 168.12 C 720.56 184.58 724.29 202.25 724.92 220.03 C 754.84 237.34 778.59 265.13 790.52 297.62 C 796.50 313.51 799.54 330.41 800.00 347.36 L 800.00 352.71 C 799.41 385.94 787.45 418.82 766.36 444.52 C 743.92 472.24 711.35 491.61 676.17 497.68 C 659.30 500.86 642.07 499.83 625.01 500.00 C 616.65 483.34 608.34 466.67 600.01 450.01 C 616.67 449.98 633.34 450.02 650.01 449.99 C 659.11 449.98 668.22 448.74 676.97 446.21 C 710.00 437.23 737.23 410.00 746.22 376.97 C 752.53 355.12 750.77 331.14 741.75 310.30 C 734.15 292.64 721.30 277.29 705.24 266.72 C 695.18 259.88 683.64 255.82 672.58 250.94 C 673.05 245.30 673.50 239.65 674.00 234.00 C 676.66 217.25 673.04 200.04 666.40 184.62 C 658.54 166.82 645.35 151.45 628.98 140.94 C 609.88 128.67 586.48 122.85 563.89 125.80 C 549.13 127.66 535.42 133.70 521.41 138.31 C 515.61 127.29 510.59 115.81 503.65 105.42 C 488.79 83.02 466.47 65.69 441.05 56.93 C 416.69 48.53 389.65 47.64 364.95 55.17 C 345.45 60.99 327.41 71.61 312.89 85.87 C 294.21 104.09 281.26 128.24 276.97 154.02 C 275.94 160.41 274.97 166.82 274.14 173.24 C 265.08 175.83 255.65 177.14 246.91 180.76 C 230.54 187.37 216.70 199.98 208.55 215.63 C 201.58 228.77 200.07 243.81 196.55 258.06 C 181.39 255.27 166.53 250.17 150.98 250.03 C 128.75 249.74 106.52 257.29 88.98 270.92 C 71.48 284.37 58.62 303.77 53.22 325.18 C 47.26 347.42 49.71 371.69 59.57 392.46 C 68.92 412.50 85.19 429.21 104.94 439.17 C 118.85 446.21 134.41 450.02 150.01 449.99 C 175.00 450.02 200.00 449.98 224.99 450.01 C 216.66 466.67 208.34 483.34 199.99 500.00 C 182.64 499.97 165.29 500.06 147.95 499.95 C 120.09 499.63 92.37 491.33 68.99 476.16 C 40.15 457.67 17.94 429.06 7.38 396.45 C 2.99 383.24 0.81 369.41 0.00 355.54 L 0.00 347.26 C 0.46 328.75 4.12 310.28 11.20 293.15 C 23.55 262.85 46.10 236.83 74.36 220.34 C 100.11 205.13 130.57 198.14 160.38 200.43 C 173.25 171.23 197.44 147.11 227.00 134.94 C 228.42 134.25 230.49 133.86 230.61 131.93 C 241.44 88.65 269.87 50.31 307.67 26.74 C 333.83 10.21 364.43 0.98 395.35 0.00 Z" />
	<path d=" M 412.57 312.63 C 423.59 290.94 436.38 270.18 450.00 250.03 C 461.55 267.07 472.43 284.59 482.24 302.70 C 489.39 316.13 496.47 329.95 499.53 344.97 C 501.72 361.34 494.38 378.38 481.60 388.70 C 471.22 397.31 457.22 401.29 443.86 399.57 C 431.71 398.16 420.24 391.99 412.26 382.74 C 403.53 372.75 398.91 359.09 400.34 345.85 C 402.38 334.14 407.43 323.25 412.57 312.63 Z" />
	<path d=" M 300.25 414.24 C 308.10 400.91 316.31 387.80 325.00 375.00 C 337.26 393.11 348.73 411.76 359.07 431.03 C 365.54 443.73 372.11 456.72 374.67 470.87 C 376.41 486.98 369.16 503.55 356.62 513.69 C 345.96 522.53 331.49 526.48 317.81 524.44 C 302.48 522.37 288.52 512.57 281.16 499.00 C 275.48 488.48 273.17 475.67 276.84 464.11 C 281.99 446.37 291.28 430.25 300.25 414.24 Z" />
	<path d=" M 492.38 503.37 C 502.31 485.03 513.30 467.28 525.00 450.03 C 534.24 463.62 542.97 477.56 551.20 491.79 C 560.38 508.38 570.05 525.16 574.31 543.81 C 576.79 558.36 571.36 573.73 561.29 584.35 C 552.59 593.68 540.23 599.19 527.55 600.00 L 522.46 600.00 C 509.77 599.20 497.40 593.67 488.70 584.33 C 478.90 574.02 473.59 559.28 475.46 545.10 C 478.41 530.27 485.39 516.64 492.38 503.37 Z" />
</svg>
