<svg viewBox="0 0 1200 1200" xmlns="http://www.w3.org/2000/svg">
	<path d=" M 591.28 0.00 L 609.61 0.00 C 650.23 1.60 691.39 7.08 729.12 22.92 C 764.17 37.48 796.03 60.71 818.53 91.48 C 842.81 124.52 856.46 164.47 861.55 204.93 C 864.59 227.18 863.88 249.67 864.03 272.07 C 864.04 298.38 864.06 324.69 863.96 351.00 C 863.62 355.08 866.84 358.07 868.53 361.47 C 896.17 409.22 885.09 475.39 843.81 511.87 C 841.41 513.92 841.07 517.25 840.03 520.05 C 828.64 554.52 813.12 587.74 792.87 617.92 C 788.33 624.94 783.10 631.49 778.35 638.35 C 777.78 642.52 778.26 646.76 778.13 650.97 C 778.29 664.01 777.36 677.20 780.05 690.06 C 785.06 716.33 800.92 740.22 822.97 755.30 C 838.54 766.05 857.14 772.36 876.05 773.25 C 904.36 773.97 932.69 774.08 961.00 774.84 C 976.79 779.00 991.58 786.39 1006.03 793.90 C 1039.29 811.81 1069.52 835.09 1096.29 861.69 C 1136.59 901.71 1168.86 949.36 1193.67 1000.34 C 1197.50 1006.80 1197.98 1014.44 1200.00 1021.53 L 1200.00 1097.52 C 1198.81 1115.35 1193.67 1132.99 1184.24 1148.22 C 1174.28 1164.56 1159.90 1178.17 1143.03 1187.20 C 1129.05 1194.84 1113.33 1198.87 1097.50 1200.00 L 101.77 1200.00 C 80.34 1198.41 59.27 1190.96 42.27 1177.72 C 16.87 1158.48 0.95 1127.55 0.00 1095.70 L 0.00 1089.42 C 1.40 1062.24 2.35 1035.04 3.55 1007.86 C 3.58 1006.88 3.75 1005.94 4.06 1005.05 C 36.63 936.36 83.05 873.27 143.56 826.68 C 170.50 806.09 199.95 788.36 231.93 776.82 C 239.55 773.86 247.84 773.25 255.95 773.41 C 272.97 773.43 289.99 773.41 307.01 773.42 C 315.62 773.39 324.28 773.69 332.82 772.43 C 346.53 770.56 359.84 765.85 371.69 758.71 C 397.38 743.42 415.83 716.50 420.50 686.93 C 422.84 672.41 421.51 657.66 421.90 643.03 C 421.71 640.48 422.56 637.47 420.73 635.36 C 393.00 599.55 371.37 558.86 358.38 515.42 C 357.81 513.02 355.85 511.43 354.17 509.80 C 328.00 484.52 313.91 447.37 316.68 411.09 C 318.10 391.27 324.53 371.84 335.21 355.08 C 336.63 353.00 336.07 350.37 336.17 348.02 C 335.88 314.67 335.82 281.32 336.07 247.97 C 335.56 196.92 346.93 144.44 375.62 101.59 C 407.44 53.51 459.99 21.32 515.86 9.23 C 540.60 3.55 565.93 0.77 591.28 0.00 M 523.48 84.57 C 492.73 92.79 463.78 109.84 443.90 134.99 C 425.28 158.66 415.85 188.32 412.47 217.94 C 410.69 231.90 411.12 246.00 410.97 260.04 C 410.81 291.36 411.03 322.68 410.94 354.01 C 410.82 358.98 411.67 363.98 410.79 368.92 C 409.30 378.25 404.52 386.61 399.26 394.29 C 392.14 406.22 390.16 421.05 393.59 434.49 C 396.03 444.01 401.37 453.02 409.43 458.83 C 416.91 464.44 422.15 472.53 425.76 481.05 C 428.57 487.51 430.22 494.38 432.55 501.01 C 441.70 527.97 454.59 553.67 470.91 577.00 C 478.85 588.58 487.91 599.31 496.88 610.08 C 496.88 620.72 496.88 631.36 496.88 641.99 C 496.73 662.51 497.86 683.24 493.73 703.47 C 486.38 742.90 465.04 779.46 434.55 805.48 C 404.27 831.62 364.94 847.05 324.94 848.27 C 301.44 848.68 277.93 848.19 254.44 848.53 C 240.54 853.29 227.53 860.40 214.98 867.98 C 184.29 886.94 157.27 911.48 134.08 939.03 C 110.91 966.57 91.54 997.19 75.54 1029.40 C 74.80 1030.82 75.03 1032.46 74.97 1034.02 C 75.04 1051.02 74.98 1068.03 75.00 1085.03 C 75.03 1090.31 74.66 1095.72 76.17 1100.86 C 78.93 1111.11 87.00 1119.73 97.05 1123.15 C 103.44 1125.57 110.35 1124.90 117.02 1124.98 C 442.03 1124.98 767.04 1124.99 1092.05 1124.98 C 1101.87 1125.07 1111.57 1120.43 1117.70 1112.75 C 1122.67 1106.68 1125.23 1098.78 1125.01 1090.95 C 1124.94 1070.91 1125.11 1050.87 1124.92 1030.84 C 1119.63 1018.95 1112.98 1007.65 1106.46 996.38 C 1085.31 960.90 1059.43 928.03 1028.49 900.57 C 1004.68 879.55 978.01 861.31 948.44 849.45 C 945.49 847.99 942.16 848.45 939.01 848.42 C 929.33 848.43 919.66 848.42 909.98 848.42 C 888.99 848.27 867.75 849.45 847.06 845.09 C 800.43 836.19 758.14 807.50 732.25 767.76 C 713.62 739.52 703.40 705.85 703.16 672.02 C 703.08 651.78 703.11 631.54 703.15 611.31 C 712.27 600.59 721.33 589.79 729.22 578.11 C 748.02 550.62 762.13 520.02 771.72 488.16 C 773.74 476.46 781.46 466.78 790.25 459.22 C 806.09 445.87 813.00 422.26 805.29 402.78 C 802.95 396.55 798.28 391.63 795.32 385.73 C 791.02 377.89 788.61 368.95 788.99 359.98 C 789.04 321.64 789.10 283.30 788.92 244.96 C 788.97 234.29 788.39 223.60 787.00 213.02 C 782.96 182.17 772.21 151.24 751.38 127.62 C 729.42 102.91 698.11 88.31 666.14 81.68 C 619.18 72.15 569.94 72.39 523.48 84.57 Z" />
</svg>
