<svg viewBox="0 0 48 46" xmlns="http://www.w3.org/2000/svg">
	<path d=" M 0.00 12.48 C 7.67 7.74 16.01 4.14 24.03 0.01 C 32.06 4.00 40.13 7.92 48.00 12.22 L 48.00 45.46 C 45.08 46.12 42.05 45.98 39.11 45.52 C 39.07 36.26 39.09 27.01 39.09 17.75 C 29.08 17.73 19.06 17.74 9.05 17.75 C 8.90 27.02 9.13 36.29 8.88 45.56 C 5.94 45.98 2.93 46.06 0.00 45.51 L 0.00 12.48 M 3.41 14.25 C 3.45 23.71 3.40 33.17 3.43 42.63 L 5.55 42.40 C 5.76 33.55 5.44 24.69 5.68 15.84 C 5.46 13.98 7.86 14.40 8.97 14.29 C 18.98 14.30 28.99 14.31 39.00 14.29 C 40.18 14.38 42.63 13.98 42.41 15.92 C 42.58 24.84 42.40 33.76 42.48 42.68 C 43.03 42.57 44.12 42.35 44.67 42.24 C 44.66 32.90 44.66 23.57 44.65 14.23 C 37.79 10.72 30.88 7.29 24.03 3.75 C 17.19 7.31 10.26 10.71 3.41 14.25 Z" />
	<path d=" M 22.82 20.69 C 27.31 20.22 31.85 20.34 36.35 20.63 C 36.41 28.87 36.53 37.12 36.29 45.36 C 28.12 45.58 19.93 45.60 11.76 45.35 C 11.62 40.83 11.59 36.31 11.79 31.79 C 15.47 31.63 19.15 31.70 22.83 31.68 C 22.81 28.02 22.80 24.35 22.82 20.69 M 26.99 22.80 C 27.83 23.76 28.68 24.69 29.54 25.62 C 30.41 24.70 31.27 23.77 32.12 22.82 C 30.41 22.80 28.70 22.79 26.99 22.80 M 25.31 24.52 C 25.26 26.32 25.22 28.11 25.18 29.91 C 26.11 29.08 27.03 28.26 27.95 27.43 C 27.09 26.44 26.21 25.48 25.31 24.52 M 31.17 27.21 C 32.12 28.13 33.09 29.03 34.08 29.92 C 34.07 28.20 34.07 26.49 34.06 24.78 C 33.09 25.58 32.12 26.39 31.17 27.21 M 29.60 28.99 C 28.72 29.88 27.85 30.79 26.99 31.70 C 28.76 31.70 30.52 31.68 32.29 31.65 C 31.40 30.75 30.51 29.86 29.60 28.99 M 15.88 34.19 C 16.70 35.10 17.53 36.00 18.36 36.90 C 19.28 36.01 20.18 35.12 21.07 34.20 C 19.34 34.18 17.61 34.18 15.88 34.19 M 26.96 34.20 C 27.77 35.05 28.57 35.90 29.45 36.68 C 30.63 36.24 31.38 35.06 32.32 34.28 C 30.54 34.21 28.75 34.18 26.96 34.20 M 14.09 35.95 C 14.09 37.70 14.10 39.44 14.12 41.19 C 15.02 40.36 15.92 39.52 16.82 38.69 C 15.92 37.77 15.01 36.86 14.09 35.95 M 20.08 38.52 C 20.97 39.45 21.88 40.34 22.81 41.23 C 22.83 39.48 22.85 37.74 22.86 35.99 C 21.93 36.83 21.01 37.67 20.08 38.52 M 25.21 35.96 C 25.22 37.74 25.25 39.52 25.30 41.30 C 26.20 40.40 27.09 39.49 27.97 38.57 C 27.05 37.69 26.13 36.82 25.21 35.96 M 31.20 38.53 C 32.10 39.41 33.03 40.26 34.08 40.95 C 34.08 39.33 34.08 37.70 34.08 36.07 C 33.10 36.87 32.14 37.69 31.20 38.53 M 18.37 40.19 C 17.60 41.16 16.82 42.13 16.06 43.10 C 17.68 43.11 19.30 43.10 20.92 43.07 C 20.09 42.10 19.23 41.14 18.37 40.19 M 27.10 43.08 C 28.73 43.10 30.35 43.10 31.98 43.09 C 31.23 42.11 30.46 41.15 29.69 40.18 C 28.81 41.13 27.94 42.10 27.10 43.08 Z" />
</svg>
