<svg viewBox="0 0 90 89" xmlns="http://www.w3.org/2000/svg">
<path d=" M 12.49 14.49 C 22.57 3.56 38.42 -1.92 53.06 1.02 C 64.84 3.02 75.25 10.23 82.24 19.78 C 82.87 16.17 83.19 12.50 83.97 8.92 C 84.77 8.92 86.39 8.92 87.19 8.92 C 87.16 15.30 86.18 21.69 84.82 27.91 C 79.90 27.40 74.91 27.03 70.08 25.91 C 68.30 25.77 68.28 22.54 70.17 22.54 C 73.40 22.61 76.60 23.21 79.83 23.38 C 73.93 13.87 64.06 6.76 52.97 4.85 C 43.62 3.04 33.60 4.50 25.30 9.23 C 13.19 15.93 4.77 29.16 4.50 43.08 C 3.92 54.77 9.03 66.46 17.69 74.26 C 26.50 82.51 39.15 86.31 51.05 84.46 C 66.10 82.51 79.32 71.20 83.89 56.78 C 85.51 52.42 85.49 47.73 86.27 43.21 C 87.64 42.21 88.76 42.47 89.62 43.98 C 89.82 53.33 86.82 62.69 81.31 70.24 C 74.01 80.34 62.34 87.23 49.90 88.44 C 38.28 89.75 26.20 86.24 17.14 78.83 C 7.00 70.75 0.54 58.01 0.69 44.97 C 0.36 33.77 4.82 22.61 12.49 14.49 Z" />
<path d=" M 43.15 17.97 C 42.97 16.62 44.13 15.71 44.78 14.68 C 45.35 15.05 46.49 15.77 47.06 16.13 C 47.13 23.53 47.06 30.92 47.10 38.31 C 48.75 39.49 50.15 40.96 51.41 42.54 C 57.60 42.64 63.80 42.47 70.00 42.60 C 71.49 42.37 72.21 43.98 73.24 44.74 C 71.97 45.64 70.68 46.70 69.01 46.44 C 63.13 46.48 57.26 46.39 51.38 46.45 C 49.65 49.61 46.34 51.15 42.78 50.43 C 37.05 56.90 32.02 63.99 25.99 70.19 C 25.13 69.10 22.87 68.05 24.59 66.61 C 29.49 60.27 34.78 54.23 39.84 48.02 C 37.76 44.40 39.59 40.22 43.09 38.35 C 43.23 31.56 43.06 24.76 43.15 17.97 Z" />
</svg>
