<svg viewBox="0 0 684 831" xmlns="http://www.w3.org/2000/svg">
	<path fill="#3a3a3c" d=" M 271.89 11.93 C 296.94 3.49 323.80 0.79 350.07 3.46 C 387.88 7.14 424.29 23.11 452.92 48.04 C 472.56 64.94 488.56 86.09 499.65 109.51 C 500.09 110.52 500.78 111.32 501.74 111.91 C 501.56 112.33 501.22 113.18 501.05 113.61 L 502.41 113.24 C 502.67 114.95 503.13 116.62 503.60 118.29 L 504.43 118.40 C 504.69 120.10 505.13 121.78 505.62 123.44 L 506.49 123.31 C 508.14 131.54 511.44 139.38 513.28 147.60 C 515.14 159.00 516.83 170.47 517.39 182.02 C 518.27 199.53 514.43 216.84 509.65 233.58 C 497.90 272.50 480.66 309.48 462.49 345.77 C 453.81 363.12 444.95 380.40 435.27 397.23 C 426.57 411.31 418.74 425.91 410.37 440.19 C 389.79 476.22 367.71 511.36 345.21 546.21 C 340.93 553.12 336.01 559.64 332.10 566.77 C 330.98 566.76 329.90 566.52 328.87 566.10 C 328.03 563.78 326.57 561.79 325.21 559.77 C 293.25 510.89 262.51 461.19 233.77 410.34 C 225.60 395.40 216.75 380.84 209.30 365.52 C 194.27 337.09 180.14 308.15 167.86 278.42 C 157.67 253.17 148.14 227.26 144.80 200.08 C 143.28 179.34 145.45 158.30 151.19 138.31 C 152.57 132.26 155.19 126.61 156.77 120.63 C 168.76 92.01 187.13 65.83 211.10 45.98 C 228.18 31.62 247.90 20.46 268.88 12.90 C 269.88 12.58 270.88 12.25 271.89 11.93 M 256.72 102.61 C 242.70 119.38 234.20 141.08 234.29 163.01 C 233.37 189.45 244.49 216.08 263.79 234.14 C 279.18 249.58 300.29 258.97 321.93 260.93 C 327.47 261.65 333.12 261.80 338.65 260.91 C 375.84 258.63 410.05 232.11 421.91 196.85 C 423.70 192.76 424.46 188.34 425.55 184.04 C 432.92 150.43 420.05 113.38 393.67 91.36 C 379.31 78.77 361.00 71.02 342.11 68.60 C 335.40 68.13 328.65 68.24 321.93 68.42 C 296.83 70.66 272.84 83.23 256.72 102.61 Z" />
	<path fill="#3a3a3c" d=" M 401.22 533.29 C 428.34 490.28 454.97 446.86 478.25 401.63 C 478.68 401.66 479.55 401.73 479.98 401.76 C 505.93 413.82 531.96 425.69 557.82 437.93 C 564.20 441.11 571.41 443.19 576.53 448.41 C 580.81 452.26 583.76 457.40 585.28 462.94 C 614.26 558.89 643.30 654.81 672.24 750.77 C 674.52 757.31 675.82 764.20 678.70 770.52 C 682.54 777.73 682.33 786.47 680.18 794.17 C 676.09 804.36 666.72 812.09 656.01 814.39 C 651.09 815.29 646.04 814.71 641.14 813.99 C 619.40 808.02 597.68 801.96 575.92 796.06 C 542.55 786.66 509.07 777.64 475.65 768.42 C 469.08 766.35 462.38 764.63 455.66 763.16 C 443.68 758.95 431.04 756.82 419.05 752.59 C 362.70 776.38 306.18 799.77 249.77 823.43 C 244.05 825.85 238.21 828.64 231.84 828.52 C 165.92 828.57 99.99 828.52 34.07 828.55 C 30.61 828.61 27.21 827.92 23.85 827.17 C 11.34 822.91 1.84 810.44 2.50 797.03 C 2.15 791.40 4.55 786.22 5.95 780.91 C 8.29 773.23 10.68 765.57 12.90 757.86 C 15.99 747.90 18.99 737.92 21.93 727.92 C 45.26 650.91 68.55 573.88 91.70 496.82 C 93.76 489.35 96.22 481.99 98.21 474.50 C 101.20 466.89 106.44 459.98 113.56 455.79 C 117.07 455.17 120.30 453.33 123.95 453.44 C 154.98 452.01 186.06 453.05 217.11 452.69 C 218.20 456.00 220.32 458.81 222.01 461.82 C 241.61 495.30 262.09 528.26 283.48 560.63 C 298.47 584.10 314.63 606.78 330.07 629.94 C 333.43 628.53 337.70 628.20 340.05 625.14 C 360.68 594.69 381.52 564.36 401.22 533.29 M 485.24 421.26 C 484.13 422.50 483.45 424.03 482.68 425.48 C 478.58 433.50 473.74 441.14 469.84 449.25 C 493.98 460.34 518.12 471.45 542.13 482.81 C 552.04 517.35 563.13 551.57 572.98 586.12 C 567.85 585.36 562.87 583.88 557.84 582.66 C 519.56 573.13 481.28 563.56 442.98 554.07 C 439.93 553.28 436.89 552.35 433.73 552.19 C 432.49 548.58 433.27 544.70 433.08 540.97 C 432.87 530.85 433.50 520.70 432.68 510.60 C 432.03 511.93 431.40 513.27 430.67 514.56 C 419.83 532.29 408.58 549.76 397.21 567.15 C 390.52 577.11 384.29 587.41 377.03 596.96 C 384.78 593.58 392.69 590.53 400.69 587.81 C 400.77 628.29 400.74 668.76 400.72 709.24 C 361.02 725.58 321.48 742.33 281.83 758.83 C 270.34 763.46 259.06 768.66 247.46 772.98 C 247.43 730.83 247.50 688.69 247.43 646.55 C 267.47 638.80 287.51 631.04 307.62 623.45 C 301.26 614.46 295.16 605.29 289.05 596.13 C 275.14 601.25 261.39 606.82 247.49 611.97 C 247.45 585.55 247.46 559.14 247.51 532.73 C 234.21 511.47 220.92 490.17 208.63 468.32 C 183.05 468.29 157.47 468.29 131.90 468.34 C 127.09 468.47 121.84 468.77 117.99 472.02 C 113.59 475.42 112.28 481.11 111.03 486.24 C 105.87 502.72 100.77 519.23 95.84 535.78 C 70.41 619.99 45.02 704.20 19.60 788.41 C 18.49 792.45 16.47 796.65 17.97 800.88 C 19.43 808.15 26.54 813.72 33.94 813.47 C 99.61 813.47 165.28 813.46 230.95 813.47 C 235.25 813.64 239.07 811.48 242.93 809.93 C 301.26 785.59 359.56 761.16 417.88 736.82 C 420.18 736.78 422.34 737.73 424.55 738.27 C 498.31 758.82 572.12 779.24 645.96 799.54 C 655.17 801.50 666.07 794.86 666.65 785.04 C 667.26 780.33 664.48 776.32 662.80 772.18 C 631.98 669.97 601.12 567.77 570.27 465.56 C 568.55 459.64 562.95 456.44 557.59 454.37 C 536.51 444.81 515.61 434.86 494.58 425.18 C 491.48 423.87 488.59 421.79 485.24 421.26 Z" />
	<path fill="#3a3a3c" d=" M 139.67 500.50 C 164.93 500.53 190.19 500.63 215.45 500.46 C 215.26 540.21 215.32 579.96 215.42 619.70 C 199.60 619.62 183.81 620.65 167.98 620.57 C 146.40 620.72 124.85 621.50 103.27 621.70 C 113.95 586.80 124.39 551.83 134.92 516.87 C 136.55 511.43 138.39 506.04 139.67 500.50 Z" />
	<path fill="#3a3a3c" d=" M 432.53 584.31 C 441.48 586.36 450.32 588.84 459.27 590.87 C 477.91 595.61 496.56 600.32 515.25 604.84 C 523.24 606.94 531.25 608.93 539.28 610.86 C 554.03 614.61 568.80 618.32 583.59 621.90 C 585.81 622.83 585.36 625.57 586.12 627.46 C 588.98 636.20 591.24 645.13 594.12 653.87 C 602.77 682.89 611.52 711.88 620.23 740.88 C 622.09 746.10 623.11 751.60 625.24 756.74 C 625.38 757.74 625.67 759.75 625.81 760.76 C 624.80 760.63 622.80 760.37 621.80 760.25 C 608.80 756.10 595.48 753.03 582.40 749.14 C 543.52 738.55 504.75 727.60 465.84 717.10 C 454.83 713.98 443.83 710.78 432.70 708.12 C 432.51 666.85 432.85 625.58 432.53 584.31 Z" />
	<path fill="#3a3a3c" d=" M 152.99 652.64 C 173.83 652.69 194.67 652.22 215.50 651.51 C 215.18 676.66 215.47 701.82 215.37 726.97 C 215.45 745.15 215.22 763.34 215.51 781.53 C 162.08 781.36 108.65 781.37 55.23 781.54 C 62.71 755.51 70.83 729.63 78.51 703.64 C 83.77 687.01 88.30 670.14 93.89 653.62 C 113.59 653.58 133.31 653.71 152.99 652.64 Z" />
</svg>