<svg viewBox="0 0 311 400" xmlns="http://www.w3.org/2000/svg">
	<path fill="#fff" opacity="1.00" d=" M 152.43 0.00 L 158.35 0.00 C 163.06 0.65 167.69 2.49 171.15 5.83 C 176.82 11.11 179.58 18.73 180.80 26.22 C 184.05 26.21 187.29 26.23 190.54 26.22 C 195.91 44.02 201.14 61.86 206.54 79.64 C 172.46 79.63 138.37 79.60 104.29 79.66 C 109.89 61.86 115.23 43.98 120.81 26.17 C 123.89 26.22 126.97 26.23 130.05 26.21 C 131.05 19.31 133.39 12.38 138.13 7.13 C 141.75 3.00 147.01 0.59 152.43 0.00 M 152.41 10.53 C 148.07 11.67 144.63 15.52 143.97 19.96 C 142.84 25.82 147.25 31.84 153.00 33.05 C 160.11 34.90 167.75 28.27 166.93 20.95 C 166.82 13.90 159.11 8.48 152.41 10.53 Z" />
	<path fill="#fff" opacity="1.00" d=" M 4.85 60.91 C 10.16 52.34 19.79 46.31 29.98 46.24 C 54.67 46.26 79.37 46.24 104.06 46.26 C 101.46 54.24 99.05 62.29 96.25 70.20 C 77.82 70.11 59.39 70.15 40.96 70.18 C 32.33 69.99 24.54 77.54 24.41 86.16 C 24.38 178.44 24.40 270.73 24.40 363.01 C 24.31 371.80 32.24 379.56 41.01 379.47 C 115.35 379.53 189.69 379.46 264.04 379.51 C 268.31 379.50 272.84 379.86 276.79 377.88 C 282.47 375.26 286.43 369.27 286.45 363.00 C 286.46 270.99 286.43 178.98 286.46 86.98 C 286.74 78.15 278.91 70.07 270.06 70.18 C 252.22 70.18 234.38 70.02 216.54 70.27 C 214.00 62.43 212.63 54.25 210.32 46.33 C 233.57 46.14 256.82 46.33 280.07 46.23 C 292.64 45.99 304.54 54.76 308.66 66.53 C 310.84 72.09 310.50 78.15 310.48 84.00 C 310.48 178.99 310.47 273.98 310.48 368.97 C 310.62 378.89 305.54 388.65 297.41 394.32 C 292.51 397.85 286.55 399.65 280.56 400.00 L 30.46 400.00 C 19.88 399.72 9.73 393.73 4.49 384.54 C 1.87 380.25 0.95 375.28 0.00 370.43 L 0.00 76.84 C 0.74 71.32 1.78 65.67 4.85 60.91 Z" />
	<path fill="#fff" opacity="1.00" d=" M 62.43 115.59 C 69.63 115.33 76.85 115.57 84.06 115.47 C 87.19 115.16 90.22 117.81 90.19 120.98 C 90.24 127.99 90.23 134.99 90.20 142.00 C 90.28 145.17 87.24 147.99 84.07 147.56 C 77.35 147.55 70.64 147.55 63.93 147.56 C 60.89 147.88 57.83 145.18 58.13 142.05 C 58.13 135.03 58.11 128.01 58.14 120.99 C 57.91 118.44 60.00 116.07 62.43 115.59 M 64.01 119.86 C 63.64 120.25 62.89 121.02 62.52 121.41 C 62.43 128.13 62.44 134.86 62.51 141.58 C 62.88 141.97 63.62 142.76 63.98 143.16 C 70.31 143.23 76.64 143.24 82.97 143.19 C 84.66 143.40 85.99 141.67 85.76 140.07 C 85.79 134.35 85.79 128.62 85.75 122.90 C 85.96 121.36 84.63 119.75 83.06 119.83 C 76.71 119.74 70.36 119.75 64.01 119.86 Z" />
	<path fill="#fff" opacity="1.00" d=" M 106.24 134.41 C 151.97 134.52 197.70 134.38 243.43 134.48 C 243.39 137.07 243.37 139.66 243.37 142.25 C 197.65 142.21 151.93 142.29 106.21 142.21 C 106.22 139.61 106.23 137.01 106.24 134.41 Z" />
	<path fill="#fff" opacity="1.00" d=" M 87.86 175.46 C 96.82 166.47 107.72 159.60 119.04 154.00 C 109.49 163.33 98.52 171.46 90.30 182.10 C 90.05 188.39 90.32 194.69 90.21 200.99 C 90.38 203.87 88.07 206.79 85.09 206.80 C 78.05 206.89 71.01 206.80 63.98 206.84 C 61.21 207.12 58.26 204.95 58.17 202.08 C 57.97 195.05 58.32 188.00 58.04 180.97 C 57.07 179.02 55.33 177.59 54.02 175.88 C 55.47 176.46 56.84 177.22 58.14 178.09 C 59.69 175.86 62.16 174.30 64.96 174.76 C 72.58 175.16 80.34 173.99 87.86 175.46 M 62.68 179.88 C 63.77 181.65 65.79 182.39 67.43 183.53 C 70.45 185.35 72.93 187.88 75.58 190.18 C 78.09 186.26 81.29 182.87 84.10 179.18 C 76.98 179.66 69.65 178.36 62.68 179.88 M 62.47 185.65 C 62.47 190.42 62.41 195.19 62.49 199.95 C 62.42 201.24 63.62 202.68 64.98 202.46 C 68.11 202.59 71.24 202.46 74.38 202.51 C 71.40 196.25 67.06 190.80 62.47 185.65 M 76.86 202.49 C 79.65 202.12 83.25 203.56 85.42 201.28 C 86.22 196.92 85.60 192.40 85.74 187.98 C 82.50 192.64 79.64 197.55 76.86 202.49 Z" />
	<path fill="#fff" opacity="1.00" d=" M 106.24 194.75 C 151.95 194.76 197.66 194.75 243.37 194.75 C 243.38 197.28 243.39 199.81 243.40 202.34 C 197.74 202.44 152.07 202.15 106.42 202.49 C 106.14 199.92 106.19 197.33 106.24 194.75 Z" />
	<path fill="#fff" opacity="1.00" d=" M 60.43 232.69 C 62.62 231.08 65.52 231.91 68.04 231.72 C 73.70 231.79 79.36 231.64 85.01 231.76 C 88.14 231.83 90.50 235.01 90.22 238.03 C 90.21 244.71 90.23 251.39 90.21 258.07 C 90.32 260.90 88.02 263.75 85.09 263.77 C 78.07 263.88 71.04 263.77 64.02 263.82 C 60.84 264.22 57.76 261.32 58.12 258.10 C 58.14 251.05 58.11 244.01 58.14 236.96 C 58.09 235.26 58.96 233.58 60.43 232.69 M 64.15 236.26 C 63.05 236.73 62.30 237.82 62.48 239.04 C 62.51 245.24 62.33 251.46 62.56 257.65 C 64.31 261.00 68.97 258.95 72.01 259.49 C 76.40 258.86 81.69 260.91 85.44 258.25 C 86.22 252.22 85.56 246.05 85.77 239.96 C 86.06 238.28 85.17 236.00 83.14 236.19 C 76.81 236.23 70.48 236.07 64.15 236.26 Z" />
	<path fill="#fff" opacity="1.00" d=" M 106.24 250.09 C 151.95 250.14 197.66 250.14 243.37 250.09 C 243.37 252.58 243.39 255.07 243.44 257.56 C 197.71 257.73 151.98 257.52 106.25 257.66 C 106.22 255.13 106.22 252.61 106.24 250.09 Z" />
	<path fill="#fff" opacity="1.00" d=" M 60.45 290.56 C 61.99 289.27 64.10 289.67 65.95 289.56 C 72.31 289.66 78.67 289.48 85.02 289.64 C 88.20 289.72 90.50 292.94 90.22 295.99 C 90.20 302.67 90.25 309.36 90.20 316.04 C 90.30 318.83 87.96 321.65 85.09 321.62 C 78.03 321.69 70.97 321.61 63.92 321.66 C 60.78 322.06 57.76 319.18 58.12 316.01 C 58.14 308.99 58.10 301.97 58.14 294.95 C 58.01 293.16 59.02 291.55 60.45 290.56 M 64.16 294.18 C 63.00 294.56 62.29 295.70 62.47 296.91 C 62.43 302.62 62.48 308.33 62.46 314.05 C 62.20 315.52 63.26 317.43 64.93 317.26 C 70.98 317.37 77.03 317.30 83.08 317.30 C 84.84 317.57 85.94 315.66 85.76 314.12 C 85.78 308.38 85.80 302.64 85.75 296.90 C 85.95 294.91 83.81 293.57 82.01 293.86 C 76.07 294.07 70.04 293.45 64.16 294.18 Z" />
	<path fill="#fff" opacity="1.00" d=" M 106.23 307.70 C 151.95 307.71 197.66 307.71 243.38 307.70 C 243.38 310.28 243.38 312.87 243.39 315.45 C 197.66 315.42 151.93 315.49 106.20 315.42 C 106.22 312.84 106.23 310.27 106.23 307.70 Z" />
</svg>
