<svg viewBox="0 0 920 980" xmlns="http://www.w3.org/2000/svg">
	<path d=" M 674.12 0.00 L 678.84 0.00 C 693.70 0.28 708.71 0.82 723.22 4.35 C 741.15 8.63 758.68 14.75 775.28 22.78 C 806.94 38.92 834.52 62.95 854.97 92.00 C 877.46 123.85 891.06 161.99 893.24 200.96 C 895.63 237.02 889.74 273.78 874.87 306.80 C 870.35 316.93 865.05 326.69 859.13 336.06 C 854.81 343.20 848.76 349.03 843.32 355.29 C 815.30 385.26 786.34 414.32 757.56 443.55 C 665.38 536.34 573.24 629.20 479.62 720.55 C 473.10 726.67 466.86 733.11 459.97 738.83 C 442.39 751.61 422.25 761.15 400.85 765.31 C 381.78 768.88 362.03 769.70 342.83 766.71 C 308.79 760.67 277.39 742.33 254.32 716.72 C 231.01 690.97 215.50 657.74 212.87 622.95 C 210.95 598.56 216.19 574.03 225.54 551.57 C 231.43 538.05 238.36 524.53 249.16 514.24 C 301.98 460.05 355.50 406.56 408.87 352.92 C 464.14 297.52 519.58 242.30 574.91 186.96 C 587.15 174.94 599.00 162.51 611.46 150.74 C 625.77 165.47 640.29 180.00 655.03 194.30 C 599.67 250.15 543.89 305.59 488.39 361.31 C 436.16 413.76 383.78 466.08 332.01 519.00 C 319.53 531.87 306.99 544.68 294.94 557.95 C 291.25 562.32 286.90 566.30 284.45 571.57 C 275.78 589.55 272.55 610.36 276.57 630.00 C 281.20 651.12 292.70 670.81 309.38 684.66 C 322.33 695.54 338.30 702.80 355.02 705.37 C 375.32 708.49 396.68 704.69 414.57 694.62 C 424.35 687.18 432.97 678.34 441.99 670.02 C 496.32 617.70 549.46 564.15 603.02 511.04 C 663.86 450.18 724.73 389.36 784.78 327.73 C 791.50 320.50 798.95 313.83 804.36 305.50 C 825.95 273.76 835.38 234.00 830.54 195.94 C 828.01 173.44 818.07 152.62 807.01 133.17 C 799.87 120.42 790.15 109.29 778.98 99.92 C 764.03 87.22 746.77 77.32 728.44 70.38 C 720.23 67.34 711.77 64.68 703.01 63.89 C 693.34 62.98 683.63 63.33 673.94 63.27 C 661.09 63.51 647.93 62.76 635.52 66.70 C 622.74 70.77 609.76 74.94 598.52 82.47 C 583.92 92.21 571.25 104.46 558.47 116.40 C 501.70 170.95 446.17 226.78 390.35 282.30 C 327.43 345.05 264.76 408.04 202.10 471.04 C 176.91 496.52 151.72 522.00 126.97 547.92 C 118.79 556.71 110.34 565.28 102.82 574.65 C 79.87 607.64 65.67 646.78 62.87 686.91 C 60.02 726.27 68.34 766.39 86.76 801.30 C 113.01 851.21 158.78 890.75 212.47 908.36 C 225.94 912.68 239.72 916.85 253.99 917.15 C 270.97 917.62 287.96 917.56 304.95 917.22 C 321.92 917.03 338.33 912.01 354.13 906.24 C 371.29 899.66 387.98 891.59 403.21 881.26 C 414.96 871.77 425.63 861.04 436.62 850.71 C 488.80 800.21 540.10 748.81 591.55 697.56 C 674.06 615.41 756.26 532.94 839.21 451.23 C 851.14 439.55 862.89 427.66 875.13 416.29 C 891.31 429.32 904.70 445.43 920.00 459.37 L 920.00 459.65 C 899.82 479.23 880.09 499.30 860.09 519.09 C 774.54 604.22 689.10 689.46 603.38 774.40 C 555.52 821.55 507.86 868.91 459.36 915.39 C 451.33 923.51 441.95 930.09 432.44 936.34 C 407.62 952.58 380.11 964.61 351.48 972.27 C 338.86 975.65 326.03 978.59 312.94 979.28 C 304.91 979.84 296.85 979.67 288.80 980.00 L 277.11 980.00 C 260.34 979.73 243.37 980.11 226.86 976.67 C 200.56 971.04 174.91 962.18 151.01 949.83 C 89.82 918.56 41.16 863.62 17.56 799.09 C 2.36 757.70 -2.93 712.76 2.02 668.96 C 6.60 628.08 20.38 588.21 42.32 553.40 C 48.87 543.41 55.16 533.10 63.71 524.66 C 109.56 476.55 156.57 429.56 203.19 382.20 C 283.02 301.69 363.02 221.36 443.46 141.45 C 472.22 112.89 500.97 84.31 530.23 56.27 C 543.09 43.57 558.33 33.55 574.17 24.97 C 595.05 13.89 617.63 5.76 641.05 2.15 C 652.00 0.66 663.07 0.18 674.12 0.00 Z" />
</svg>
