<svg viewBox="0 0 860 980" xmlns="http://www.w3.org/2000/svg">
	<path d=" M 423.29 0.00 L 434.40 0.00 C 481.85 1.19 529.62 10.04 572.84 30.14 C 602.00 43.20 629.45 60.33 653.16 81.81 C 679.73 105.74 701.75 134.90 716.43 167.57 C 725.48 187.63 731.65 208.97 734.70 230.77 C 735.48 235.14 735.71 239.67 737.22 243.89 C 738.58 247.63 742.98 248.22 746.20 249.65 C 768.84 258.25 785.53 278.62 792.86 301.33 C 796.13 310.16 796.18 319.69 796.77 328.96 C 797.94 355.94 798.01 382.96 797.60 409.96 C 797.10 425.12 797.19 440.36 795.18 455.42 C 789.30 483.39 768.85 508.50 741.49 517.72 C 731.87 520.32 721.78 519.63 711.92 520.15 C 701.96 520.13 691.90 521.11 682.02 519.49 C 670.25 516.67 659.14 509.65 652.82 499.14 C 649.85 494.39 647.66 489.21 645.21 484.19 C 638.86 501.09 632.48 518.01 624.31 534.13 C 614.55 553.81 603.32 572.77 590.72 590.76 C 580.73 604.86 569.99 618.52 557.62 630.63 C 550.75 637.45 543.03 643.31 535.51 649.37 C 542.59 667.92 553.09 685.05 565.83 700.23 C 575.39 711.35 585.91 722.34 599.30 728.79 C 610.80 732.96 622.84 735.45 634.76 738.14 C 667.00 744.82 698.95 753.07 730.15 763.62 C 752.18 771.11 773.92 779.62 794.67 790.19 C 807.67 797.01 820.68 804.38 831.31 814.67 C 838.72 821.69 842.78 831.35 846.26 840.75 C 853.85 862.98 855.79 886.59 857.29 909.88 C 858.37 929.92 858.76 949.98 859.40 970.04 C 856.07 973.36 852.80 976.74 849.42 980.00 L 10.62 980.00 C 7.22 976.74 3.96 973.33 0.60 970.04 C 1.96 933.58 1.46 896.78 8.35 860.80 C 12.15 841.84 18.73 821.89 34.18 809.19 C 48.25 798.17 64.34 790.11 80.51 782.67 C 118.78 765.67 159.03 753.48 199.73 743.82 C 215.76 739.97 232.06 737.29 247.93 732.81 C 254.52 730.87 261.31 729.06 267.04 725.10 C 280.92 715.92 292.16 703.30 302.00 690.01 C 311.36 677.60 318.19 663.59 324.32 649.39 C 317.20 643.64 309.85 638.13 303.34 631.67 C 297.18 625.80 291.79 619.20 286.20 612.81 C 270.11 612.43 254.02 612.21 237.95 611.56 C 228.59 611.04 219.05 610.72 210.04 607.88 C 202.96 605.66 196.73 601.49 190.67 597.33 C 181.83 591.21 175.01 582.57 169.78 573.26 C 160.83 557.48 156.80 539.46 155.29 521.52 C 145.81 520.91 136.30 520.65 126.86 519.59 C 118.18 518.56 110.18 514.67 102.69 510.36 C 83.65 499.02 70.34 479.35 65.02 458.03 C 63.54 449.11 63.51 440.03 63.09 431.02 C 62.13 393.67 61.81 356.28 63.58 318.96 C 63.88 308.47 67.21 298.30 71.88 288.99 C 80.01 273.00 93.13 259.36 109.36 251.54 C 112.77 249.83 116.46 248.76 119.87 247.06 C 121.53 246.23 123.31 244.92 123.52 242.92 C 125.12 228.83 127.44 214.77 131.20 201.07 C 143.50 156.08 170.00 115.65 204.21 84.21 C 233.79 56.87 269.21 36.22 306.86 22.10 C 344.00 8.09 383.57 0.37 423.29 0.00 M 246.77 82.74 C 220.05 102.94 197.06 128.34 180.76 157.69 C 168.90 178.87 160.78 202.13 156.76 226.08 C 155.97 231.35 154.45 236.63 154.80 242.00 C 155.10 244.50 157.96 244.83 159.95 244.82 C 168.38 244.82 176.97 245.37 185.00 248.13 C 187.54 248.99 190.16 249.62 192.84 249.82 C 195.48 244.56 195.82 238.55 197.83 233.06 C 203.72 215.20 210.71 197.67 219.10 180.83 C 233.16 154.07 253.34 130.67 277.24 112.22 C 306.73 89.35 341.69 74.01 378.05 65.99 C 390.82 63.09 403.96 62.44 417.01 61.96 C 435.07 61.58 453.20 62.11 471.14 64.38 C 484.75 66.17 498.04 69.89 511.08 74.07 C 547.27 85.84 580.75 106.38 606.85 134.13 C 619.64 148.36 631.30 163.72 640.65 180.43 C 646.01 190.65 650.27 201.39 654.55 212.10 C 658.65 222.88 662.89 233.67 665.41 244.96 C 665.91 246.55 666.22 248.66 668.00 249.34 C 670.35 249.45 672.55 248.46 674.77 247.80 C 684.81 244.63 695.45 244.79 705.86 244.86 C 703.52 221.88 697.48 199.37 688.57 178.07 C 681.98 162.34 674.02 147.07 663.68 133.46 C 643.30 106.19 617.27 83.29 588.02 65.92 C 553.79 45.55 515.32 32.53 475.93 26.92 C 456.41 24.61 436.73 23.26 417.07 23.95 C 356.18 25.96 295.50 45.86 246.77 82.74 M 332.88 113.56 C 298.33 130.16 268.93 157.17 249.35 190.10 C 232.20 218.53 222.52 251.03 219.02 283.93 C 214.80 323.61 216.76 363.84 223.38 403.14 C 227.41 427.32 234.11 451.01 243.29 473.74 C 250.59 495.02 260.06 515.49 270.74 535.28 C 278.98 551.19 288.77 566.20 299.05 580.86 C 322.16 581.29 345.26 581.63 368.37 581.80 C 369.11 576.45 370.05 570.95 373.25 566.45 C 378.16 559.15 385.70 552.35 394.95 552.09 C 404.96 551.23 415.01 551.42 425.04 551.77 C 429.74 551.92 434.47 552.01 439.11 552.91 C 445.03 553.93 449.54 558.35 453.56 562.49 C 459.60 569.03 460.16 578.54 459.41 586.96 C 458.97 592.95 456.34 598.74 451.93 602.85 C 448.45 606.00 444.79 609.57 439.92 610.22 C 433.02 611.39 426.00 611.40 419.03 611.69 C 388.56 612.47 358.08 612.83 327.61 613.42 C 335.18 619.15 342.86 624.74 350.24 630.71 C 354.23 634.12 358.71 638.25 358.77 643.92 C 358.61 650.55 355.32 656.53 352.72 662.47 C 343.53 682.92 332.02 702.39 317.75 719.71 C 306.17 733.46 293.16 746.66 276.89 754.77 C 260.95 762.76 243.16 765.52 225.90 769.23 C 184.94 778.22 144.33 789.44 105.46 805.29 C 87.88 812.66 70.38 820.76 55.02 832.19 C 43.36 841.40 40.17 856.98 37.76 870.85 C 34.50 896.90 31.67 923.11 31.81 949.40 C 297.40 949.40 562.98 949.40 828.57 949.40 C 826.97 922.26 826.48 894.91 821.39 868.13 C 819.19 857.52 816.53 846.63 810.28 837.60 C 805.58 830.75 797.78 827.23 790.83 823.18 C 763.26 808.65 734.44 796.28 704.47 787.64 C 674.65 778.78 644.45 771.19 613.96 765.02 C 597.72 761.62 581.95 755.36 568.49 745.54 C 552.31 733.79 539.46 718.07 528.63 701.39 C 519.20 686.27 510.59 670.58 503.65 654.15 C 502.08 649.95 499.86 645.39 501.37 640.85 C 502.88 636.82 506.34 634.00 509.41 631.15 C 517.58 624.10 526.27 617.66 534.11 610.22 C 549.11 596.04 561.93 579.69 573.23 562.45 C 594.22 530.51 609.33 495.13 621.99 459.19 C 630.54 434.83 636.57 409.56 639.22 383.87 C 641.75 359.68 642.30 335.33 642.05 311.03 C 641.66 287.31 639.50 263.40 632.66 240.59 C 627.53 223.21 619.76 206.74 611.21 190.80 C 602.03 173.79 588.94 159.26 574.94 146.08 C 540.55 114.15 494.62 95.97 448.05 92.64 C 408.76 89.85 368.39 96.12 332.88 113.56 M 135.06 276.20 C 129.00 276.82 122.85 278.32 117.72 281.74 C 111.95 285.54 107.53 290.97 103.16 296.23 C 99.28 300.88 96.77 306.57 95.64 312.51 C 93.89 321.67 93.70 331.04 93.46 340.34 C 93.12 366.56 93.54 392.79 93.82 419.01 C 93.94 427.37 94.06 435.73 94.53 444.08 C 94.91 449.82 95.35 455.76 97.99 460.99 C 103.25 471.74 111.86 481.01 122.58 486.44 C 130.79 490.33 140.14 489.57 148.98 489.88 C 156.27 489.78 163.60 490.18 170.86 489.32 C 177.11 488.53 180.59 482.64 184.96 478.80 C 184.91 414.68 185.07 350.56 184.88 286.44 C 182.03 283.85 179.52 280.90 176.55 278.44 C 173.33 275.79 168.92 275.80 164.97 275.62 C 155.00 275.52 145.00 275.27 135.06 276.20 M 675.10 286.79 C 674.99 350.79 675.08 414.80 675.05 478.81 C 677.78 481.47 680.34 484.31 683.22 486.80 C 686.73 489.83 691.64 489.62 695.99 489.84 C 705.96 489.88 715.98 490.18 725.92 489.09 C 732.70 488.34 739.51 486.22 744.84 481.83 C 749.95 477.62 754.24 472.49 758.22 467.22 C 765.29 457.31 765.58 444.62 766.30 432.95 C 767.24 405.00 766.90 377.03 766.75 349.08 C 766.21 336.30 767.04 323.28 764.09 310.74 C 760.34 299.25 752.27 289.40 742.61 282.29 C 734.45 276.12 723.77 275.72 713.96 275.62 C 705.97 275.56 697.96 275.30 690.00 275.97 C 683.35 276.41 679.39 282.51 675.10 286.79 M 214.42 484.05 C 212.71 487.85 211.57 491.91 209.52 495.57 C 205.35 503.07 199.30 509.52 192.10 514.19 C 189.39 516.03 185.60 518.13 186.09 522.00 C 187.12 529.78 188.75 537.51 191.05 545.02 C 194.83 557.42 201.76 569.97 213.82 575.93 C 228.53 583.30 245.46 581.42 261.33 580.85 C 246.30 556.58 232.90 531.23 222.49 504.62 C 219.79 497.77 217.69 490.66 214.42 484.05 Z" />
</svg>
