<svg viewBox="0 0 822 668" xmlns="http://www.w3.org/2000/svg">
	<path d=" M 27.95 0.00 L 131.66 0.00 C 142.94 1.28 153.46 8.65 157.49 19.42 C 169.03 49.66 180.32 80.01 191.85 110.25 C 391.91 110.25 591.98 110.26 792.04 110.24 C 801.21 110.29 810.16 115.04 815.57 122.41 C 821.45 130.19 823.32 140.77 820.43 150.09 C 792.58 240.73 764.73 331.38 736.84 422.01 C 733.27 434.07 721.66 443.18 709.04 443.48 C 578.54 443.54 448.04 443.47 317.53 443.52 C 323.06 458.08 328.51 472.68 334.04 487.25 C 444.04 487.26 554.03 487.24 664.02 487.26 C 681.34 487.28 698.61 492.42 712.99 502.09 C 730.17 513.48 743.22 530.98 749.18 550.72 C 753.60 565.02 754.41 580.41 751.52 595.10 C 747.51 616.14 735.68 635.57 718.86 648.82 C 694.95 668.14 660.66 673.21 632.13 661.87 C 612.78 654.37 596.33 639.82 586.34 621.66 C 574.11 599.78 571.64 572.76 579.57 549.00 C 518.90 549.00 458.24 549.01 397.58 549.00 C 402.30 563.25 403.23 578.67 400.76 593.45 C 397.66 611.36 389.00 628.29 376.20 641.21 C 363.55 654.26 346.74 663.24 328.85 666.44 C 313.45 669.14 297.30 667.93 282.62 662.46 C 263.08 655.33 246.33 641.03 236.02 622.99 C 226.58 606.78 222.60 587.60 224.33 568.95 C 226.85 538.92 245.64 510.94 272.46 497.20 C 227.22 376.97 181.73 256.83 136.44 136.62 C 126.96 111.74 117.77 86.74 108.11 61.92 C 82.76 62.11 57.40 61.94 32.04 62.01 C 24.50 62.17 16.83 59.81 11.09 54.84 C 4.24 49.17 0.33 40.48 0.00 31.66 L 0.00 30.41 C 0.32 22.06 3.77 13.78 10.03 8.15 C 14.92 3.50 21.39 1.08 27.95 0.00 M 215.09 172.06 C 227.06 203.50 238.77 235.05 250.76 266.50 C 297.90 266.50 345.05 266.50 392.20 266.50 C 389.75 235.00 387.41 203.49 384.93 172.00 C 328.32 172.04 271.70 171.92 215.09 172.06 M 415.70 172.01 C 417.96 203.48 420.59 234.93 422.81 266.41 C 466.51 266.63 510.21 266.41 553.91 266.52 C 556.43 235.02 558.77 203.50 561.28 172.01 C 512.76 172.00 464.23 171.99 415.70 172.01 M 584.55 266.51 C 629.96 266.45 675.37 266.58 720.78 266.44 C 730.37 234.94 740.08 203.47 749.77 172.00 C 697.12 172.00 644.46 172.00 591.81 172.00 C 589.51 203.51 586.95 235.00 584.55 266.51 M 262.44 297.50 C 273.03 325.59 283.62 353.67 294.22 381.75 C 329.83 381.75 365.44 381.75 401.04 381.75 C 398.90 353.64 396.88 325.51 394.43 297.44 C 350.43 297.59 306.43 297.46 262.44 297.50 M 425.39 297.46 C 427.45 325.56 429.64 353.65 431.82 381.75 C 469.51 381.78 507.21 381.69 544.90 381.79 C 547.29 353.72 549.26 325.61 551.57 297.52 C 509.51 297.44 467.45 297.58 425.39 297.46 M 582.14 297.57 C 580.13 325.65 577.64 353.71 575.81 381.80 C 612.33 381.67 648.84 381.80 685.36 381.73 C 694.00 353.66 702.59 325.57 711.27 297.50 C 668.22 297.54 625.18 297.42 582.14 297.57 M 307.45 549.65 C 294.12 552.20 283.91 565.43 284.96 579.00 C 285.26 594.30 299.82 607.51 315.13 605.97 C 331.19 605.18 343.81 588.60 340.78 572.91 C 338.67 557.70 322.57 546.03 307.45 549.65 M 659.43 549.48 C 644.17 551.75 633.11 568.06 636.52 583.10 C 639.00 596.97 652.90 607.72 667.01 605.91 C 682.73 604.65 694.85 588.34 691.88 572.92 C 689.78 558.04 674.35 546.43 659.43 549.48 Z" />
</svg>
