<svg viewBox="0 0 497 476" xmlns="http://www.w3.org/2000/svg">
	<path d=" M 65.53 0.00 L 76.00 0.00 C 76.02 19.99 75.96 39.98 76.02 59.98 C 216.01 60.05 355.99 59.95 495.98 60.02 C 496.03 198.68 495.98 337.34 496.00 476.00 L 66.53 476.00 C 48.98 475.56 31.66 468.22 19.45 455.56 C 7.60 443.66 0.74 427.19 0.00 410.46 L 0.00 65.55 C 0.74 48.58 7.80 31.89 19.94 19.94 C 31.89 7.80 48.56 0.74 65.53 0.00 M 30.87 31.86 C 20.84 41.79 15.83 55.97 16.00 69.96 C 16.04 167.85 15.91 265.74 16.07 363.62 C 18.45 361.47 20.59 359.08 22.98 356.96 C 33.21 347.87 46.25 341.99 59.86 340.50 C 60.19 313.67 59.91 286.83 60.00 260.00 C 59.98 178.97 60.03 97.94 59.98 16.92 C 48.99 18.59 38.56 23.81 30.87 31.86 M 76.02 76.02 C 75.97 169.34 76.03 262.66 75.98 355.98 C 69.37 356.01 62.66 355.78 56.18 357.38 C 37.86 361.60 22.55 376.48 17.76 394.66 C 14.48 407.26 15.82 421.28 22.39 432.64 C 31.50 450.16 51.33 461.12 71.00 460.01 C 207.33 459.98 343.66 460.02 479.98 459.99 C 480.01 332.00 480.01 204.01 479.98 76.02 C 345.33 75.99 210.67 75.99 76.02 76.02 Z" />
	<path d=" M 100.00 0.00 L 450.13 0.00 C 465.19 7.11 480.84 12.92 495.91 20.00 C 482.82 26.10 469.36 31.38 456.16 37.21 C 453.23 38.41 450.34 40.12 447.08 40.01 C 331.39 39.97 215.71 40.04 100.02 39.98 C 99.96 26.65 100.02 13.33 100.00 0.00 M 116.01 16.02 C 115.98 18.67 115.98 21.33 116.01 23.98 C 124.00 24.02 132.00 24.02 139.99 23.98 C 140.02 21.33 140.02 18.67 139.99 16.02 C 132.00 15.98 124.00 15.98 116.01 16.02 M 156.01 16.02 C 155.98 18.67 155.98 21.33 156.01 23.98 C 252.03 24.03 348.05 23.97 444.07 24.01 C 448.11 24.03 451.64 21.66 455.19 20.00 C 451.64 18.34 448.11 15.97 444.07 15.99 C 348.05 16.03 252.03 15.97 156.01 16.02 Z" />
	<path d=" M 150.60 266.20 C 192.43 224.47 234.10 182.58 276.00 140.92 C 293.46 157.96 310.34 175.59 327.94 192.49 C 328.10 183.00 327.93 173.51 328.02 164.02 C 343.34 163.99 358.66 163.99 373.98 164.02 C 374.06 188.96 373.91 213.91 374.05 238.85 C 383.13 248.00 392.29 257.08 401.39 266.20 C 398.01 270.25 394.24 274.01 390.21 277.40 C 380.10 267.31 370.05 257.17 359.90 247.13 C 359.14 246.21 357.84 245.39 358.03 244.03 C 357.95 222.69 358.05 201.35 357.98 180.02 C 353.33 179.98 348.67 179.98 344.02 180.02 C 343.93 197.03 344.10 214.05 343.94 231.07 C 321.22 208.55 298.78 185.76 276.00 163.30 C 237.81 201.21 199.86 239.38 161.78 277.41 C 157.77 273.99 153.98 270.25 150.60 266.20 Z" />
	<path d=" M 178.01 282.02 C 183.34 281.98 188.66 281.98 193.98 282.02 C 194.03 316.00 193.97 349.99 194.02 383.98 C 248.67 384.01 303.33 384.01 357.98 383.98 C 358.03 349.99 357.97 316.00 358.02 282.02 C 363.34 281.98 368.66 281.98 373.98 282.02 C 374.01 321.34 374.01 360.66 373.98 399.98 C 308.66 400.01 243.34 400.01 178.02 399.98 C 177.99 360.66 177.99 321.34 178.01 282.02 Z" />
</svg>
