<svg viewBox="0 0 57 49" xmlns="http://www.w3.org/2000/svg">
	<path d=" M 19.32 0.00 L 19.68 0.00 C 22.47 8.91 30.26 16.88 29.54 26.83 C 32.30 28.81 35.05 30.80 37.86 32.72 C 43.59 29.60 49.26 26.35 55.09 23.40 C 55.57 23.72 56.52 24.35 57.00 24.67 L 57.00 26.19 C 52.16 29.77 46.50 32.19 41.24 35.12 C 45.71 38.43 50.30 41.58 54.82 44.83 L 53.91 46.31 C 49.12 43.10 44.46 39.69 39.79 36.30 C 35.42 38.00 31.38 40.75 27.17 42.91 C 26.02 46.19 20.97 48.59 18.46 45.48 C 16.81 41.65 21.92 38.40 25.32 39.48 C 28.90 37.65 32.37 35.58 35.98 33.81 C 33.80 31.94 31.36 30.40 29.03 28.72 C 27.67 32.02 24.58 33.92 21.41 35.21 C 23.34 32.40 24.79 29.14 24.56 25.66 C 23.47 24.52 22.03 23.82 20.80 22.85 C 20.80 24.78 20.44 26.78 18.99 28.17 C 16.27 27.45 15.82 24.29 15.16 21.98 C 14.96 22.03 14.58 22.14 14.38 22.19 C 10.20 30.68 12.21 40.65 15.65 49.00 L 15.32 49.00 C 15.84 47.62 13.19 47.37 12.87 46.06 C 5.40 37.43 4.84 24.75 8.94 14.48 C 6.14 11.81 1.83 10.48 0.00 7.07 L 0.00 6.96 C 0.37 6.92 1.12 6.84 1.50 6.81 C 4.18 8.85 6.92 10.80 9.72 12.67 C 11.47 9.02 13.73 5.59 16.60 2.71 C 17.05 1.45 19.65 1.37 19.32 0.00 M 19.65 15.06 C 19.86 16.89 20.63 18.60 20.73 20.45 C 21.76 21.54 23.15 22.20 24.34 23.07 C 23.47 20.07 22.01 17.17 19.65 15.06 Z" />
</svg>
