<svg viewBox="0 0 1250 1250" xmlns="http://www.w3.org/2000/svg">
	<path d=" M 622.27 0.00 L 634.65 0.00 C 682.23 0.91 729.74 6.84 775.94 18.36 C 852.00 37.24 924.17 71.05 987.87 116.62 C 1013.75 90.92 1039.44 65.03 1065.28 39.29 C 1077.20 27.83 1094.83 22.74 1111.03 25.94 C 1125.43 28.50 1138.59 37.30 1146.27 49.77 C 1150.69 56.44 1152.58 64.29 1155.19 71.75 C 1175.29 132.03 1195.36 192.32 1215.45 252.60 C 1218.41 261.99 1222.22 271.18 1223.83 280.94 C 1227.63 302.65 1221.67 325.70 1208.20 343.08 C 1191.84 364.82 1163.96 377.31 1136.83 374.53 C 1124.94 373.68 1113.85 369.08 1102.62 365.47 C 1038.84 344.21 975.06 322.96 911.28 301.70 C 896.67 296.92 884.34 285.49 878.83 271.09 C 871.11 252.32 875.34 229.19 889.76 214.78 C 910.49 194.03 931.31 173.35 951.96 152.51 C 882.89 104.29 803.04 71.52 719.90 57.81 C 620.84 41.27 517.42 51.02 423.41 86.48 C 310.12 128.75 211.23 208.05 144.80 309.02 C 108.86 363.33 82.34 423.85 66.71 487.07 C 48.03 562.78 44.95 642.28 57.73 719.21 C 71.45 802.72 104.19 882.99 152.56 952.42 C 207.55 1031.67 282.69 1096.84 369.07 1139.82 C 448.16 1179.46 536.59 1200.10 625.04 1200.00 C 712.16 1200.08 799.26 1180.04 877.44 1141.54 C 944.32 1108.76 1004.72 1062.83 1054.23 1007.19 C 1104.53 950.81 1143.66 884.47 1168.40 813.07 C 1189.37 752.74 1200.01 688.86 1200.00 625.00 C 1216.67 624.99 1233.33 625.00 1250.00 625.00 L 1250.00 631.70 C 1249.28 680.70 1243.26 729.69 1231.18 777.21 C 1212.17 853.39 1178.30 925.76 1132.41 989.44 C 1089.79 1048.65 1036.78 1100.35 976.53 1141.48 C 911.16 1186.14 837.24 1218.27 759.91 1235.27 C 717.82 1244.66 674.75 1249.37 631.66 1250.00 L 618.31 1250.00 C 529.31 1248.97 440.49 1228.98 359.99 1190.91 C 283.17 1154.91 213.94 1102.93 157.65 1039.48 C 113.33 989.62 77.01 932.63 50.65 871.34 C 18.02 795.87 0.95 713.85 0.00 631.67 L 0.00 618.32 C 1.01 529.05 21.14 439.97 59.40 359.27 C 86.19 302.32 121.75 249.53 164.28 203.15 C 246.56 113.08 355.62 47.66 474.13 18.47 C 522.52 6.33 572.39 0.32 622.27 0.00 M 1099.03 76.09 C 1041.36 133.70 983.73 191.37 926.09 249.02 C 924.25 250.20 925.13 252.38 925.93 253.92 C 975.70 270.43 1025.41 287.12 1075.16 303.67 C 1095.44 310.30 1115.55 317.46 1135.91 323.83 C 1151.46 328.58 1169.14 318.41 1173.60 302.95 C 1176.09 295.76 1174.95 287.98 1172.37 281.00 C 1149.64 213.18 1127.03 145.32 1104.41 77.47 C 1104.06 75.03 1100.43 73.98 1099.03 76.09 Z" />
	<path d=" M 600.00 300.00 C 616.67 300.00 633.33 300.00 650.00 300.00 C 650.08 367.56 649.84 435.13 650.12 502.69 C 688.71 510.14 722.53 537.54 738.73 573.23 C 753.45 605.12 753.72 643.25 739.32 675.31 C 736.49 681.76 733.02 687.90 729.19 693.81 C 783.63 748.38 838.20 802.82 892.68 857.36 C 880.86 869.08 869.15 880.91 857.34 892.64 C 802.79 838.20 748.39 783.61 693.81 729.20 C 663.95 749.16 625.32 755.27 590.82 745.21 C 556.44 735.60 526.96 710.37 511.85 678.07 C 493.80 640.34 496.62 593.54 519.34 558.38 C 537.23 530.01 566.88 509.08 599.89 502.68 C 600.15 435.12 599.92 367.56 600.00 300.00 Z" />
	<path d=" M 99.99 625.00 C 116.66 624.99 133.33 625.00 150.00 625.00 C 149.80 713.22 174.98 801.34 221.94 876.04 C 276.03 963.03 358.96 1031.71 454.63 1068.38 C 508.81 1089.35 566.93 1099.99 625.00 1100.00 C 625.00 1116.67 625.00 1133.34 625.00 1150.01 C 574.63 1149.91 524.24 1142.79 475.96 1128.39 C 387.24 1102.21 305.89 1051.80 242.68 984.31 C 195.04 933.84 157.60 873.78 133.25 808.79 C 111.17 750.21 100.07 687.59 99.99 625.00 Z" />
</svg>
