<svg viewBox="0 0 896 776" xmlns="http://www.w3.org/2000/svg">
	<path d=" M 322.04 125.29 C 385.33 83.78 448.69 42.36 511.86 0.68 C 512.14 105.74 511.99 210.81 511.94 315.87 C 490.58 294.68 469.40 273.30 448.05 252.09 C 447.92 207.83 448.06 163.57 447.98 119.31 C 421.22 136.72 394.63 154.40 367.87 171.79 C 352.58 156.57 337.29 141.35 322.12 126.02 L 322.04 125.29 Z" />
	<path d=" M 65.43 50.69 C 80.40 35.48 95.48 20.35 110.74 5.42 C 161.42 56.34 212.33 107.04 263.09 157.88 C 276.88 171.07 290.18 184.78 303.72 198.22 C 335.76 230.83 368.30 262.97 400.57 295.36 C 425.48 320.47 450.75 345.21 475.75 370.23 C 499.02 393.28 521.82 416.77 545.07 439.83 C 600.11 494.81 655.01 549.92 710.15 604.79 C 750.57 644.68 790.17 685.39 830.59 725.28 C 815.58 740.46 800.48 755.57 785.28 770.57 C 756.29 741.24 726.89 712.31 697.88 683.00 C 692.45 684.66 687.29 687.14 681.89 688.94 C 648.01 701.19 612.08 708.02 576.01 708.00 C 575.98 686.68 576.00 665.35 576.00 644.03 C 600.34 643.93 624.64 640.26 647.94 633.23 C 602.76 587.81 557.32 542.64 512.10 497.26 C 511.79 589.91 512.21 682.57 511.89 775.22 C 413.70 710.66 315.36 646.31 217.14 581.79 C 215.87 581.04 214.69 579.80 213.09 580.00 C 174.73 580.00 136.37 580.00 98.01 580.00 C 65.47 580.85 33.37 563.62 15.74 536.32 C 6.49 522.44 1.31 506.11 0.00 489.54 L 0.00 286.53 C 1.51 265.42 9.80 244.78 23.90 228.93 C 38.31 212.42 58.46 200.94 80.11 197.36 C 89.62 195.54 99.35 196.09 108.98 196.00 C 142.90 195.94 176.82 196.13 210.73 195.90 C 162.24 147.56 113.96 99.00 65.43 50.69 M 256.13 244.95 C 255.83 289.27 256.09 333.60 256.00 377.93 C 256.09 428.93 255.82 479.95 256.14 530.95 C 320.20 572.68 384.02 614.80 447.98 656.70 C 447.97 582.16 448.10 507.61 447.91 433.07 C 384.86 370.06 321.79 307.06 258.82 243.97 C 257.85 244.09 256.95 244.41 256.13 244.95 M 84.14 262.18 C 72.07 266.62 63.77 279.12 64.01 291.94 C 63.99 355.95 63.99 419.96 64.01 483.98 C 63.84 495.27 70.11 506.48 80.10 511.87 C 86.66 515.83 94.50 516.29 101.96 516.00 C 131.97 515.99 161.98 516.01 191.99 515.99 C 192.00 430.66 192.00 345.34 191.99 260.01 C 160.32 259.99 128.65 260.00 96.97 260.01 C 92.60 259.96 88.21 260.55 84.14 262.18 Z" />
	<path d=" M 576.01 68.04 C 631.66 67.83 687.24 82.71 735.41 110.58 C 797.69 146.40 847.34 203.67 873.66 270.55 C 887.67 305.73 895.04 343.44 896.00 381.26 L 896.00 397.56 C 895.21 411.44 894.25 425.35 891.83 439.06 C 881.70 503.07 850.78 563.22 805.94 609.86 C 790.78 594.88 775.81 579.71 760.68 564.70 C 786.29 537.51 806.52 505.09 818.47 469.63 C 832.11 429.83 835.47 386.59 828.38 345.13 C 821.62 304.64 804.72 265.91 779.83 233.28 C 756.71 202.84 726.74 177.61 692.71 160.18 C 656.82 141.63 616.41 131.92 576.01 132.03 C 575.99 110.70 575.99 89.37 576.01 68.04 Z" />
	<path d=" M 576.02 196.04 C 615.41 195.83 654.72 208.40 686.78 231.28 C 718.94 254.01 743.92 286.80 756.99 323.97 C 768.82 357.16 771.22 393.67 763.69 428.10 C 756.47 462.04 739.42 493.62 715.80 518.96 C 715.50 518.86 714.90 518.67 714.59 518.57 C 699.74 503.76 684.91 488.94 670.13 474.07 C 682.75 460.28 692.48 443.78 698.09 425.93 C 709.44 390.86 704.13 351.01 684.35 319.94 C 664.72 288.43 630.76 266.20 593.91 261.31 C 588.00 260.32 581.99 260.08 576.01 260.02 C 575.99 238.69 575.99 217.36 576.02 196.04 Z" />
</svg>
