<svg viewBox="0 0 400 432" xmlns="http://www.w3.org/2000/svg">
	<path d=" M 199.53 0.00 L 200.37 0.00 C 216.75 15.19 233.89 29.55 250.49 44.50 C 252.38 46.08 254.20 48.34 256.95 48.00 C 275.30 48.02 293.65 47.99 312.00 47.99 C 318.08 48.02 324.36 47.57 330.20 49.64 C 339.58 52.73 347.27 60.42 350.35 69.81 C 352.52 75.96 351.95 82.59 352.00 89.00 C 352.04 103.33 351.92 117.66 352.04 131.99 C 351.77 133.69 353.16 134.74 354.25 135.78 C 369.53 149.18 384.83 162.56 400.00 176.08 L 400.00 403.39 C 398.86 410.78 395.66 417.98 390.12 423.11 C 385.08 428.08 378.30 430.85 371.40 432.00 L 28.61 432.00 C 21.70 430.89 14.91 428.11 9.86 423.15 C 4.33 418.02 1.12 410.82 0.00 403.43 L 0.00 176.08 C 14.99 162.71 30.10 149.49 45.22 136.26 C 46.42 135.05 48.24 133.96 47.96 131.99 C 48.08 117.66 47.96 103.33 48.00 89.00 C 48.05 82.55 47.49 75.89 49.68 69.70 C 52.84 60.14 60.80 52.37 70.43 49.44 C 75.78 47.71 81.46 47.99 87.00 47.99 C 105.36 48.02 123.72 47.97 142.08 48.03 C 144.00 48.09 146.03 47.86 147.38 46.33 C 160.64 34.60 173.95 22.93 187.23 11.23 C 191.38 7.55 195.68 4.01 199.53 0.00 M 169.51 47.92 C 189.83 48.06 210.16 48.04 230.48 47.93 C 220.55 38.68 210.22 29.83 200.00 20.89 C 189.78 29.83 179.44 38.66 169.51 47.92 M 64.01 79.92 C 63.98 122.97 64.02 166.03 63.99 209.08 C 63.76 210.48 64.40 211.70 65.51 212.53 C 99.51 242.51 133.50 272.50 167.48 302.51 C 168.38 303.45 169.67 303.74 170.93 303.68 C 190.89 303.79 210.85 304.21 230.80 303.92 C 234.99 299.71 239.54 295.89 243.93 291.90 C 274.59 264.51 305.20 237.08 335.89 209.72 C 336.16 167.48 335.89 125.24 336.02 83.00 C 336.04 80.01 336.02 76.93 334.84 74.14 C 332.52 68.22 326.48 63.94 320.08 64.01 C 240.03 63.99 159.98 63.99 79.93 64.01 C 71.41 63.80 63.81 71.40 64.01 79.92 M 24.14 176.00 C 31.96 183.18 39.93 190.23 47.96 197.18 C 48.03 183.09 48.02 169.01 47.97 154.92 C 39.97 161.89 31.96 168.84 24.14 176.00 M 352.03 154.92 C 351.98 169.01 351.97 183.09 352.04 197.18 C 360.07 190.22 368.04 183.19 375.86 176.00 C 368.04 168.84 360.02 161.89 352.03 154.92 M 16.05 192.06 C 15.93 261.06 16.05 330.06 15.99 399.07 C 15.77 403.71 17.61 408.29 20.92 411.53 C 30.45 403.57 39.66 395.23 49.07 387.12 C 80.66 359.48 112.39 331.98 143.91 304.25 C 101.35 266.78 58.67 229.45 16.05 192.06 M 256.09 304.25 C 297.01 340.09 337.93 375.94 379.07 411.54 C 382.35 408.26 384.23 403.71 384.01 399.06 C 383.95 330.06 384.07 261.06 383.95 192.06 C 341.32 229.45 298.64 266.78 256.09 304.25 M 150.35 321.39 C 129.39 339.41 108.38 357.37 87.40 375.37 C 71.77 388.94 55.80 402.12 40.39 415.92 C 146.79 416.05 253.21 416.05 359.62 415.92 C 346.53 404.13 332.89 392.93 319.59 381.37 C 296.28 361.37 272.94 341.41 249.65 321.39 C 248.66 320.48 247.47 319.81 246.08 320.00 C 215.36 320.00 184.64 320.00 153.92 320.00 C 152.52 319.81 151.33 320.47 150.35 321.39 Z" />
</svg>
