<svg viewBox="0 0 800 1300" xmlns="http://www.w3.org/2000/svg">
	<path d=" M 696.76 0.00 L 703.72 0.00 C 723.47 0.86 742.96 7.48 758.89 19.22 C 783.77 37.15 799.42 67.00 800.00 97.67 L 800.00 1179.39 C 798.81 1211.85 784.54 1243.58 760.80 1265.79 C 738.71 1286.87 708.68 1299.22 678.16 1300.00 L 121.94 1300.00 C 89.23 1299.24 57.13 1285.05 34.65 1261.28 C 13.65 1239.53 1.26 1209.96 0.00 1179.78 L 0.00 271.88 C 0.76 238.26 15.79 205.32 40.73 182.77 C 63.42 161.83 94.10 149.89 124.97 150.01 C 283.31 149.98 441.65 150.01 599.99 150.00 C 600.05 132.32 599.91 114.64 600.07 96.97 C 600.73 66.53 616.45 37.00 641.12 19.20 C 657.18 7.38 676.85 0.73 696.76 0.00 M 676.70 55.82 C 660.90 64.02 650.22 81.15 650.05 98.99 C 649.94 115.99 650.03 132.99 650.00 150.00 C 675.01 150.00 700.02 150.02 725.03 149.99 C 733.00 150.02 740.83 145.93 745.39 139.39 C 749.30 134.13 750.36 127.40 750.01 120.99 C 749.64 110.43 750.93 99.71 748.80 89.29 C 745.54 74.11 734.73 60.82 720.56 54.48 C 706.77 48.12 690.07 48.63 676.70 55.82 M 724.06 199.99 C 524.36 200.01 324.67 199.99 124.97 200.01 C 105.31 199.91 85.80 208.03 71.98 222.01 C 58.04 235.82 49.92 255.29 50.01 274.93 C 50.00 574.96 50.00 874.99 50.01 1175.02 C 49.92 1193.97 57.47 1212.78 70.56 1226.48 C 84.25 1241.08 103.98 1249.82 124.02 1249.98 C 149.34 1250.02 174.66 1249.99 199.98 1249.99 C 199.99 1234.75 207.33 1219.75 219.45 1210.50 C 228.36 1203.52 239.69 1199.83 250.99 1200.01 C 350.34 1200.00 449.70 1200.00 549.05 1200.01 C 560.11 1199.85 571.19 1203.38 580.00 1210.09 C 592.43 1219.31 600.00 1234.53 600.02 1249.99 C 624.99 1250.00 649.96 1250.00 674.94 1249.99 C 691.76 1250.04 708.51 1244.17 721.63 1233.64 C 736.09 1222.19 746.11 1205.25 749.01 1187.02 C 750.28 1179.74 749.96 1172.33 750.00 1164.98 C 750.01 842.00 749.98 519.01 750.01 196.03 C 741.98 199.84 732.75 199.56 724.06 199.99 Z" />
	<path d=" M 275.00 250.00 C 358.33 250.00 441.66 250.00 525.00 250.00 C 525.00 266.67 525.00 283.33 525.00 300.00 C 441.66 300.00 358.33 300.00 275.00 300.00 C 275.00 283.33 275.00 266.67 275.00 250.00 Z" />
	<path d=" M 168.33 350.47 C 172.87 349.88 177.46 350.01 182.03 350.00 C 327.70 350.00 473.37 350.00 619.03 350.00 C 627.00 349.80 635.14 350.26 642.63 353.23 C 661.40 360.05 674.85 379.03 674.95 399.03 C 675.06 428.68 674.97 458.33 675.00 487.98 C 674.89 496.32 675.58 504.85 673.25 512.98 C 669.33 527.99 657.92 540.77 643.48 546.43 C 637.29 548.92 630.62 550.03 623.97 550.00 C 475.32 550.01 326.68 549.99 178.03 550.01 C 171.01 550.14 163.90 549.30 157.32 546.74 C 138.59 539.92 125.16 520.97 125.05 501.02 C 124.94 471.68 125.03 442.35 125.00 413.01 C 125.10 403.46 124.27 393.62 127.50 384.43 C 133.15 366.54 149.69 352.74 168.33 350.47 Z" />
	<path d=" M 168.38 600.47 C 172.22 599.97 176.10 599.98 179.97 600.00 C 195.00 600.02 210.02 599.97 225.05 600.02 C 237.70 600.00 250.25 604.99 259.39 613.74 C 269.28 623.01 275.01 636.45 274.98 650.00 C 275.01 666.68 275.02 683.36 274.98 700.04 C 274.97 711.93 270.60 723.76 262.77 732.71 C 253.68 743.32 239.97 749.75 226.00 749.95 C 209.34 750.06 192.67 749.97 176.01 750.00 C 169.12 750.03 162.21 748.83 155.85 746.16 C 138.20 739.06 125.60 721.11 125.09 702.07 C 124.89 689.06 125.06 676.05 125.00 663.04 C 125.10 653.47 124.27 643.61 127.50 634.42 C 133.17 616.52 149.73 602.72 168.38 600.47 M 175.00 650.00 C 175.00 666.67 175.00 683.33 175.00 699.99 C 191.67 700.00 208.33 700.00 225.00 700.00 C 225.00 683.33 225.00 666.67 225.00 650.00 C 208.33 650.00 191.67 650.00 175.00 650.00 Z" />
	<path d=" M 368.40 600.47 C 374.23 599.74 380.12 600.07 385.98 600.00 C 399.65 600.05 413.32 599.89 427.00 600.08 C 445.82 600.57 463.61 612.86 470.89 630.21 C 473.89 637.04 475.12 644.55 475.00 652.00 C 474.94 668.67 475.12 685.35 474.91 702.02 C 474.40 721.87 460.72 740.46 442.00 746.99 C 431.80 750.96 420.71 749.85 410.02 750.00 C 397.33 749.91 384.63 750.18 371.94 749.86 C 353.26 748.97 335.84 736.49 328.84 719.17 C 326.16 712.81 324.97 705.89 325.00 699.01 C 325.01 682.67 324.97 666.32 325.02 649.98 C 325.01 637.82 329.58 625.73 337.73 616.70 C 345.58 607.86 356.66 601.97 368.40 600.47 M 375.00 650.00 C 375.00 666.67 375.00 683.33 375.00 700.00 C 391.67 700.00 408.33 700.00 425.00 700.00 C 425.00 683.33 425.00 666.67 425.00 650.00 C 408.33 650.00 391.67 650.00 375.00 650.00 Z" />
	<path d=" M 568.39 600.47 C 581.88 599.47 595.44 600.24 608.96 600.00 C 618.96 600.25 629.23 599.06 638.96 602.01 C 659.49 607.66 674.86 627.65 674.95 648.96 C 675.07 665.31 674.96 681.67 675.00 698.03 C 675.08 704.45 674.22 710.92 672.00 716.97 C 665.48 735.70 646.89 749.39 627.04 749.91 C 609.69 750.10 592.32 749.97 574.96 749.98 C 560.19 750.03 545.60 743.14 536.32 731.64 C 529.04 722.82 525.01 711.44 525.02 700.01 C 524.97 683.68 525.01 667.35 525.00 651.02 C 524.94 643.11 526.57 635.16 530.09 628.05 C 537.20 613.24 552.07 602.48 568.39 600.47 M 575.00 650.00 C 575.00 666.67 575.00 683.33 575.00 700.00 C 591.67 700.00 608.33 700.00 625.00 700.00 C 625.00 683.33 625.00 666.67 625.00 650.00 C 608.33 650.00 591.67 650.00 575.00 650.00 Z" />
	<path d=" M 168.37 800.47 C 174.23 799.74 180.14 800.07 186.03 800.00 C 199.70 800.05 213.37 799.88 227.04 800.09 C 246.09 800.59 264.04 813.18 271.15 830.83 C 273.98 837.51 275.11 844.80 275.00 852.03 C 274.94 868.71 275.12 885.40 274.91 902.09 C 274.37 921.10 261.81 939.02 244.20 946.14 C 237.52 948.96 230.24 950.11 223.02 950.00 C 206.33 949.94 189.64 950.12 172.96 949.91 C 154.17 949.40 136.41 937.16 129.13 919.85 C 126.26 913.32 124.97 906.17 125.01 899.06 C 125.01 882.71 124.98 866.37 125.02 850.03 C 124.99 837.39 129.94 824.82 138.67 815.67 C 146.44 807.40 157.11 801.92 168.37 800.47 M 175.00 850.00 C 175.00 866.67 175.00 883.33 175.00 900.00 C 191.67 900.00 208.33 900.00 225.00 900.00 C 225.00 883.33 225.00 866.67 225.00 850.00 C 208.33 850.00 191.67 850.00 175.00 850.00 Z" />
	<path d=" M 368.34 800.47 C 373.85 799.77 379.41 800.05 384.95 800.00 C 398.65 800.03 412.35 799.93 426.05 800.05 C 439.52 800.24 452.76 806.25 461.83 816.22 C 470.24 825.30 474.98 837.60 474.98 849.96 C 475.03 866.33 474.99 882.70 474.99 899.07 C 475.02 905.95 473.80 912.86 471.13 919.22 C 463.88 937.16 445.43 949.79 426.06 949.95 C 408.38 950.01 390.69 950.08 373.01 949.91 C 352.65 949.43 333.65 935.04 327.53 915.64 C 324.27 906.44 325.10 896.56 325.00 886.98 C 325.03 874.32 324.94 861.65 325.05 848.99 C 325.23 835.29 331.41 821.84 341.66 812.76 C 349.05 806.11 358.48 801.76 368.34 800.47 M 375.00 850.00 C 375.00 866.67 375.00 883.33 375.00 900.00 C 391.67 900.00 408.33 900.00 425.00 900.00 C 425.00 883.33 425.00 866.67 425.00 850.00 C 408.33 850.00 391.67 850.00 375.00 850.00 Z" />
	<path d=" M 568.37 800.47 C 573.87 799.77 579.42 800.05 584.95 800.00 C 598.62 800.03 612.29 799.94 625.96 800.05 C 639.68 800.22 653.14 806.41 662.24 816.67 C 670.39 825.69 674.96 837.77 674.98 849.92 C 675.02 866.60 675.01 883.29 674.98 899.98 C 675.02 913.80 669.04 927.50 658.79 936.80 C 649.70 945.24 637.38 949.98 624.99 949.98 C 607.66 949.97 590.32 950.10 572.99 949.91 C 554.18 949.41 536.40 937.15 529.12 919.82 C 526.25 913.29 524.96 906.14 525.01 899.04 C 525.00 883.01 525.00 866.99 525.00 850.97 C 524.98 844.63 525.96 838.26 528.24 832.34 C 534.44 815.42 550.47 802.65 568.37 800.47 M 575.00 850.00 C 575.00 866.67 575.00 883.33 575.00 900.00 C 591.67 900.00 608.33 900.00 625.00 900.00 C 625.00 883.33 625.00 866.67 625.00 850.00 C 608.33 850.00 591.67 850.00 575.00 850.00 Z" />
	<path d=" M 168.34 1000.47 C 173.85 999.77 179.43 1000.05 184.97 1000.00 C 198.65 1000.03 212.33 999.94 226.00 1000.05 C 239.48 1000.23 252.71 1006.22 261.79 1016.17 C 270.22 1025.25 274.97 1037.57 274.98 1049.95 C 275.01 1066.65 275.02 1083.36 274.98 1100.06 C 275.00 1114.08 268.81 1127.96 258.29 1137.25 C 249.27 1145.41 237.17 1149.97 225.02 1149.98 C 208.34 1150.01 191.66 1150.01 174.99 1149.98 C 162.60 1149.98 150.28 1145.24 141.20 1136.80 C 130.96 1127.51 124.97 1113.82 125.02 1100.00 C 124.99 1083.34 124.99 1066.68 125.02 1050.02 C 124.99 1037.37 129.94 1024.80 138.69 1015.65 C 146.45 1007.40 157.10 1001.93 168.34 1000.47 M 175.00 1050.00 C 175.00 1066.67 175.00 1083.33 175.00 1100.00 C 191.67 1100.00 208.33 1100.00 225.00 1100.00 C 225.00 1083.33 225.00 1066.67 225.00 1050.00 C 208.33 1050.00 191.67 1050.00 175.00 1050.00 Z" />
	<path d=" M 368.42 1000.46 C 381.58 999.48 394.82 1000.24 408.01 1000.00 C 418.89 1000.27 430.12 998.88 440.61 1002.52 C 459.64 1008.53 473.91 1026.91 474.85 1046.87 C 475.18 1059.91 474.91 1072.96 475.00 1086.00 C 474.86 1095.89 475.82 1106.09 472.47 1115.60 C 466.47 1134.64 448.06 1148.92 428.09 1149.85 C 414.40 1150.18 400.70 1149.91 387.01 1150.00 C 379.44 1149.88 371.77 1150.49 364.32 1148.81 C 347.04 1145.22 332.34 1131.70 327.26 1114.81 C 324.09 1105.17 325.20 1094.92 325.00 1084.96 C 325.12 1071.93 324.74 1058.88 325.21 1045.86 C 326.64 1023.05 345.72 1003.04 368.42 1000.46 M 375.00 1050.00 C 375.00 1066.67 375.00 1083.33 375.00 1100.00 C 391.67 1100.00 408.33 1100.00 425.00 1100.00 C 425.00 1083.33 425.00 1066.67 425.00 1050.00 C 408.33 1050.00 391.67 1050.00 375.00 1050.00 Z" />
	<path d=" M 568.40 1000.47 C 581.20 999.48 594.08 1000.24 606.92 1000.00 C 618.41 1000.32 630.33 998.74 641.37 1002.77 C 656.77 1008.00 669.14 1021.23 673.24 1036.98 C 675.58 1045.11 674.90 1053.64 675.00 1061.99 C 674.94 1075.33 675.11 1088.68 674.91 1102.02 C 674.41 1119.03 664.40 1135.29 649.53 1143.54 C 641.80 1147.94 632.88 1150.07 624.00 1150.00 C 606.98 1149.95 589.94 1150.11 572.92 1149.91 C 553.61 1149.38 535.45 1136.43 528.54 1118.41 C 526.06 1112.27 524.97 1105.63 525.00 1099.02 C 525.01 1082.69 524.98 1066.36 525.02 1050.04 C 524.97 1036.94 530.31 1023.92 539.62 1014.69 C 547.30 1006.96 557.58 1001.86 568.40 1000.47 M 575.00 1050.00 C 575.00 1066.67 575.00 1083.33 575.00 1100.00 C 591.67 1100.00 608.33 1100.00 625.00 1100.00 C 625.00 1083.33 625.00 1066.67 625.00 1050.00 C 608.33 1050.00 591.67 1050.00 575.00 1050.00 Z" />
</svg>
