<svg viewBox="0 0 1050 1300" xmlns="http://www.w3.org/2000/svg">
	<path d=" M 298.25 0.00 L 751.72 0.00 C 770.86 0.53 788.96 13.02 796.12 30.79 C 799.29 38.11 800.21 46.17 800.01 54.08 C 799.99 117.38 800.00 180.67 800.00 243.96 C 800.25 252.48 799.58 261.20 796.14 269.10 C 788.88 287.06 770.43 299.75 751.04 299.97 C 734.03 300.05 717.02 299.97 700.00 300.01 C 700.00 316.67 700.00 333.33 700.00 349.99 C 796.99 350.01 893.98 350.00 990.97 350.00 C 997.61 350.05 1004.35 349.67 1010.86 351.23 C 1026.74 354.58 1040.46 366.37 1046.39 381.45 C 1048.29 385.94 1049.10 390.78 1050.00 395.55 L 1050.00 451.75 C 1049.41 465.93 1042.63 479.75 1031.55 488.67 C 1022.73 495.93 1011.41 499.92 1000.00 500.05 C 1000.00 750.03 1000.00 1000.01 1000.00 1250.00 C 1016.67 1250.01 1033.33 1249.99 1050.00 1250.00 L 1050.00 1300.00 L 0.00 1300.00 L 0.00 1250.00 C 16.66 1250.00 33.33 1250.00 49.99 1250.00 C 50.01 1000.02 50.00 750.04 50.00 500.06 C 34.76 499.96 19.71 492.66 10.48 480.49 C 4.06 472.34 0.51 462.12 0.00 451.79 L 0.00 397.28 C 0.89 383.45 7.52 370.04 18.36 361.32 C 27.43 353.75 39.27 349.82 51.05 350.01 C 150.70 349.98 250.35 350.01 349.99 350.00 C 350.01 333.33 350.00 316.67 350.00 300.01 C 332.97 299.97 315.95 300.05 298.93 299.97 C 278.04 299.77 258.38 284.98 252.35 265.00 C 250.57 259.51 249.94 253.73 249.99 247.98 C 250.01 184.65 250.00 121.32 250.00 57.99 C 250.02 51.99 249.76 45.92 251.03 40.01 C 253.08 29.79 258.47 20.30 266.13 13.24 C 274.80 5.14 286.42 0.50 298.25 0.00 M 300.00 50.00 C 300.00 116.67 300.00 183.33 300.00 250.00 C 450.02 250.00 600.03 250.01 750.04 249.99 C 750.04 183.33 750.01 116.67 749.99 50.00 C 600.00 50.00 450.00 50.00 300.00 50.00 M 400.01 300.00 C 400.00 316.67 400.00 333.33 400.01 350.00 C 483.34 350.00 566.67 350.00 650.00 350.00 C 650.00 333.33 650.00 316.67 650.00 300.00 C 566.67 300.00 483.34 300.00 400.01 300.00 M 50.00 400.00 C 50.00 416.67 50.00 433.33 50.00 450.00 C 366.68 450.00 683.36 450.01 1000.04 449.99 C 1000.04 433.33 1000.01 416.67 1000.00 400.00 C 683.33 400.00 366.67 400.00 50.00 400.00 M 100.00 500.00 C 100.00 716.67 100.00 933.33 100.00 1150.00 C 200.00 1150.00 300.00 1150.00 400.00 1149.99 C 400.00 1084.01 400.00 1018.02 400.00 952.03 C 399.93 946.06 400.60 940.05 402.52 934.38 C 407.74 918.14 421.86 905.07 438.54 901.37 C 445.20 899.66 452.13 900.04 458.95 900.00 C 506.00 900.02 553.04 899.95 600.09 900.04 C 614.60 899.96 628.93 906.64 638.20 917.81 C 646.02 926.95 650.17 939.00 649.99 951.00 C 650.01 1017.33 649.99 1083.66 650.00 1150.00 C 750.00 1150.00 850.00 1150.00 949.99 1150.00 C 950.00 933.33 950.00 716.67 950.00 500.00 C 666.67 500.00 383.33 500.00 100.00 500.00 M 450.01 950.00 C 450.00 1050.00 450.00 1150.00 450.00 1250.00 C 500.00 1250.00 550.00 1250.00 600.00 1250.00 C 600.00 1150.00 600.00 1050.00 600.00 950.01 C 550.00 949.99 500.00 950.00 450.01 950.00 Z" />
	<path d=" M 425.00 125.01 C 491.67 124.99 558.33 125.00 624.99 125.00 C 625.00 141.67 625.00 158.33 624.99 175.00 C 558.33 175.00 491.67 175.00 425.00 175.00 C 425.00 158.33 425.00 141.67 425.00 125.01 Z" />
	<path d=" M 150.00 600.00 C 216.67 600.00 283.33 600.00 349.99 600.00 C 350.01 666.67 350.00 733.33 350.00 799.99 C 283.33 800.00 216.67 800.00 150.00 800.00 C 150.00 733.33 150.00 666.67 150.00 600.00 M 200.01 650.00 C 200.00 683.33 200.00 716.66 200.00 749.99 C 233.33 750.00 266.66 750.00 300.00 750.00 C 300.00 716.66 300.00 683.33 300.00 650.00 C 266.67 650.00 233.34 650.00 200.01 650.00 Z" />
	<path d=" M 425.01 600.00 C 491.67 600.00 558.33 600.00 625.00 600.00 C 625.00 666.67 625.00 733.33 625.00 800.00 C 558.33 800.00 491.67 800.01 425.00 799.99 C 425.00 733.33 424.99 666.67 425.01 600.00 M 475.01 650.00 C 474.99 683.33 475.00 716.66 475.00 750.00 C 508.33 750.00 541.66 750.00 575.00 750.00 C 575.00 716.67 575.00 683.34 575.00 650.01 C 541.67 649.99 508.34 650.00 475.01 650.00 Z" />
	<path d=" M 700.00 600.01 C 766.67 600.00 833.33 600.00 900.00 600.01 C 900.00 666.67 900.00 733.33 900.00 800.00 C 833.33 800.00 766.67 800.00 700.00 800.00 C 700.00 733.33 700.00 666.67 700.00 600.01 M 750.00 650.00 C 750.00 683.33 750.00 716.66 750.00 750.00 C 783.33 750.00 816.67 750.00 850.00 749.99 C 850.00 716.66 850.00 683.33 849.99 650.00 C 816.66 650.00 783.33 650.00 750.00 650.00 Z" />
	<path d=" M 150.00 900.00 C 216.67 900.00 283.33 900.00 349.99 900.00 C 350.01 966.67 350.00 1033.33 350.00 1099.99 C 283.33 1100.01 216.67 1100.00 150.01 1100.00 C 149.99 1033.33 150.00 966.67 150.00 900.00 M 200.01 950.00 C 200.00 983.33 200.00 1016.66 200.00 1050.00 C 233.33 1050.00 266.67 1050.00 300.00 1050.00 C 300.00 1016.66 300.00 983.33 299.99 950.00 C 266.67 950.00 233.34 950.00 200.01 950.00 Z" />
	<path d=" M 700.00 900.00 C 766.67 900.00 833.33 900.00 900.00 900.00 C 900.00 966.67 900.00 1033.33 900.00 1100.00 C 833.33 1100.00 766.67 1100.00 700.00 1100.00 C 700.00 1033.33 700.00 966.67 700.00 900.00 M 750.00 950.00 C 750.00 983.33 750.00 1016.66 750.00 1050.00 C 783.33 1050.00 816.66 1050.00 850.00 1050.00 C 850.00 1016.66 850.00 983.33 849.99 950.00 C 816.66 950.00 783.33 950.00 750.00 950.00 Z" />
	<path d=" M 525.00 1050.00 C 541.67 1050.00 558.33 1049.99 575.00 1050.01 C 575.00 1083.33 575.00 1116.66 575.00 1150.00 C 558.33 1150.00 541.67 1150.00 525.00 1150.00 C 525.00 1116.66 525.00 1083.33 525.00 1050.00 Z" />
</svg>
