<svg viewBox="0 0 490 490" xmlns="http://www.w3.org/2000/svg">
	<path d=" M 234.47 0.00 L 255.29 0.00 C 285.57 1.59 315.65 8.35 343.35 20.79 C 398.32 44.94 443.60 90.14 467.99 144.99 C 488.74 190.97 494.38 243.45 484.42 292.86 C 476.88 330.26 460.41 365.81 436.73 395.72 C 415.56 422.74 388.55 445.12 358.21 461.14 C 324.92 478.67 287.54 488.47 249.91 489.13 C 201.62 490.40 153.11 476.64 112.56 450.42 C 82.99 431.44 57.60 406.01 38.62 376.45 C 15.17 340.22 1.87 297.67 0.00 254.58 L 0.00 235.39 C 1.19 207.08 7.04 178.90 17.83 152.67 C 42.09 92.51 91.31 42.98 151.33 18.39 C 177.66 7.38 205.99 1.38 234.47 0.00 M 223.50 17.76 C 211.92 18.75 200.45 20.78 189.18 23.59 C 129.86 38.20 77.46 78.07 47.14 131.05 C 14.71 186.47 7.93 255.89 28.47 316.67 C 42.68 359.24 69.83 397.36 105.39 424.73 C 143.85 454.74 192.25 471.73 241.04 472.32 C 283.29 473.05 325.65 461.67 361.80 439.77 C 394.86 419.87 422.77 391.46 442.01 358.00 C 465.32 317.81 475.73 270.31 471.41 224.06 C 467.42 177.73 448.50 132.89 418.36 97.50 C 389.14 62.90 349.41 37.22 305.73 25.15 C 279.09 17.63 251.05 15.24 223.50 17.76 Z" />
	<path d=" M 223.55 51.75 C 240.65 49.83 258.02 50.18 275.01 52.94 C 279.71 53.35 283.52 58.35 282.26 62.99 C 281.49 67.64 276.41 70.67 271.91 69.48 C 220.48 61.28 165.80 77.26 127.01 112.03 C 112.19 125.10 99.67 140.76 89.98 157.97 C 73.67 186.99 65.94 220.71 67.74 253.93 C 69.76 296.44 87.91 337.87 117.71 368.25 C 120.75 370.82 122.95 375.11 121.08 379.01 C 119.13 384.45 111.15 385.96 107.32 381.67 C 85.77 360.27 69.50 333.63 60.13 304.75 C 48.73 269.71 47.56 231.42 56.82 195.75 C 65.49 161.75 83.77 130.31 108.90 105.82 C 139.64 75.66 180.73 56.33 223.55 51.75 Z" />
	<path d=" M 307.30 62.48 C 309.69 61.74 312.15 62.55 314.36 63.46 C 320.49 65.97 326.69 68.36 332.48 71.59 C 336.44 73.81 337.75 79.44 335.22 83.20 C 333.14 86.90 328.17 88.03 324.44 86.31 C 319.87 84.25 315.43 81.89 310.70 80.20 C 307.41 78.87 303.41 77.75 301.89 74.18 C 299.59 69.66 302.50 63.77 307.30 62.48 Z" />
	<path d=" M 356.25 90.33 C 358.92 89.53 362.01 89.96 364.19 91.77 C 387.38 109.91 406.36 133.42 419.18 159.94 C 440.81 204.39 444.40 257.16 429.17 304.17 C 419.83 333.29 403.49 360.20 381.72 381.71 C 377.91 386.08 369.80 384.41 368.02 378.91 C 366.37 375.33 368.02 371.26 370.82 368.82 C 400.50 338.88 418.77 298.00 421.27 255.92 C 423.05 228.50 418.38 200.68 407.66 175.37 C 396.68 149.46 379.40 126.23 357.76 108.24 C 355.03 105.88 351.33 103.87 350.65 99.99 C 349.72 95.92 352.36 91.64 356.25 90.33 Z" />
	<path d=" M 202.37 151.91 C 202.16 143.39 209.32 135.32 217.94 135.03 C 235.29 134.95 252.65 135.04 270.01 134.98 C 285.04 134.80 299.88 142.02 309.22 153.76 C 316.40 162.52 320.35 173.77 320.49 185.07 C 320.55 196.41 320.52 207.74 320.50 219.08 C 320.46 232.29 315.22 245.48 305.76 254.76 C 296.54 264.35 283.33 269.81 270.06 269.85 C 253.12 269.91 236.18 269.82 219.24 269.89 C 219.20 294.92 219.29 319.95 219.20 344.98 C 219.71 350.00 215.24 354.77 210.14 354.14 C 205.52 354.00 202.07 349.54 202.36 345.06 C 202.33 331.25 202.37 317.43 202.35 303.62 C 196.55 303.53 190.75 303.75 184.95 303.54 C 180.64 303.39 176.88 299.32 177.08 295.00 C 177.12 290.77 180.71 286.86 185.03 286.85 C 190.78 286.54 196.56 286.82 202.32 286.74 C 202.38 281.11 202.35 275.49 202.35 269.87 C 196.53 269.78 190.71 270.01 184.90 269.79 C 180.80 269.68 177.25 266.05 177.10 261.97 C 176.66 257.53 180.43 253.17 184.92 253.08 C 190.72 252.85 196.54 253.08 202.35 253.00 C 202.37 219.30 202.33 185.61 202.37 151.91 M 219.24 151.74 C 219.22 185.49 219.24 219.24 219.23 252.99 C 236.49 253.00 253.76 253.02 271.03 252.98 C 287.95 252.73 303.10 238.01 303.53 221.04 C 303.78 209.36 303.60 197.68 303.63 186.00 C 303.73 176.69 299.89 167.38 293.06 161.03 C 286.94 155.07 278.46 151.74 269.94 151.76 C 253.04 151.71 236.14 151.75 219.24 151.74 Z" />
	<path d=" M 233.22 287.28 C 235.10 286.80 237.06 286.76 238.99 286.72 C 253.99 286.74 268.99 286.74 283.99 286.72 C 286.79 286.82 290.04 286.67 292.20 288.80 C 296.18 291.95 296.05 298.89 291.87 301.81 C 289.94 303.34 287.41 303.70 285.02 303.63 C 268.98 303.59 252.94 303.62 236.90 303.61 C 232.85 303.87 228.72 301.16 227.98 297.05 C 226.89 293.05 229.43 288.70 233.22 287.28 Z" />
	<path d=" M 160.35 391.48 C 166.39 389.79 172.56 396.39 170.27 402.29 C 167.63 407.82 164.26 413.00 161.22 418.33 C 159.35 421.94 154.69 423.73 150.90 422.17 C 146.30 420.60 143.92 414.62 146.50 410.40 C 149.19 405.49 152.06 400.68 154.85 395.82 C 155.99 393.69 157.95 391.99 160.35 391.48 Z" />
	<path d=" M 324.46 391.62 C 327.87 390.50 331.93 392.04 333.78 395.10 C 336.18 398.84 338.19 402.80 340.52 406.58 C 342.12 409.41 344.26 412.45 343.55 415.89 C 342.74 420.65 337.38 423.94 332.78 422.36 C 328.78 421.23 327.18 417.07 325.25 413.84 C 323.15 409.86 320.43 406.18 318.80 401.97 C 317.28 397.72 320.18 392.76 324.46 391.62 Z" />
	<path d=" M 198.41 408.51 C 203.68 405.85 210.55 410.15 210.42 416.06 C 209.70 421.53 207.68 426.73 206.46 432.10 C 205.80 435.74 203.81 439.59 199.94 440.55 C 194.30 442.48 187.95 436.74 189.36 430.95 C 190.36 426.26 191.83 421.69 192.98 417.04 C 193.73 413.70 194.93 409.90 198.41 408.51 Z" />
	<path d=" M 284.17 408.27 C 288.23 406.70 293.47 408.75 294.90 412.97 C 296.49 417.54 297.42 422.31 298.77 426.96 C 299.58 429.90 300.69 433.21 299.09 436.11 C 297.05 440.67 290.69 442.39 286.68 439.37 C 283.82 437.53 283.16 433.98 282.33 430.94 C 281.23 426.25 279.68 421.67 278.82 416.93 C 278.23 413.21 280.83 409.63 284.17 408.27 Z" />
	<path d=" M 242.52 413.59 C 247.64 412.10 253.28 416.66 252.98 421.97 C 252.86 428.30 253.40 434.69 252.65 440.97 C 250.92 448.39 239.36 449.05 236.79 441.89 C 235.31 435.76 236.46 429.28 236.10 423.02 C 235.65 418.83 238.41 414.62 242.52 413.59 Z" />
</svg>
