<svg viewBox="0 0 981 982" xmlns="http://www.w3.org/2000/svg">
	<path d=" M 876.45 10.30 C 884.44 4.57 894.01 0.60 903.97 0.69 C 918.18 0.85 932.37 4.39 945.01 10.88 C 956.78 17.23 967.21 26.49 974.00 38.10 C 978.11 45.30 980.87 53.72 979.71 62.09 C 978.46 67.52 976.45 72.73 974.82 78.05 C 952.11 144.99 927.82 211.37 903.89 277.88 C 888.49 320.82 872.66 363.60 857.75 406.71 C 863.16 411.34 869.62 414.48 875.36 418.66 C 902.63 437.98 921.84 467.71 930.02 499.97 C 933.60 516.72 934.10 534.08 932.43 551.11 C 931.50 562.30 927.63 572.91 924.40 583.59 C 914.96 613.35 904.75 642.87 894.14 672.24 C 879.69 713.09 861.17 752.42 840.41 790.42 C 812.00 841.67 778.28 890.31 737.32 932.37 C 723.49 946.25 709.34 959.96 693.56 971.63 C 686.61 976.49 679.02 982.03 670.05 981.26 C 645.97 980.32 622.21 975.83 598.51 971.74 C 572.76 966.80 547.06 961.38 521.87 954.03 C 395.10 917.67 275.98 851.87 181.53 759.37 C 166.22 744.32 151.41 728.74 137.39 712.48 C 131.87 705.94 126.32 699.39 121.66 692.20 C 118.04 686.68 117.94 679.08 121.59 673.55 C 124.41 669.33 128.66 665.77 133.77 664.88 C 141.48 663.43 149.36 663.47 157.15 662.82 C 201.09 660.29 244.52 650.79 285.84 635.73 C 324.22 621.49 361.15 602.66 393.69 577.66 C 424.42 554.05 451.79 526.01 474.38 494.51 C 491.12 471.59 503.36 445.83 515.09 420.10 C 522.76 401.38 533.02 383.58 546.75 368.63 C 561.95 351.87 581.17 338.40 602.86 331.55 C 622.94 325.28 644.52 325.28 665.18 328.35 C 676.60 329.86 687.57 334.27 699.17 334.45 C 717.76 300.75 735.66 266.67 753.81 232.73 C 783.84 176.46 813.75 120.12 844.10 64.02 C 852.63 48.56 860.89 32.93 869.73 17.63 C 871.29 14.64 873.68 12.21 876.45 10.30 M 900.29 40.82 C 853.32 129.40 805.99 217.79 759.54 306.65 C 751.75 322.03 743.36 337.12 736.09 352.76 C 763.94 366.02 792.32 378.14 820.41 390.89 C 825.38 379.08 829.57 366.97 834.04 354.97 C 863.39 274.39 892.85 193.86 921.13 112.91 C 927.07 95.86 933.12 78.84 938.23 61.52 C 938.70 59.34 940.00 56.77 938.29 54.81 C 933.93 49.47 927.63 46.09 921.45 43.28 C 914.80 40.30 907.39 40.78 900.29 40.82 M 619.38 367.62 C 603.47 371.25 589.47 380.73 578.33 392.43 C 573.65 397.45 568.68 402.32 565.01 408.16 C 563.52 410.51 562.69 413.86 564.77 416.15 C 569.08 420.70 574.69 423.73 580.21 426.57 C 588.64 430.64 597.60 433.94 606.98 434.87 C 612.77 435.57 618.88 436.03 624.05 439.01 C 630.19 442.58 632.22 450.02 637.63 454.41 C 650.09 465.56 666.15 471.77 682.07 476.16 C 691.83 479.01 701.97 475.18 711.79 477.21 C 717.47 478.41 721.37 483.15 724.06 487.98 C 732.20 503.18 747.84 512.92 763.96 517.83 C 777.05 522.00 790.76 516.77 804.03 519.10 C 811.58 520.73 814.46 528.68 818.78 534.13 C 828.05 546.60 843.05 553.01 857.83 556.19 C 868.47 558.33 879.14 560.86 890.03 561.22 C 892.64 555.20 893.02 548.54 893.73 542.11 C 895.97 519.24 889.75 495.87 877.31 476.65 C 868.63 463.31 856.84 451.59 842.28 444.84 C 806.71 427.58 770.57 411.56 734.44 395.54 C 715.03 387.26 695.85 378.37 676.02 371.13 C 657.79 365.71 638.11 363.31 619.38 367.62 M 544.14 451.08 C 536.68 467.83 527.65 483.80 518.45 499.63 C 521.88 502.88 525.35 506.08 529.03 509.05 C 537.94 516.46 549.41 520.67 561.00 520.83 C 568.91 521.26 577.00 519.04 584.79 521.15 C 590.99 522.89 594.14 529.04 596.65 534.44 C 601.54 545.51 611.37 553.58 622.00 558.88 C 629.19 562.43 636.92 565.45 645.06 565.48 C 654.40 565.59 663.73 564.17 673.07 564.96 C 679.01 565.15 683.51 569.75 686.93 574.15 C 689.38 577.06 689.04 581.35 691.82 584.09 C 700.61 594.35 711.85 602.60 724.35 607.76 C 728.94 609.75 733.95 610.51 738.92 610.67 C 750.51 610.98 762.10 610.82 773.69 610.88 C 783.18 620.91 791.93 632.10 804.16 638.99 C 821.06 649.27 841.34 650.96 860.66 651.10 C 865.98 635.14 872.15 619.40 875.94 602.98 C 877.33 599.88 873.39 598.75 871.09 598.56 C 860.21 597.88 849.66 594.86 839.25 591.79 C 831.81 589.45 824.34 587.02 817.39 583.45 C 809.72 579.10 802.54 573.91 795.96 568.05 C 792.37 564.95 788.75 561.31 783.89 560.45 C 779.92 559.87 775.88 560.19 771.90 559.64 C 758.46 558.00 745.50 553.51 733.28 547.80 C 721.67 542.44 711.39 534.60 702.48 525.50 C 698.34 521.62 694.32 516.38 688.16 516.14 C 682.23 515.98 676.33 515.20 670.61 513.63 C 656.12 509.76 642.24 503.77 629.10 496.58 C 620.44 491.66 611.74 486.34 605.15 478.74 C 599.87 473.39 591.94 472.71 585.10 470.64 C 570.34 466.73 557.01 459.05 544.14 451.08 M 495.20 533.17 C 493.91 534.55 492.66 535.95 491.50 537.44 C 480.69 551.83 467.57 564.23 454.64 576.67 C 441.50 588.94 428.12 601.00 413.75 611.82 C 364.24 647.57 307.75 673.53 248.51 688.28 C 225.52 694.23 201.99 697.66 178.53 701.17 C 189.13 711.64 199.52 722.30 210.25 732.64 C 224.59 746.39 239.43 759.60 254.69 772.32 C 269.26 784.58 284.59 795.87 299.82 807.28 C 350.77 790.37 402.13 772.12 446.96 741.93 C 450.12 739.93 453.15 737.67 456.65 736.27 C 451.96 746.24 445.38 755.17 439.34 764.35 C 429.98 778.37 419.50 791.64 407.81 803.80 C 393.55 818.83 378.60 833.39 361.52 845.21 C 380.53 856.60 400.67 865.93 420.76 875.25 C 434.96 881.64 449.17 888.07 463.79 893.44 C 470.39 896.01 477.47 893.70 484.11 892.50 C 506.59 887.19 528.24 878.79 549.09 868.94 C 575.10 856.65 599.33 840.77 621.38 822.32 C 647.80 800.47 671.15 775.27 695.47 751.18 C 693.02 755.80 690.57 760.42 688.13 765.05 C 663.31 812.73 634.17 858.85 596.28 897.30 C 587.03 906.04 577.98 915.04 567.98 922.93 C 567.57 923.42 566.75 924.40 566.34 924.89 C 573.90 927.37 581.77 928.68 589.55 930.26 C 615.32 935.28 641.31 939.18 667.40 942.09 C 678.89 934.30 689.13 924.72 699.03 915.00 C 711.75 902.38 724.08 889.36 735.86 875.86 C 749.67 860.01 761.38 842.50 773.18 825.15 C 786.28 805.28 799.33 785.30 810.03 764.02 C 820.78 742.92 831.36 721.74 841.19 700.20 C 842.17 697.59 843.86 695.03 843.67 692.15 C 842.65 690.15 839.97 690.34 838.10 689.85 C 815.30 686.72 792.72 679.40 773.57 666.43 C 768.15 662.92 763.85 658.01 758.56 654.36 C 754.28 651.44 748.92 651.33 743.94 650.93 C 732.35 650.16 720.79 648.11 709.86 644.11 C 694.27 638.54 680.50 628.77 668.98 616.99 C 664.09 612.52 659.35 606.28 652.11 606.15 C 639.06 606.08 626.23 602.81 614.18 597.96 C 599.00 591.65 584.17 583.22 573.22 570.73 C 570.03 567.39 568.27 562.21 563.57 560.67 C 558.74 559.73 553.74 560.38 548.90 559.50 C 536.24 557.49 524.26 552.31 513.38 545.65 C 507.05 541.89 501.46 537.03 495.20 533.17 Z" />
	<path d=" M 15.75 188.82 C 33.62 164.31 66.77 152.88 96.09 160.13 C 111.39 163.77 125.51 172.22 135.93 184.02 C 148.55 198.19 155.75 217.03 155.93 236.00 C 156.10 253.12 150.08 270.13 139.50 283.55 C 122.91 304.84 94.87 317.16 67.96 313.42 C 45.88 310.34 25.31 297.52 12.93 278.96 C 4.94 266.96 0.53 252.70 0.00 238.32 L 0.00 233.60 C 0.59 217.54 6.05 201.66 15.75 188.82 M 67.41 198.70 C 60.33 200.50 54.13 204.83 49.28 210.20 C 34.81 225.17 36.94 252.05 52.73 265.29 C 64.42 275.58 82.44 277.45 96.13 270.12 C 107.61 264.17 115.47 251.94 116.14 239.03 C 116.46 230.89 115.91 221.97 110.46 215.43 C 104.67 208.20 97.75 200.43 88.11 198.91 C 81.35 197.32 74.18 196.92 67.41 198.70 Z" />
	<path d=" M 248.58 217.78 C 257.17 216.66 266.52 217.21 274.02 221.98 C 283.36 227.56 289.98 237.27 292.05 247.92 C 294.10 257.97 292.22 268.86 286.50 277.42 C 280.05 287.27 268.72 293.66 256.97 294.23 C 244.10 294.96 231.06 288.95 223.30 278.65 C 211.66 263.60 214.06 239.87 228.15 227.20 C 233.79 222.06 241.02 218.74 248.58 217.78 Z" />
	<path d=" M 211.58 354.70 C 233.58 352.42 256.07 357.22 275.84 366.96 C 285.20 371.77 293.14 378.87 300.61 386.20 C 307.93 393.71 314.85 401.76 320.01 410.94 C 330.91 431.63 334.83 455.93 330.93 479.00 C 327.70 498.74 318.82 517.52 305.58 532.52 C 294.56 545.14 280.46 554.88 265.10 561.48 C 248.11 568.74 229.17 569.25 211.01 567.97 C 196.61 566.89 183.07 561.20 170.51 554.39 C 160.86 548.45 152.40 540.74 144.74 532.43 C 120.56 506.68 112.35 467.99 121.31 434.14 C 128.15 407.43 145.86 383.73 169.61 369.69 C 182.55 362.27 196.80 356.91 211.58 354.70 M 211.49 394.83 C 197.46 397.68 184.44 405.20 174.89 415.87 C 163.13 428.88 156.65 446.47 156.99 463.99 C 157.20 488.57 172.52 512.04 194.68 522.52 C 209.52 529.77 226.89 531.13 242.91 527.48 C 257.95 523.93 269.90 513.16 279.74 501.76 C 288.02 492.14 291.58 479.38 292.46 466.93 C 293.22 455.14 292.20 442.77 286.60 432.16 C 279.71 418.84 268.51 407.86 255.28 400.86 C 241.96 393.87 226.20 391.80 211.49 394.83 Z" />
</svg>
