<svg viewBox="0 0 755 535" xmlns="http://www.w3.org/2000/svg">
	<path fill="#ed8223" d=" M 29.50 0.84 C 30.37 0.88 32.10 0.97 32.97 1.01 C 217.64 0.99 402.32 1.00 587.00 1.00 C 633.09 0.90 679.19 1.19 725.28 0.86 C 723.21 5.70 718.61 8.49 715.10 12.14 C 707.53 19.89 699.53 27.20 692.16 35.14 C 656.02 71.01 620.07 107.06 584.08 143.07 C 531.75 195.42 479.32 247.67 427.07 300.10 C 420.48 306.58 413.87 313.08 406.36 318.50 C 401.32 322.97 394.66 324.74 388.80 327.85 C 379.47 329.76 369.00 330.43 360.46 325.45 C 357.35 323.90 354.00 322.81 351.19 320.73 C 342.27 314.16 334.25 306.47 326.36 298.70 C 258.14 230.54 189.94 162.36 121.77 94.15 C 104.40 76.54 86.61 59.34 69.28 41.69 C 58.67 30.99 48.00 20.34 37.30 9.73 C 34.19 7.24 31.40 4.36 29.50 0.84 Z" />
	<path fill="#ed8223" d=" M 747.82 36.85 C 749.53 34.79 751.64 33.10 753.93 31.69 C 754.01 188.91 753.92 346.14 753.97 503.36 C 752.06 502.22 750.14 501.01 748.73 499.26 C 744.37 493.99 739.28 489.39 734.51 484.50 C 664.81 414.86 595.18 345.17 525.48 275.53 C 523.35 273.33 520.66 271.52 519.25 268.75 C 518.64 265.29 521.91 263.14 524.05 261.03 C 594.10 191.08 664.07 121.04 734.08 51.05 C 738.73 46.38 743.57 41.90 747.82 36.85 Z" />
	<path fill="#ed8223" d=" M 1.10 33.22 C 2.87 33.89 4.91 34.27 6.22 35.77 C 10.98 41.00 15.82 46.18 20.89 51.12 C 28.91 58.42 35.95 66.71 43.89 74.10 C 51.24 80.75 57.64 88.36 64.95 95.06 C 73.54 103.13 81.32 112.02 89.99 120.00 C 97.40 127.26 104.35 135.00 111.98 142.04 C 117.47 147.21 122.36 152.97 127.91 158.08 C 137.66 166.99 146.23 177.10 155.99 186.00 C 162.83 192.83 169.36 199.97 176.46 206.55 C 182.19 211.82 187.19 217.81 192.86 223.13 C 201.66 230.99 209.14 240.19 217.93 248.07 C 223.41 252.92 227.97 258.70 233.52 263.48 C 234.82 264.93 237.16 266.30 236.65 268.57 C 161.93 343.17 87.29 417.91 12.60 492.57 C 8.83 495.84 6.57 501.57 1.03 502.12 C 1.12 345.82 0.99 189.52 1.10 33.22 Z" />
	<path fill="#ed8223" d=" M 237.08 326.10 C 246.62 316.25 256.71 306.93 265.95 296.80 C 279.50 308.62 291.25 322.37 304.81 334.19 C 317.69 346.52 331.40 358.17 346.88 367.09 C 350.55 368.51 353.80 370.74 357.31 372.46 C 361.83 373.62 366.50 374.10 371.08 375.05 C 378.46 376.51 385.89 374.73 393.16 373.45 C 398.68 372.67 403.07 368.90 408.23 367.08 C 426.82 356.85 441.90 341.67 457.47 327.51 C 466.88 318.24 476.16 308.85 485.56 299.57 C 486.86 298.04 489.39 297.68 490.90 299.10 C 553.45 361.88 616.26 424.42 678.85 487.16 C 693.12 501.20 707.00 515.64 721.53 529.41 C 723.02 530.65 723.41 532.57 723.77 534.39 C 721.48 534.06 719.20 533.87 716.93 533.58 C 714.99 533.08 713.00 532.79 711.02 532.69 C 502.02 532.67 293.00 532.68 83.99 532.68 C 72.00 532.62 60.00 532.80 48.01 532.58 C 45.19 532.51 42.44 533.10 39.68 533.59 C 37.28 533.79 34.91 534.19 32.53 534.59 C 32.44 533.02 32.41 531.47 32.44 529.91 C 34.06 528.71 35.66 527.48 37.07 526.04 C 103.79 459.44 170.35 392.68 237.08 326.10 Z" />
</svg>