<svg viewBox="0 0 980 1033" xmlns="http://www.w3.org/2000/svg">
	<path fill="#ed8223" d=" M 427.05 1.25 C 434.02 0.91 440.99 -0.37 447.95 0.57 C 459.52 0.73 470.22 6.00 479.36 12.73 C 496.39 26.85 507.84 46.32 516.78 66.28 C 518.72 70.98 521.74 75.19 523.11 80.12 C 528.36 79.90 533.57 80.75 538.82 80.72 C 558.61 83.22 578.63 84.65 598.04 89.51 C 605.44 91.02 612.94 92.23 620.13 94.61 C 625.79 96.60 631.81 97.33 637.46 99.38 C 645.97 102.26 654.76 104.29 663.11 107.63 C 671.17 110.53 679.04 113.92 687.10 116.82 C 696.77 120.54 705.89 125.49 715.41 129.53 C 725.34 134.00 734.72 139.55 744.24 144.80 C 750.07 147.38 754.91 151.66 760.72 154.28 C 768.61 158.49 775.52 164.25 783.14 168.90 C 792.20 175.85 802.14 181.61 810.56 189.39 C 818.92 195.65 826.78 202.53 834.30 209.78 C 846.83 220.17 857.43 232.60 869.04 243.97 C 880.31 257.10 891.34 270.45 901.55 284.43 C 909.32 296.11 917.38 307.64 924.06 320.01 C 931.52 332.33 937.31 345.54 943.56 358.49 C 956.50 388.19 967.10 419.06 972.81 451.01 C 974.27 459.51 976.27 467.92 977.28 476.49 C 978.02 481.94 977.80 487.49 978.81 492.91 C 980.35 506.22 979.75 519.64 979.87 533.02 C 980.31 559.17 977.34 585.31 972.20 610.94 C 970.08 623.16 967.33 635.30 963.43 647.08 C 959.56 662.80 953.33 677.80 947.76 692.96 C 946.21 697.39 943.60 701.36 942.08 705.81 C 939.88 712.02 936.73 717.83 933.49 723.56 C 929.75 731.60 925.24 739.24 921.06 747.05 C 909.12 765.23 898.13 784.20 883.65 800.53 C 871.01 816.02 857.46 830.73 842.87 844.40 C 846.75 855.03 853.31 864.47 856.91 875.22 C 860.27 884.16 864.53 892.82 866.67 902.18 C 867.81 907.41 869.25 912.60 869.91 917.93 C 871.52 925.50 870.63 933.27 870.89 940.94 C 871.31 947.02 868.38 952.65 865.60 957.87 C 863.28 961.69 861.52 966.00 858.08 969.00 C 854.94 971.89 852.26 975.28 848.75 977.75 C 843.87 981.21 839.36 985.29 833.91 987.87 C 824.74 992.31 815.84 997.45 806.05 1000.45 C 796.86 1004.60 787.08 1007.19 777.78 1011.07 C 775.63 997.97 774.41 984.71 771.33 971.78 C 766.27 951.18 759.40 931.07 751.53 911.39 C 747.11 902.22 742.47 893.16 737.92 884.06 C 732.43 874.89 727.51 865.36 721.43 856.56 C 718.25 851.52 714.28 847.04 711.15 841.97 C 706.61 834.63 700.37 828.59 695.20 821.73 C 692.42 817.95 688.63 815.10 685.67 811.49 C 680.70 805.13 674.56 799.84 668.99 794.04 C 663.35 789.02 657.50 784.23 651.83 779.25 C 647.33 775.62 643.21 771.45 638.22 768.51 C 641.77 768.20 644.90 766.22 648.23 765.09 C 671.64 755.56 696.47 747.85 722.01 748.67 C 728.84 749.24 735.82 749.34 742.41 751.47 C 746.85 752.93 751.53 753.41 756.06 754.54 C 778.84 760.41 799.14 775.64 811.16 795.88 C 817.55 787.76 825.47 781.05 831.91 772.97 C 835.75 768.13 839.79 763.44 843.62 758.60 C 848.68 750.73 854.67 743.51 859.65 735.58 C 865.26 725.89 871.94 716.80 876.62 706.58 C 879.76 699.46 884.30 693.05 886.65 685.59 C 889.63 680.12 891.54 674.18 894.30 668.61 C 897.21 662.35 898.66 655.57 901.30 649.21 C 905.28 637.40 908.90 625.45 911.22 613.19 C 914.72 599.66 916.97 585.85 918.58 571.98 C 919.02 563.99 920.81 556.09 920.65 548.04 C 920.35 528.69 921.56 509.23 918.94 490.00 C 918.01 484.67 918.13 479.24 917.08 473.93 C 914.28 459.10 911.79 444.14 907.14 429.75 C 903.35 415.33 897.91 401.43 892.27 387.66 C 887.31 376.59 882.75 365.29 876.41 354.91 C 872.53 346.95 867.94 339.36 863.19 331.89 C 861.12 328.05 858.76 324.39 856.06 320.97 C 850.51 312.64 844.75 304.41 838.23 296.80 C 832.21 289.51 826.70 281.73 819.76 275.26 C 812.18 266.86 803.94 259.09 795.98 251.06 C 788.54 245.19 782.10 238.15 774.41 232.58 C 768.51 228.54 763.33 223.58 757.57 219.35 C 737.49 205.38 716.86 192.10 694.99 181.11 C 687.60 178.01 680.78 173.67 673.18 171.08 C 657.84 163.42 641.45 158.29 625.24 152.86 C 618.16 150.86 611.11 148.72 603.99 146.86 C 594.37 144.84 584.78 142.68 575.14 140.75 C 566.50 138.84 557.66 138.13 548.94 136.73 C 546.41 136.26 543.83 136.33 541.27 136.35 C 541.66 142.56 542.73 148.71 543.44 154.89 C 545.99 181.99 539.61 210.42 523.39 232.54 C 514.86 241.64 506.54 251.33 495.62 257.66 C 490.24 261.83 484.17 264.92 478.24 268.21 C 470.94 271.11 464.10 275.02 456.72 277.72 C 450.14 280.70 443.05 282.35 436.56 285.54 C 437.12 275.33 439.03 265.22 439.65 255.02 C 439.14 244.47 440.96 233.94 439.78 223.42 C 439.15 205.75 437.57 187.99 433.35 170.76 C 428.93 150.47 423.11 130.39 414.62 111.39 C 411.67 106.10 409.63 100.39 406.92 94.99 C 398.13 78.62 388.43 62.67 376.85 48.12 C 370.81 38.95 362.38 31.83 355.23 23.62 C 355.20 23.37 355.14 22.88 355.11 22.63 C 363.11 19.43 371.23 16.50 379.27 13.40 C 394.98 8.59 410.61 2.94 427.05 1.25 Z" />
	<path fill="#ed8223" d=" M 232.73 98.74 C 261.42 73.20 293.19 51.08 327.13 33.08 C 332.70 38.80 338.11 44.66 343.58 50.47 C 351.91 60.93 359.95 71.67 366.78 83.19 C 371.81 91.11 375.54 99.74 379.84 108.06 C 386.51 120.60 390.75 134.22 395.47 147.56 C 405.53 180.67 409.00 215.49 408.33 250.00 C 407.58 265.86 405.54 281.63 403.26 297.34 C 398.34 300.07 393.08 302.22 388.52 305.57 C 382.38 309.22 377.81 314.81 372.73 319.73 C 358.83 335.67 353.18 357.21 352.90 378.00 C 353.77 386.67 353.25 395.48 355.03 404.05 C 357.07 416.21 359.78 428.25 362.74 440.21 C 363.88 445.92 365.21 451.59 366.98 457.13 C 370.38 466.72 372.11 476.81 375.71 486.34 C 379.89 497.60 383.06 509.22 387.69 520.30 C 393.65 537.25 401.36 553.50 407.91 570.22 C 414.05 583.76 419.18 597.76 426.07 610.94 C 432.91 625.86 440.62 640.36 447.87 655.09 C 464.21 683.89 480.15 713.16 500.78 739.19 C 511.09 751.22 522.53 762.38 535.60 771.42 C 544.97 777.16 554.97 781.85 565.27 785.67 C 573.15 787.04 581.31 786.97 589.21 785.68 C 595.99 783.73 602.63 781.33 609.40 779.34 C 610.90 778.65 612.06 780.02 613.17 780.80 C 621.11 787.15 628.40 794.25 635.54 801.48 C 645.55 810.45 654.60 820.41 663.30 830.64 C 669.18 836.57 674.12 843.31 679.01 850.06 C 685.91 858.33 691.41 867.60 697.49 876.47 C 709.63 895.44 720.52 915.30 728.79 936.28 C 732.32 943.57 734.78 951.29 737.22 959.01 C 744.42 978.94 748.71 999.80 752.07 1020.69 C 742.75 1021.58 733.77 1024.34 724.51 1025.56 C 719.70 1026.51 714.75 1026.27 709.96 1027.36 C 701.46 1029.12 692.75 1029.18 684.14 1030.09 C 673.10 1030.78 662.08 1032.32 651.00 1031.83 C 648.92 1032.00 646.39 1031.26 644.80 1033.00 L 621.75 1033.00 C 618.74 1031.40 615.30 1031.87 612.05 1031.86 C 603.67 1032.13 595.33 1031.09 586.98 1030.45 C 575.20 1029.86 563.59 1027.50 551.83 1026.81 C 537.57 1012.47 524.32 997.14 510.45 982.41 C 491.66 982.92 472.82 983.40 454.04 981.99 C 446.65 981.93 439.39 980.29 432.00 980.30 C 411.68 977.46 391.25 974.74 371.31 969.72 C 357.31 966.72 343.74 962.11 329.98 958.22 C 320.42 955.41 311.25 951.49 301.82 948.31 C 291.13 943.74 280.52 938.98 269.85 934.38 C 260.47 930.22 251.63 924.97 242.39 920.53 C 235.96 917.43 230.17 913.17 223.71 910.13 C 208.96 900.80 193.99 891.69 180.45 880.62 C 167.91 872.00 156.65 861.74 145.01 851.99 C 135.36 842.30 125.16 833.17 115.86 823.14 C 109.13 815.23 102.45 807.27 95.72 799.36 C 87.92 790.03 81.35 779.76 73.93 770.14 C 66.34 757.91 58.63 745.73 51.97 732.96 C 42.67 715.21 33.45 697.32 26.55 678.47 C 21.40 665.58 17.64 652.19 14.03 638.80 C 6.66 613.81 3.44 587.84 1.19 561.96 C 0.71 549.66 -0.61 537.34 0.54 525.04 C 0.90 518.70 0.23 512.34 1.02 506.03 C 2.72 482.42 6.27 458.94 11.52 435.87 C 19.51 404.07 30.60 373.06 44.45 343.35 C 65.11 301.09 92.56 262.17 125.43 228.52 C 141.34 212.07 158.64 196.92 177.45 183.85 C 178.19 174.20 176.71 164.58 177.12 154.92 C 183.22 148.42 188.97 141.60 194.96 135.00 C 207.32 122.68 219.44 110.08 232.73 98.74 M 169.53 265.52 C 152.10 282.70 136.83 301.96 123.25 322.30 C 114.01 336.67 104.32 350.87 97.69 366.70 C 87.85 386.75 79.86 407.69 73.47 429.08 C 69.64 441.11 67.90 453.63 64.98 465.88 C 63.17 476.01 62.15 486.26 60.54 496.43 C 60.21 504.95 59.01 513.43 59.37 521.98 C 57.78 538.68 59.88 555.39 60.86 572.07 C 61.64 585.30 65.25 598.10 67.25 611.15 C 69.80 621.07 71.82 631.14 75.14 640.86 C 78.79 649.75 81.60 658.97 85.08 667.93 C 89.64 676.63 92.10 686.29 97.15 694.74 C 100.21 700.41 102.58 706.43 106.12 711.83 C 112.83 725.29 121.98 737.30 130.10 749.91 C 133.93 756.24 139.34 761.38 143.59 767.41 C 148.30 773.94 153.70 779.92 159.50 785.49 C 167.32 795.02 176.60 803.14 185.34 811.79 C 192.47 818.00 199.16 824.75 206.90 830.24 C 215.28 836.13 222.77 843.22 231.46 848.68 C 242.09 854.91 251.79 862.68 262.86 868.17 C 280.20 878.84 298.71 887.47 317.47 895.32 C 326.37 898.23 334.70 902.71 343.86 904.89 C 351.85 907.75 360.11 909.72 368.09 912.63 C 392.65 919.05 417.66 924.22 442.99 926.11 C 450.08 927.19 457.27 927.67 464.43 927.65 C 443.81 902.28 425.43 875.20 406.39 848.65 C 395.93 832.12 384.94 815.93 375.18 798.98 C 368.00 786.75 360.52 774.70 353.78 762.22 C 346.33 748.64 338.30 735.38 331.61 721.40 C 319.17 697.63 307.55 673.44 295.65 649.40 C 289.19 634.19 282.55 619.06 276.04 603.88 C 270.40 589.23 264.39 574.73 258.65 560.13 C 252.72 543.43 245.71 527.10 240.75 510.08 C 233.91 489.09 227.68 467.91 221.23 446.80 C 216.29 427.26 210.86 407.84 206.62 388.14 C 202.02 369.34 198.47 350.31 194.50 331.38 C 190.24 305.20 186.42 278.94 183.47 252.58 C 178.43 256.43 173.97 261.00 169.53 265.52 Z" />
</svg>
