<svg viewBox="0 0 1050 1300" xmlns="http://www.w3.org/2000/svg">
	<path fill="#0098dc" d=" M 510.84 0.00 L 538.89 0.00 C 562.20 1.10 585.52 2.76 608.56 6.64 C 689.79 19.57 767.73 52.25 834.07 100.86 C 885.21 138.19 929.54 184.81 964.25 237.77 C 996.98 287.59 1021.13 343.06 1035.17 401.00 C 1044.65 439.72 1049.44 479.54 1050.00 519.38 L 1050.00 533.62 C 1049.05 578.27 1042.82 622.85 1030.68 665.85 C 1010.39 738.57 973.89 806.62 925.00 864.12 C 924.99 985.08 925.01 1106.05 924.99 1227.01 C 925.13 1245.41 917.71 1263.69 904.81 1276.82 C 891.47 1290.69 872.70 1298.92 853.53 1300.00 L 846.51 1300.00 C 837.68 1299.38 828.90 1297.61 820.72 1294.19 C 726.24 1252.40 631.83 1210.46 537.34 1168.70 C 529.64 1165.00 520.40 1164.98 512.69 1168.69 C 418.42 1210.38 324.21 1252.20 229.95 1293.92 C 221.57 1297.54 212.50 1299.19 203.45 1300.00 L 197.53 1300.00 C 182.51 1299.26 167.63 1294.50 155.43 1285.61 C 140.58 1275.18 129.89 1258.94 126.37 1241.12 C 124.37 1231.55 125.16 1221.72 125.00 1212.03 C 125.00 1096.06 125.01 980.10 124.99 864.13 C 75.01 805.37 37.99 735.56 17.98 661.03 C 6.54 618.89 0.68 575.30 0.00 531.67 L 0.00 519.36 C 0.32 500.83 1.36 482.31 3.55 463.91 C 11.88 391.66 35.63 321.26 72.69 258.69 C 113.42 189.65 170.15 130.15 237.13 86.13 C 303.21 42.53 379.33 14.21 457.88 4.28 C 475.44 1.81 493.16 1.01 510.84 0.00 M 511.17 50.23 C 432.93 52.29 355.32 74.24 287.68 113.64 C 223.14 150.90 167.64 203.60 126.96 266.02 C 84.98 330.17 58.94 404.64 52.04 481.00 C 47.20 533.57 51.04 586.96 63.67 638.24 C 82.84 716.78 122.78 790.05 178.03 849.03 C 224.73 899.00 282.24 938.88 345.57 964.74 C 400.77 987.40 460.30 999.36 519.97 999.96 C 574.24 1000.51 628.65 991.83 679.91 973.96 C 756.70 947.56 826.24 900.77 880.11 840.06 C 936.47 776.78 975.54 698.18 991.42 614.91 C 1002.82 555.69 1002.82 494.29 991.43 435.07 C 979.86 374.55 956.15 316.43 922.31 264.95 C 879.85 200.14 821.33 145.92 753.41 108.61 C 679.85 67.81 595.20 47.64 511.17 50.23 M 175.02 915.18 C 174.96 1017.45 175.03 1119.72 174.99 1221.99 C 174.98 1226.47 174.71 1231.15 176.59 1235.35 C 180.58 1244.69 191.01 1250.40 200.99 1249.88 C 208.29 1249.77 214.68 1245.88 221.23 1243.16 C 307.58 1204.83 393.98 1166.63 480.35 1128.34 C 485.59 1126.02 490.81 1123.65 496.11 1121.46 C 511.89 1115.05 529.81 1114.14 546.18 1118.82 C 553.14 1120.76 559.64 1123.98 566.26 1126.83 C 652.82 1165.21 739.43 1203.50 825.98 1241.91 C 830.88 1244.03 835.70 1246.36 840.67 1248.32 C 850.29 1251.93 861.86 1249.41 868.99 1241.99 C 872.87 1238.07 875.07 1232.60 875.00 1227.09 C 874.99 1123.12 875.02 1019.15 874.98 915.18 C 859.08 929.34 842.47 942.72 824.98 954.89 C 824.97 1021.58 824.98 1088.28 824.98 1154.98 C 824.94 1160.65 825.43 1166.61 823.06 1171.94 C 819.13 1181.70 808.56 1188.39 798.03 1187.38 C 793.05 1187.09 788.53 1184.84 784.03 1182.94 C 705.48 1150.17 626.91 1117.45 548.35 1084.71 C 539.54 1080.73 529.80 1078.37 520.11 1079.46 C 509.84 1080.36 500.64 1085.31 491.22 1089.04 C 415.70 1120.52 340.15 1151.95 264.66 1183.49 C 259.46 1185.85 253.88 1187.97 248.06 1187.40 C 235.71 1186.59 225.03 1175.47 225.05 1163.04 C 224.93 1093.65 225.03 1024.26 225.00 954.87 C 207.51 942.73 190.91 929.34 175.02 915.18 Z" />
	<path fill="#0098dc" d=" M 511.17 100.22 C 556.43 98.84 601.96 104.42 645.38 117.34 C 717.41 138.53 783.42 179.51 834.74 234.28 C 881.83 284.34 916.62 345.93 934.79 412.24 C 952.13 475.07 954.62 541.91 942.24 605.90 C 926.21 689.74 883.75 768.13 822.81 827.84 C 793.83 856.34 760.80 880.74 724.95 899.89 C 685.07 921.28 641.72 936.13 597.14 943.84 C 535.62 954.37 471.76 951.36 411.62 934.57 C 349.23 917.36 290.98 885.48 242.71 842.38 C 184.44 790.66 140.68 722.70 118.19 648.07 C 103.38 599.33 97.60 547.90 100.93 497.08 C 104.99 433.16 123.91 370.26 155.76 314.70 C 192.24 250.76 245.59 196.54 308.98 159.10 C 369.94 122.73 440.24 102.39 511.17 100.22 M 514.13 150.15 C 453.97 151.82 394.24 168.20 341.83 197.84 C 284.40 229.99 235.76 277.58 202.24 334.22 C 172.53 384.15 154.78 441.12 150.90 499.09 C 147.63 546.55 153.38 594.63 168.02 639.91 C 191.28 712.38 237.41 777.20 298.01 823.21 C 354.63 866.69 423.96 893.25 495.12 898.80 C 557.47 903.81 621.07 892.95 678.11 867.25 C 721.17 847.89 760.50 820.32 793.44 786.51 C 827.28 751.81 854.37 710.54 872.60 665.62 C 896.31 607.46 904.78 543.26 897.40 480.91 C 889.68 414.20 863.33 349.82 822.28 296.69 C 777.81 238.60 715.97 194.00 646.76 170.26 C 604.25 155.59 559.07 148.91 514.13 150.15 Z" />
	<path fill="#0098dc" d=" M 489.19 325.31 C 496.56 324.86 504.53 324.12 511.28 327.75 C 519.56 331.83 525.07 340.80 524.98 350.03 C 525.03 380.68 524.99 411.32 525.00 441.97 C 525.04 446.02 524.77 450.09 525.36 454.12 C 526.68 462.36 532.43 469.70 540.13 472.93 C 545.37 475.46 551.31 475.00 556.96 475.00 C 596.31 475.01 635.66 474.97 675.00 475.02 C 690.48 474.83 705.70 482.54 714.90 494.94 C 723.27 505.95 726.78 520.50 724.14 534.10 C 714.79 581.08 705.36 628.04 695.98 675.01 C 694.47 682.44 693.37 690.11 689.87 696.94 C 681.68 714.09 663.03 725.54 644.02 725.01 C 578.98 724.96 513.94 725.06 448.91 724.96 C 435.95 724.74 424.70 712.93 425.01 699.99 C 424.98 627.98 425.01 555.98 425.00 483.97 C 424.66 474.84 427.86 466.20 430.76 457.71 C 443.68 419.01 456.54 380.29 469.50 341.60 C 472.44 333.13 480.34 326.65 489.19 325.31 Z" />
	<path fill="#0098dc" d=" M 344.42 475.62 C 350.81 474.20 357.76 475.28 363.29 478.83 C 370.47 483.24 375.02 491.51 374.98 499.93 C 375.03 566.31 374.98 632.70 375.00 699.08 C 375.14 705.01 373.23 710.97 369.49 715.59 C 363.06 723.83 351.16 727.30 341.38 723.45 C 331.74 720.01 324.87 710.22 325.01 699.97 C 324.99 633.31 324.99 566.65 325.02 499.98 C 324.80 488.64 333.32 477.95 344.42 475.62 Z" />
</svg>
