<svg viewBox="0 0 575 700" xmlns="http://www.w3.org/2000/svg">
	<path fill="#0098dc" d=" M 85.35 0.00 L 407.51 0.00 C 423.59 0.89 439.12 8.13 450.09 19.92 C 482.74 52.60 515.42 85.25 548.08 117.92 C 552.67 122.65 557.64 127.05 561.74 132.24 C 569.69 142.23 574.18 154.75 575.00 167.45 L 575.00 614.63 C 574.40 622.30 571.66 629.86 566.78 635.85 C 560.15 644.26 549.76 649.57 539.05 649.95 C 534.37 650.10 529.68 649.95 525.00 650.00 C 524.83 658.51 525.89 667.36 522.66 675.47 C 517.75 689.24 504.19 699.17 489.63 700.00 L 35.44 700.00 C 27.26 699.40 19.22 696.30 13.03 690.86 C 5.37 684.35 0.68 674.65 0.00 664.65 L 0.00 85.38 C 0.80 70.79 10.78 57.24 24.56 52.32 C 32.66 49.11 41.50 50.17 50.00 50.00 C 50.07 44.96 49.84 39.92 50.12 34.89 C 50.99 16.57 67.08 0.84 85.35 0.00 M 76.16 32.24 C 74.51 35.58 75.08 39.41 75.00 43.00 C 75.00 232.67 75.00 422.33 75.00 611.99 C 74.55 619.05 80.99 625.46 88.04 625.01 C 236.00 624.99 383.97 625.00 531.94 625.00 C 535.54 624.91 539.39 625.49 542.75 623.83 C 547.23 621.80 550.22 616.97 550.00 612.05 C 549.99 466.37 550.00 320.68 550.00 175.00 C 512.33 174.99 474.66 175.02 436.99 174.99 C 426.17 174.89 415.53 169.78 408.67 161.41 C 402.98 154.65 399.88 145.81 399.99 136.97 C 400.01 99.65 400.00 62.33 400.00 25.00 C 295.98 25.00 191.96 25.01 87.94 25.00 C 83.02 24.77 78.20 27.77 76.16 32.24 M 425.03 31.23 C 424.97 66.50 425.02 101.77 425.00 137.03 C 424.57 144.05 430.96 150.43 437.97 150.01 C 473.24 149.97 508.52 150.05 543.79 149.96 C 540.74 145.50 536.69 141.91 532.92 138.08 C 501.08 106.24 469.24 74.40 437.39 42.55 C 433.40 38.64 429.67 34.40 425.03 31.23 M 25.00 87.90 C 25.00 279.30 25.00 470.71 25.00 662.11 C 24.80 667.02 27.80 671.82 32.27 673.84 C 35.60 675.50 39.43 674.90 43.02 675.00 C 191.02 675.00 339.03 675.00 487.04 675.00 C 492.80 675.29 498.32 671.09 499.65 665.48 C 500.41 660.37 499.82 655.15 500.00 650.00 C 362.35 649.99 224.69 650.02 87.04 649.99 C 75.21 649.92 63.66 643.79 56.89 634.10 C 52.32 627.69 49.90 619.81 49.99 611.95 C 50.01 432.97 50.00 253.98 50.00 75.00 C 45.31 75.08 40.62 74.82 35.93 75.11 C 29.72 75.73 24.68 81.67 25.00 87.90 Z" />
	<path fill="#0098dc" d=" M 350.10 260.93 C 350.78 254.66 356.72 249.67 363.00 250.00 C 396.00 250.00 429.00 250.00 462.00 250.00 C 469.05 249.60 475.40 255.96 475.00 263.01 C 475.00 296.01 475.00 329.02 475.00 362.02 C 475.31 368.30 470.29 374.23 464.03 374.90 C 457.10 375.94 450.14 370.10 450.05 363.08 C 449.92 339.62 450.05 316.14 449.99 292.67 C 411.22 331.38 372.52 370.16 333.75 408.88 C 329.15 413.66 320.80 413.64 316.21 408.85 C 298.31 390.96 280.41 373.06 262.53 355.16 C 232.76 384.84 203.06 414.58 173.35 444.31 C 170.70 447.31 167.20 449.91 163.04 449.99 C 156.75 450.38 150.78 445.34 150.10 439.08 C 149.59 435.29 150.96 431.33 153.70 428.66 C 186.85 395.49 220.04 362.35 253.18 329.16 C 256.36 325.63 261.56 324.07 266.12 325.54 C 269.77 326.56 272.22 329.60 274.80 332.16 C 291.54 348.88 308.25 365.63 325.00 382.33 C 360.79 346.58 396.57 310.80 432.33 275.01 C 408.84 274.95 385.36 275.08 361.87 274.95 C 354.86 274.83 349.03 267.85 350.10 260.93 Z" />
	<path fill="#0098dc" d=" M 122.19 525.33 C 129.49 523.38 137.45 529.49 137.46 537.05 C 137.53 545.70 137.54 554.36 137.46 563.02 C 137.37 569.51 131.47 575.08 125.02 575.00 C 118.52 575.11 112.57 569.47 112.54 562.92 C 112.44 554.61 112.53 546.29 112.50 537.98 C 112.22 532.14 116.48 526.57 122.19 525.33 Z" />
	<path fill="#0098dc" d=" M 185.13 525.23 C 192.26 523.62 199.82 529.54 199.94 536.84 C 200.04 545.58 200.04 554.33 199.95 563.06 C 199.84 569.34 194.28 574.83 188.02 574.99 C 181.41 575.40 175.16 569.74 175.05 563.09 C 174.93 554.70 175.02 546.31 175.01 537.92 C 174.73 531.95 179.25 526.28 185.13 525.23 Z" />
	<path fill="#0098dc" d=" M 247.23 525.32 C 254.50 523.40 262.42 529.47 262.46 537.00 C 262.56 545.32 262.47 553.65 262.50 561.98 C 262.72 567.27 259.30 572.48 254.27 574.21 C 248.79 576.41 242.00 573.85 239.18 568.70 C 237.58 566.13 237.43 563.02 237.48 560.09 C 237.56 552.40 237.41 544.71 237.54 537.02 C 237.62 531.49 241.86 526.50 247.23 525.32 Z" />
	<path fill="#0098dc" d=" M 310.17 525.22 C 317.30 523.64 324.85 529.59 324.95 536.90 C 325.04 545.62 325.04 554.36 324.95 563.09 C 324.83 569.35 319.28 574.82 313.05 574.98 C 306.43 575.41 300.15 569.75 300.05 563.09 C 299.96 554.37 299.96 545.65 300.05 536.93 C 300.16 531.28 304.65 526.22 310.17 525.22 Z" />
	<path fill="#0098dc" d=" M 372.19 525.33 C 379.47 523.38 387.42 529.46 387.46 536.99 C 387.53 545.65 387.53 554.32 387.46 562.98 C 387.40 569.50 381.45 575.12 374.96 575.00 C 368.51 575.07 362.61 569.50 362.54 563.00 C 362.46 554.36 362.47 545.71 362.54 537.06 C 362.60 531.53 366.82 526.52 372.19 525.33 Z" />
	<path fill="#0098dc" d=" M 435.13 525.23 C 442.29 523.61 449.88 529.60 449.95 536.95 C 450.04 545.65 450.04 554.37 449.95 563.08 C 449.83 569.32 444.33 574.77 438.12 574.98 C 431.50 575.45 425.19 569.82 425.06 563.16 C 424.92 554.76 425.02 546.35 425.01 537.94 C 424.71 531.96 429.24 526.29 435.13 525.23 Z" />
	<path fill="#0098dc" d=" M 497.29 525.30 C 504.59 523.42 512.50 529.57 512.46 537.12 C 512.53 545.71 512.53 554.31 512.46 562.91 C 512.43 569.47 506.46 575.13 499.95 575.00 C 493.46 575.07 487.55 569.43 487.54 562.90 C 487.47 554.26 487.46 545.62 487.54 536.99 C 487.64 531.45 491.90 526.46 497.29 525.30 Z" />
</svg>
