<svg viewBox="0 0 82 65" xmlns="http://www.w3.org/2000/svg">
	<path fill="#0098dc" d=" M 38.72 0.00 L 39.34 0.00 C 44.23 14.39 48.66 28.93 53.23 43.43 C 44.01 34.79 35.38 25.52 26.40 16.63 C 23.53 13.49 19.82 10.97 18.11 6.94 C 24.99 4.67 32.05 2.86 38.72 0.00 M 24.42 9.44 C 31.47 15.76 37.46 23.27 44.81 29.23 C 42.10 21.19 39.73 13.04 36.99 5.01 C 32.82 6.52 28.30 7.25 24.42 9.44 Z" />
	<path fill="#0098dc" d=" M 42.53 0.45 C 49.88 1.95 57.21 3.62 64.43 5.66 C 61.24 17.66 59.04 29.90 55.71 41.85 C 51.35 28.04 47.05 14.21 42.53 0.45 M 48.25 5.93 C 50.95 12.90 52.42 20.32 55.42 27.17 C 56.83 20.95 58.22 14.73 59.79 8.56 C 56.03 7.35 52.18 6.39 48.25 5.93 Z" />
	<path fill="#0098dc" d=" M 66.88 7.30 C 72.04 12.40 76.65 18.02 82.00 22.93 L 82.00 23.17 C 74.05 30.92 66.06 38.63 57.94 46.20 C 60.67 33.18 63.84 20.25 66.88 7.30 M 69.00 15.11 C 67.42 21.50 65.90 27.91 64.60 34.37 C 68.78 30.81 72.61 26.85 76.62 23.10 C 74.07 20.44 71.60 17.71 69.00 15.11 Z" />
	<path fill="#0098dc" d=" M 0.00 25.31 C 5.46 20.21 10.48 14.66 15.88 9.49 C 28.94 22.73 42.00 35.98 55.20 49.08 C 50.16 54.52 44.67 59.53 39.67 65.00 L 39.31 65.00 C 27.84 53.06 16.00 41.45 4.43 29.59 C 3.07 28.15 1.64 26.77 0.00 25.65 L 0.00 25.31 M 5.63 25.61 C 16.97 36.76 28.17 48.05 39.24 59.46 C 43.11 56.38 46.30 52.54 49.87 49.12 C 38.49 37.81 27.20 26.42 15.98 14.95 C 12.43 18.39 8.75 21.76 5.63 25.61 Z" />
	<path fill="#0098dc" d=" M 38.24 46.31 C 40.56 45.20 43.49 47.37 42.91 49.93 C 42.85 52.71 38.87 53.77 37.17 51.79 C 35.61 50.20 36.14 47.16 38.24 46.31 Z" />
</svg>
