<svg viewBox="0 0 58 62" xmlns="http://www.w3.org/2000/svg">
	<path fill="#0098dc" d=" M 30.79 0.00 L 30.80 0.00 C 30.77 3.13 30.87 6.26 30.80 9.38 C 37.94 9.17 45.41 10.44 51.29 14.72 C 54.66 17.03 57.12 20.57 58.00 24.57 L 58.00 37.43 C 53.47 37.46 48.95 37.45 44.42 37.46 C 44.33 33.29 44.66 29.11 44.27 24.95 C 42.19 19.74 35.85 18.41 30.81 18.69 C 30.86 21.82 30.78 24.95 30.82 28.08 C 21.78 23.40 12.72 18.77 3.68 14.08 C 12.74 9.43 21.83 4.83 30.79 0.00 Z" />
	<path fill="#0098dc" d=" M 0.00 24.57 C 4.52 24.54 9.05 24.55 13.57 24.54 C 13.67 28.70 13.34 32.88 13.72 37.02 C 15.77 42.26 22.15 43.59 27.19 43.31 C 27.14 40.18 27.22 37.05 27.18 33.92 C 36.22 38.59 45.28 43.23 54.32 47.92 C 45.26 52.57 36.17 57.18 27.20 62.00 L 27.20 62.00 C 27.21 58.88 27.14 55.75 27.21 52.63 C 20.07 52.80 12.59 51.58 6.71 47.28 C 3.34 44.97 0.90 41.44 0.00 37.45 L 0.00 24.57 Z" />
</svg>
