<svg viewBox="0 0 980 1033" xmlns="http://www.w3.org/2000/svg">
	<path fill="#fff" d=" M 379.29 13.41 C 397.11 7.87 414.99 1.45 433.83 0.73 C 447.60 -0.78 462.36 1.03 473.96 9.14 C 480.45 12.69 485.34 18.28 490.49 23.45 C 502.02 36.41 510.29 51.84 517.38 67.57 C 519.30 71.75 521.73 75.70 523.19 80.08 C 537.54 80.09 551.73 82.32 565.96 83.91 C 578.27 85.20 590.40 87.72 602.47 90.40 C 613.15 92.05 623.29 95.89 633.81 98.24 C 644.30 101.74 655.09 104.35 665.36 108.47 C 679.93 114.06 694.61 119.42 708.56 126.47 C 722.74 132.33 735.87 140.31 749.36 147.54 C 752.70 149.54 755.83 151.90 759.35 153.59 C 766.97 157.34 773.54 162.80 780.69 167.31 C 785.79 170.48 790.30 174.52 795.43 177.67 C 802.50 182.06 808.44 187.96 815.10 192.91 C 821.86 198.09 828.06 203.92 834.28 209.73 C 845.30 218.96 854.94 229.69 864.99 239.94 C 869.56 244.10 873.24 249.08 877.27 253.73 C 896.06 275.51 912.67 299.16 926.54 324.37 C 930.76 331.14 933.85 338.50 937.40 345.62 C 944.19 358.68 949.36 372.47 954.78 386.13 C 965.87 415.45 972.79 446.16 977.36 477.12 C 978.07 488.45 979.88 499.68 979.89 511.05 C 979.73 531.68 980.56 552.38 978.03 572.91 C 976.84 581.62 976.23 590.42 974.43 599.03 C 971.58 614.16 969.11 629.42 964.38 644.12 C 962.40 650.00 961.30 656.14 959.14 661.96 C 954.89 673.67 950.86 685.46 946.08 696.96 C 942.50 703.67 940.50 711.09 936.72 717.70 C 932.63 724.74 929.50 732.27 925.28 739.23 C 921.15 747.80 915.41 755.42 910.47 763.51 C 904.28 773.24 897.83 782.81 890.82 791.97 C 875.84 810.34 860.23 828.23 842.88 844.42 C 846.77 855.03 853.27 864.47 856.92 875.18 C 859.99 883.48 863.91 891.49 866.14 900.08 C 868.09 907.95 869.92 915.87 870.75 923.94 C 871.05 929.28 870.76 934.64 870.90 940.00 C 871.52 949.44 865.73 957.56 861.23 965.36 C 854.56 973.68 846.02 980.27 837.16 986.10 C 830.58 989.67 823.82 992.92 817.08 996.18 C 804.20 1001.69 790.87 1006.05 777.79 1011.06 C 775.51 997.35 774.30 983.44 770.88 969.93 C 765.93 950.25 759.33 931.01 751.85 912.15 C 743.02 893.51 733.56 875.13 722.29 857.84 C 718.71 852.16 714.31 847.06 710.75 841.37 C 706.55 834.73 700.96 829.16 696.17 822.97 C 692.20 817.60 686.84 813.48 682.86 808.12 C 675.76 800.61 668.50 793.20 660.47 786.67 C 653.12 780.69 646.40 773.88 638.46 768.68 C 644.24 767.02 649.65 764.34 655.30 762.32 C 679.32 752.99 705.21 746.31 731.15 749.37 C 737.26 749.66 742.99 751.86 748.93 753.07 C 774.62 757.26 797.91 773.62 811.20 795.92 C 817.19 788.07 824.81 781.72 831.01 774.05 C 836.94 766.64 843.35 759.60 848.42 751.55 C 856.21 741.68 862.42 730.76 869.20 720.21 C 872.67 714.50 875.73 708.57 878.61 702.55 C 880.84 697.59 884.10 693.14 885.75 687.91 C 890.40 677.06 895.84 666.48 899.15 655.09 C 904.26 641.23 908.56 627.03 911.38 612.51 C 916.59 592.39 918.84 571.67 920.60 551.02 C 920.38 529.72 921.70 508.29 918.55 487.14 C 917.44 472.22 914.02 457.61 910.87 443.02 C 900.87 403.54 884.54 365.68 862.83 331.23 C 860.04 325.89 856.10 321.30 852.87 316.24 C 844.82 304.17 835.26 293.22 826.17 281.94 C 816.38 271.37 806.23 261.13 795.93 251.05 C 788.54 245.14 782.08 238.14 774.39 232.59 C 768.16 228.25 762.65 222.98 756.48 218.56 C 739.87 207.25 723.17 195.99 705.36 186.64 C 698.40 182.25 690.65 179.41 683.42 175.53 C 678.33 172.78 672.74 171.17 667.62 168.48 C 660.55 164.84 652.88 162.66 645.54 159.66 C 628.67 153.93 611.71 148.23 594.20 144.77 C 582.82 142.39 571.50 139.61 559.94 138.27 C 553.70 137.58 547.53 136.11 541.23 136.31 C 541.84 145.57 544.09 154.70 543.88 164.02 C 544.50 184.85 539.46 205.99 528.96 224.03 C 523.97 233.30 516.03 240.35 508.73 247.75 C 503.30 253.15 496.57 256.88 490.40 261.32 C 484.57 264.72 478.80 268.30 472.46 270.70 C 463.28 275.20 453.83 279.21 444.12 282.41 C 441.52 283.30 439.01 284.44 436.50 285.52 C 437.20 276.69 438.39 267.90 439.39 259.10 C 439.99 253.38 439.32 247.62 439.79 241.89 C 440.83 230.59 439.42 219.27 439.01 207.98 C 437.84 196.56 436.83 185.07 434.06 173.90 C 429.47 152.54 423.59 131.35 414.61 111.39 C 410.80 104.39 408.32 96.75 404.16 89.93 C 396.33 75.78 387.80 61.95 377.71 49.28 C 373.96 44.08 370.15 38.88 365.44 34.49 C 361.52 30.85 358.29 26.56 354.45 22.85 C 362.72 19.67 371.00 16.52 379.29 13.41 Z" />
	<path fill="#fff" d=" M 234.31 97.36 C 262.56 72.36 293.84 50.78 327.14 33.05 C 331.35 37.13 335.02 41.71 339.23 45.78 C 345.36 51.75 349.95 59.03 355.27 65.68 C 362.53 76.00 369.45 86.64 374.85 98.06 C 378.78 106.21 383.29 114.09 386.47 122.58 C 390.06 131.81 393.35 141.17 396.45 150.58 C 404.50 178.97 408.20 208.49 408.38 237.96 C 408.79 257.91 406.08 277.75 403.20 297.44 C 394.83 301.56 386.29 305.90 379.73 312.68 C 376.89 315.57 373.91 318.33 371.26 321.39 C 356.45 339.95 351.34 364.73 353.49 388.01 C 353.73 402.27 357.38 416.14 360.25 430.03 C 363.09 441.41 365.23 452.97 369.19 464.05 C 373.04 480.34 379.27 495.91 384.39 511.82 C 388.53 522.31 392.09 533.02 396.78 543.29 C 404.59 562.31 412.62 581.23 420.78 600.10 C 429.41 618.35 438.45 636.40 447.54 654.43 C 455.02 667.91 462.73 681.27 470.48 694.61 C 482.29 713.34 493.71 732.66 509.33 748.54 C 516.59 756.70 525.11 763.67 533.83 770.21 C 543.40 776.50 553.86 781.37 564.56 785.39 C 572.39 787.19 580.63 786.92 588.54 785.78 C 595.61 784.09 602.34 781.22 609.37 779.40 C 610.84 778.76 612.00 779.96 613.12 780.73 C 617.83 784.36 622.07 788.55 626.50 792.51 C 636.98 803.03 648.14 812.87 657.77 824.22 C 663.32 831.00 669.74 837.05 674.76 844.28 C 694.04 869.27 710.98 896.18 724.07 924.93 C 728.45 935.68 733.53 946.17 736.69 957.38 C 744.10 977.85 748.67 999.23 752.07 1020.69 C 742.49 1021.63 733.26 1024.45 723.73 1025.69 C 718.89 1026.39 713.99 1026.51 709.19 1027.50 C 700.68 1029.16 691.98 1029.28 683.38 1030.14 C 673.59 1030.73 663.84 1032.15 654.02 1031.85 C 650.81 1031.82 647.43 1031.52 644.47 1033.00 L 622.17 1033.00 C 616.61 1031.09 610.70 1032.13 604.97 1031.83 C 597.28 1031.46 589.64 1030.57 581.96 1030.11 C 571.87 1029.13 561.84 1027.51 551.72 1026.75 C 537.52 1012.35 524.23 997.09 510.40 982.34 C 501.61 982.48 492.83 983.15 484.04 982.86 C 465.65 983.30 447.32 981.50 429.03 979.94 C 410.28 977.18 391.43 974.71 373.01 970.13 C 357.37 966.74 342.16 961.71 326.81 957.24 C 314.61 952.96 302.32 948.84 290.57 943.43 C 278.16 937.94 265.54 932.87 253.64 926.30 C 247.66 922.89 241.26 920.28 235.38 916.69 C 228.76 912.53 221.58 909.33 215.25 904.70 C 202.95 897.33 191.15 889.15 179.91 880.24 C 167.59 871.69 156.45 861.61 145.00 851.97 C 135.34 842.29 125.13 833.16 115.85 823.11 C 109.25 815.42 102.77 807.63 96.19 799.92 C 89.03 791.54 83.09 782.22 76.39 773.48 C 72.39 768.39 69.48 762.58 65.88 757.22 C 55.17 739.77 45.67 721.61 36.98 703.08 C 29.51 687.67 23.60 671.53 18.58 655.17 C 15.17 642.49 11.15 629.95 8.68 617.03 C 4.82 599.56 3.13 581.73 1.32 563.97 C 0.63 550.34 -0.57 536.68 0.60 523.04 C 0.27 512.07 1.41 501.17 2.33 490.26 C 4.79 470.63 7.67 451.01 12.56 431.81 C 17.77 412.33 23.70 393.02 31.24 374.30 C 36.36 361.61 41.37 348.84 47.81 336.75 C 64.69 303.48 85.87 272.36 110.66 244.48 C 130.57 221.83 152.76 201.06 177.51 183.76 C 178.21 174.47 176.59 165.20 177.23 155.92 C 177.19 154.66 178.28 153.84 178.96 152.93 C 184.36 146.99 189.61 140.92 195.00 134.97 C 207.81 122.14 220.45 109.08 234.31 97.36 M 154.52 281.46 C 136.70 301.20 122.09 323.53 108.11 346.06 C 100.94 358.63 95.29 371.97 89.20 385.09 C 80.45 406.77 72.21 428.87 67.99 451.94 C 66.91 457.12 65.71 462.28 64.67 467.47 C 61.94 485.55 59.17 503.71 59.33 522.05 C 58.17 535.52 59.15 549.04 60.22 562.48 C 60.83 575.13 62.35 587.76 65.33 600.08 C 67.51 613.46 70.76 626.66 74.73 639.63 C 78.45 648.96 81.46 658.57 85.11 667.93 C 88.74 675.18 91.30 682.91 94.72 690.26 C 98.80 697.31 101.80 704.93 106.11 711.86 C 113.72 726.71 123.82 740.07 132.89 754.02 C 139.63 761.99 145.66 770.54 152.50 778.42 C 160.89 786.41 167.91 795.73 176.66 803.37 C 187.05 813.30 197.36 823.42 209.05 831.85 C 216.67 837.29 223.52 843.77 231.51 848.70 C 242.12 854.97 251.86 862.67 262.90 868.21 C 280.26 878.83 298.73 887.52 317.50 895.31 C 326.16 898.19 334.30 902.49 343.19 904.71 C 352.04 907.67 361.02 910.18 369.88 913.13 C 383.23 916.28 396.50 919.98 410.13 921.78 C 420.32 923.72 430.61 925.34 440.97 925.88 C 448.73 926.97 456.56 927.68 464.40 927.69 C 452.13 912.14 440.05 896.42 428.81 880.10 C 418.04 864.85 406.72 849.96 397.00 834.00 C 375.26 800.77 355.76 766.15 336.60 731.39 C 331.33 720.48 325.48 709.87 320.18 698.98 C 311.85 682.77 304.13 666.28 295.94 650.00 C 289.44 634.88 282.89 619.78 276.37 604.66 C 270.59 589.78 264.50 575.01 258.67 560.15 C 252.81 543.73 245.95 527.65 241.00 510.92 C 237.15 498.64 233.12 486.41 229.52 474.06 C 214.82 427.30 204.09 379.40 194.51 331.36 C 190.19 305.14 186.47 278.83 183.41 252.44 C 173.07 261.37 163.57 271.25 154.52 281.46 Z" />
</svg>
