<svg viewBox="0 0 680 827" xmlns="http://www.w3.org/2000/svg">
	<path fill="#fff" d=" M 269.92 9.94 C 294.62 1.61 321.12 -1.19 347.04 1.40 C 391.67 5.34 434.25 26.74 464.84 59.34 C 477.91 73.48 489.13 89.41 497.32 106.86 C 497.85 108.06 498.53 109.22 499.71 109.91 C 499.55 110.33 499.24 111.18 499.09 111.61 L 500.44 111.26 C 500.73 114.86 503.15 117.84 503.65 121.42 L 504.50 121.33 C 506.12 129.55 509.44 137.37 511.27 145.57 C 513.77 160.93 516.05 176.43 515.38 192.04 C 513.62 214.13 506.95 235.45 499.47 256.20 C 484.14 297.74 464.12 337.33 443.67 376.54 C 436.94 389.38 429.21 401.64 422.07 414.25 C 411.85 432.21 401.57 450.13 391.01 467.89 C 373.24 497.27 354.95 526.33 336.14 555.05 C 334.08 558.25 331.78 561.33 330.10 564.77 C 329.01 564.72 327.94 564.53 326.92 564.18 C 326.05 561.84 324.60 559.81 323.21 557.77 C 290.00 506.98 258.12 455.31 228.42 402.38 C 221.49 389.66 213.94 377.29 207.66 364.23 C 192.80 336.10 178.78 307.51 166.56 278.14 C 159.42 260.75 152.80 243.09 148.02 224.89 C 145.07 213.50 142.62 201.86 142.37 190.06 C 141.82 168.45 145.24 146.76 152.25 126.32 C 153.21 123.80 154.19 121.27 154.78 118.64 C 164.97 94.41 179.57 71.84 198.55 53.55 C 215.77 36.50 236.58 23.27 258.88 13.89 C 261.56 12.93 264.25 11.99 266.88 10.90 C 267.89 10.58 268.90 10.26 269.92 9.94 M 268.87 86.90 C 248.18 103.01 234.80 127.93 232.45 154.00 C 232.22 160.02 232.20 166.06 232.49 172.08 C 234.80 194.20 244.62 215.76 260.81 231.17 C 274.90 245.73 294.03 255.10 313.99 258.22 C 321.49 259.19 329.13 260.21 336.66 258.91 C 373.84 256.64 408.05 230.10 419.92 194.85 C 422.14 189.16 423.41 183.12 424.47 177.12 C 429.65 144.83 416.75 110.32 391.67 89.35 C 377.02 76.56 358.31 68.68 339.04 66.51 C 332.34 66.19 325.62 66.18 318.92 66.48 C 300.78 68.43 283.13 75.47 268.87 86.90 Z" />
	<path fill="#fff" d=" M 456.01 437.11 C 462.81 424.56 470.20 412.30 476.24 399.36 C 483.22 401.82 489.73 405.41 496.51 408.36 C 516.59 417.51 536.56 426.91 556.55 436.26 C 562.95 439.36 570.08 441.60 575.08 446.94 C 579.79 451.26 582.42 457.25 584.01 463.33 C 614.11 563.15 644.34 662.94 674.45 762.76 C 675.80 767.61 678.94 771.89 679.41 777.01 C 679.77 780.67 679.81 784.41 679.19 788.07 C 677.19 797.84 669.89 806.07 660.86 810.06 C 654.18 813.52 646.36 813.26 639.15 811.96 C 576.45 794.70 513.76 777.36 451.05 760.17 C 439.75 756.86 428.26 754.22 417.04 750.64 C 358.70 775.13 300.28 799.42 241.92 823.86 C 237.76 825.68 233.25 826.38 228.79 827.00 L 33.20 827.00 C 28.23 826.37 23.06 825.94 18.50 823.68 C 11.20 820.38 5.34 814.14 2.50 806.66 C -0.82 798.60 0.19 789.45 3.23 781.48 C 34.31 678.21 65.79 575.06 96.55 471.71 C 99.32 465.03 103.84 458.85 109.94 454.86 C 119.48 449.76 130.58 451.72 140.93 450.74 C 165.60 450.66 190.27 450.75 214.94 450.75 C 221.55 463.00 228.95 474.82 236.08 486.78 C 254.41 517.53 274.14 547.40 293.71 577.37 C 305.17 594.23 316.70 611.05 328.11 627.94 C 331.50 626.59 335.69 626.16 338.06 623.10 C 366.74 581.08 395.28 538.92 421.59 495.36 C 433.33 476.10 445.09 456.85 456.01 437.11 M 483.19 418.99 C 478.20 428.47 472.55 437.63 467.89 447.28 C 492.02 458.35 516.13 469.46 540.13 480.81 C 550.04 515.35 561.12 549.57 570.99 584.12 C 565.89 583.37 560.94 581.89 555.95 580.68 C 517.61 571.13 479.29 561.57 440.94 552.06 C 437.90 551.26 434.86 550.35 431.70 550.17 C 430.47 546.24 431.30 542.05 431.07 538.01 C 430.85 528.21 431.55 518.37 430.63 508.60 C 430.00 509.92 429.41 511.26 428.68 512.53 C 417.10 531.49 405.03 550.14 392.86 568.73 C 386.93 577.51 381.46 586.64 374.97 595.03 C 382.70 591.55 390.68 588.57 398.69 585.81 C 398.79 626.26 398.69 666.71 398.76 707.16 C 358.47 723.90 318.23 740.80 277.97 757.61 C 267.10 761.98 256.44 766.92 245.46 770.98 C 245.43 728.84 245.50 686.69 245.43 644.55 C 265.47 636.79 285.52 629.03 305.63 621.45 C 299.27 612.47 293.16 603.30 287.06 594.14 C 273.14 599.23 259.40 604.82 245.49 609.97 C 245.45 583.55 245.46 557.14 245.51 530.73 C 232.21 509.47 218.93 488.17 206.62 466.31 C 181.07 466.29 155.52 466.29 129.97 466.34 C 125.14 466.48 119.82 466.75 115.97 470.04 C 111.60 473.43 110.27 479.10 109.03 484.20 C 105.23 496.30 101.52 508.42 97.81 520.55 C 72.28 605.41 46.53 690.22 21.06 775.11 C 19.17 781.01 17.36 786.95 15.71 792.93 C 14.03 801.97 21.76 811.36 30.99 811.43 C 96.98 811.51 162.98 811.43 228.98 811.47 C 232.41 811.58 235.62 810.25 238.69 808.87 C 297.76 784.20 356.81 759.48 415.88 734.82 C 419.53 735.02 422.96 736.57 426.52 737.38 C 453.71 744.92 480.85 752.62 508.11 759.94 C 553.05 772.69 598.18 784.81 643.17 797.37 C 652.55 799.83 663.99 793.18 664.65 783.10 C 665.29 778.36 662.46 774.33 660.81 770.16 C 651.47 739.46 642.37 708.70 632.96 678.03 C 611.55 606.67 589.89 535.38 568.43 464.04 C 567.08 459.48 563.58 455.82 559.20 454.02 C 533.76 442.59 508.67 430.33 483.19 418.99 Z" />
	<path fill="#fff" d=" M 137.68 498.50 C 162.94 498.52 188.19 498.63 213.45 498.46 C 213.26 538.21 213.31 577.95 213.42 617.70 C 198.27 617.59 183.14 618.62 167.99 618.55 C 145.74 618.69 123.52 619.49 101.27 619.70 C 111.95 584.80 122.42 549.83 132.91 514.87 C 134.57 509.44 136.38 504.03 137.68 498.50 Z" />
	<path fill="#fff" d=" M 430.53 582.31 C 436.82 583.65 442.98 585.56 449.28 586.87 C 493.36 598.00 537.48 609.01 581.61 619.90 C 583.78 620.77 583.34 623.48 584.08 625.30 C 586.95 634.09 589.21 643.06 592.11 651.85 C 601.48 683.21 610.88 714.56 620.37 745.89 C 621.17 748.88 622.05 751.86 623.24 754.73 C 623.38 755.74 623.66 757.75 623.81 758.76 C 622.81 758.63 620.80 758.37 619.80 758.24 C 610.26 755.17 600.51 752.74 590.83 750.13 C 572.84 744.97 554.75 740.12 536.70 735.13 C 527.00 732.55 517.41 729.56 507.66 727.14 C 488.73 721.74 469.68 716.73 450.73 711.38 C 444.02 709.75 437.48 707.46 430.71 706.13 C 430.50 664.86 430.85 623.58 430.53 582.31 Z" />
	<path fill="#fff" d=" M 151.00 650.64 C 171.84 650.69 192.68 650.22 213.50 649.51 C 213.18 674.33 213.47 699.16 213.37 723.99 C 213.45 742.50 213.22 761.02 213.51 779.53 C 160.08 779.36 106.65 779.37 53.23 779.54 C 61.83 749.82 71.05 720.24 79.86 690.56 C 83.99 677.62 87.44 664.46 91.88 651.63 C 111.59 651.57 131.32 651.72 151.00 650.64 Z" />
</svg>
