<svg viewBox="0 0 1037 219" xmlns="http://www.w3.org/2000/svg">
	<path fill="#fff" opacity="1.00" d=" M 354.45 1.60 C 363.75 -0.49 373.40 0.61 382.44 3.33 C 395.51 7.63 405.71 18.63 410.50 31.36 C 414.59 42.70 415.06 55.07 413.39 66.93 C 411.68 80.21 405.29 93.24 394.42 101.36 C 383.90 109.54 369.97 111.96 356.95 110.62 C 344.72 109.55 332.88 103.56 325.34 93.77 C 314.80 81.19 312.43 63.80 314.09 47.94 C 315.34 33.81 321.62 19.74 332.91 10.82 C 339.07 5.84 346.67 2.85 354.45 1.60 M 359.38 12.54 C 346.82 13.71 336.08 22.78 331.11 34.10 C 326.47 44.70 326.04 56.76 328.03 68.04 C 330.35 81.06 339.19 93.62 352.19 97.62 C 365.68 101.74 382.20 98.67 391.46 87.45 C 399.65 77.67 401.52 64.24 400.89 51.89 C 400.36 40.56 397.04 28.50 388.30 20.71 C 380.64 13.57 369.54 11.30 359.38 12.54 Z" />
	<path fill="#fff" opacity="1.00" d=" M 234.86 2.87 C 238.89 1.92 243.31 2.76 247.49 2.52 C 247.58 18.95 247.40 35.39 247.58 51.82 C 261.88 35.54 275.90 19.00 289.99 2.54 C 295.23 2.48 300.49 2.42 305.74 2.55 C 291.05 19.97 275.25 36.45 260.42 53.76 C 276.74 72.04 292.89 90.47 309.02 108.91 C 303.09 109.07 297.15 109.02 291.22 108.95 C 276.74 91.58 262.00 74.42 247.48 57.09 C 247.53 74.40 247.54 91.71 247.47 109.02 C 243.23 109.01 239.00 109.02 234.76 108.96 C 234.83 73.60 234.63 38.23 234.86 2.87 Z" />
	<path fill="#fff" opacity="1.00" d=" M 537.85 2.91 C 539.00 2.10 540.62 2.64 541.95 2.46 C 565.21 2.52 588.46 2.51 611.72 2.47 C 611.75 6.29 611.74 10.12 611.76 13.94 C 601.52 14.10 591.28 14.02 581.04 13.98 C 580.92 45.64 581.06 77.30 580.98 108.96 C 576.72 109.04 572.47 109.03 568.22 108.96 C 568.26 77.32 568.30 45.67 568.20 14.03 C 558.06 13.99 547.91 14.08 537.77 13.96 C 537.80 10.28 537.56 6.59 537.85 2.91 Z" />
	<path fill="#fff" opacity="1.00" d=" M 741.98 2.38 C 746.08 2.65 750.20 2.28 754.31 2.66 C 754.18 38.09 754.25 73.53 754.27 108.96 C 749.12 109.04 743.98 108.99 738.84 109.00 C 722.14 83.11 705.41 57.22 688.74 31.31 C 686.14 27.21 683.24 23.28 681.26 18.82 C 680.69 23.19 681.28 27.57 681.26 31.95 C 681.25 57.62 681.25 83.29 681.27 108.96 C 677.01 109.02 672.76 109.01 668.52 108.99 C 668.49 73.49 668.48 38.00 668.53 2.50 C 674.02 2.53 679.52 2.36 685.02 2.62 C 703.94 32.48 722.95 62.29 742.09 92.01 C 741.34 69.35 741.95 46.67 741.76 24.01 C 741.89 16.80 741.47 9.57 741.98 2.38 Z" />
	<path fill="#fff" opacity="1.00" d=" M 782.11 2.43 C 800.07 2.52 818.02 2.58 835.97 2.40 C 836.45 6.23 836.26 10.09 836.21 13.94 C 822.39 14.15 808.56 13.92 794.74 14.06 C 794.78 25.79 794.71 37.53 794.77 49.26 C 807.50 49.24 820.22 49.26 832.95 49.24 C 833.03 53.08 833.02 56.91 832.94 60.75 C 820.21 60.75 807.48 60.75 794.76 60.75 C 794.74 72.99 794.74 85.23 794.76 97.48 C 809.40 97.52 824.04 97.48 838.69 97.49 C 838.77 101.30 838.77 105.11 838.74 108.93 C 819.84 109.10 800.93 108.93 782.03 109.02 C 782.01 73.49 781.85 37.96 782.11 2.43 Z" />
	<path fill="#fff" opacity="1.00" d=" M 859.12 2.46 C 864.49 2.52 869.86 2.47 875.24 2.51 C 894.40 32.40 913.35 62.43 932.54 92.30 C 931.69 82.53 932.07 72.72 932.00 62.92 C 932.02 42.78 931.95 22.63 932.03 2.49 C 936.30 2.58 940.59 2.25 944.86 2.72 C 944.61 38.12 944.81 73.53 944.76 108.93 C 939.54 109.05 934.32 109.02 929.10 108.97 C 913.21 84.17 897.16 59.47 881.23 34.70 C 877.80 29.15 873.76 23.93 871.23 17.88 C 871.84 48.25 871.37 78.64 871.49 109.01 C 867.31 109.01 863.13 109.03 858.96 108.94 C 859.13 73.45 858.82 37.95 859.12 2.46 Z" />
	<path fill="#fff" opacity="1.00" d=" M 435.00 2.54 C 440.41 2.43 445.84 2.58 451.26 2.39 C 463.82 21.67 476.05 41.17 488.46 60.54 C 495.20 71.36 502.48 81.85 508.78 92.93 C 507.82 79.97 508.40 66.97 508.25 54.00 C 508.38 36.79 507.99 19.56 508.44 2.37 C 512.63 2.55 516.82 2.47 521.02 2.53 C 520.96 38.01 521.05 73.49 520.97 108.97 C 515.75 108.80 510.44 109.46 505.28 108.69 C 488.68 83.26 472.32 57.65 455.83 32.15 C 452.89 27.45 449.52 22.98 447.38 17.83 C 448.22 48.19 447.48 78.58 447.79 108.96 C 443.53 109.03 439.28 109.04 435.03 108.96 C 434.96 73.49 435.03 38.01 435.00 2.54 Z" />
	<path fill="#fff" opacity="1.00" d=" M 628.00 2.51 C 632.28 2.56 636.58 2.26 640.85 2.71 C 640.65 38.09 640.76 73.49 640.80 108.87 C 636.54 109.10 632.28 109.00 628.03 108.98 C 627.96 73.49 628.01 38.00 628.00 2.51 Z" />
	<path fill="#fff" opacity="1.00" d=" M 961.51 2.53 C 986.16 2.46 1010.81 2.49 1035.46 2.52 C 1035.54 6.33 1035.54 10.15 1035.44 13.97 C 1025.21 14.07 1014.97 14.03 1004.74 13.98 C 1004.75 45.64 1004.75 77.30 1004.74 108.95 C 1000.49 109.03 996.25 109.01 992.01 108.99 C 991.98 77.34 992.01 45.68 991.99 14.03 C 981.84 13.99 971.68 14.04 961.53 13.97 C 961.47 10.16 961.47 6.35 961.51 2.53 Z" />
	<path fill="#fff" opacity="1.00" d=" M 234.76 126.75 C 502.17 126.78 769.59 126.66 1037.00 126.81 L 1037.00 132.23 C 769.58 132.25 502.15 132.26 234.73 132.22 C 234.74 130.40 234.75 128.57 234.76 126.75 Z" />
	<path fill="#fff" opacity="1.00" d=" M 383.10 147.45 C 385.71 147.50 388.33 147.49 390.94 147.40 C 391.83 167.77 390.67 188.24 391.52 208.62 C 400.51 208.35 409.51 208.53 418.50 208.51 C 418.51 210.97 418.53 213.43 418.56 215.90 C 406.71 216.13 394.85 215.95 383.00 215.99 C 383.06 193.15 382.87 170.30 383.10 147.45 Z" />
	<path fill="#fff" opacity="1.00" d=" M 234.75 147.52 C 242.82 147.62 250.94 147.08 258.98 147.97 C 265.61 148.59 272.15 153.30 273.25 160.15 C 275.08 168.26 270.07 177.01 262.12 179.49 C 266.42 180.21 270.73 182.00 273.50 185.50 C 277.32 190.42 277.54 197.27 275.79 203.03 C 273.12 210.79 265.03 215.42 257.11 215.87 C 249.67 216.18 242.22 215.92 234.78 215.99 C 234.73 193.17 234.79 170.34 234.75 147.52 M 243.03 155.04 C 242.97 162.28 242.92 169.52 243.06 176.76 C 246.93 176.71 250.82 176.97 254.66 176.47 C 258.41 175.74 262.44 173.82 263.86 170.01 C 265.62 165.73 265.32 159.71 261.00 157.05 C 255.57 153.94 249.00 155.25 243.03 155.04 M 243.03 184.21 C 242.98 192.29 242.99 200.37 242.98 208.45 C 249.65 208.07 257.02 209.94 263.04 206.23 C 269.79 202.23 270.30 190.63 263.27 186.69 C 257.10 183.21 249.77 184.53 243.03 184.21 Z" />
	<path fill="#fff" opacity="1.00" d=" M 289.50 147.54 C 292.19 147.50 294.88 147.46 297.58 147.40 C 298.06 161.90 297.53 176.42 297.83 190.92 C 298.04 197.57 300.46 205.20 307.00 208.13 C 313.39 210.57 321.43 210.45 326.83 205.84 C 330.88 202.06 331.91 196.19 332.20 190.91 C 332.45 176.40 331.96 161.88 332.43 147.38 C 335.11 147.47 337.80 147.51 340.49 147.52 C 340.54 161.37 340.50 175.21 340.51 189.06 C 340.29 196.61 339.00 204.92 333.43 210.50 C 327.72 216.48 318.77 217.63 310.91 217.00 C 304.43 216.58 297.67 213.75 294.12 208.07 C 290.26 202.51 289.59 195.53 289.48 188.96 C 289.51 175.15 289.47 161.35 289.50 147.54 Z" />
	<path fill="#fff" opacity="1.00" d=" M 357.24 151.01 C 357.28 149.79 357.37 148.58 357.51 147.36 C 360.16 147.47 362.82 147.51 365.48 147.50 C 365.53 170.33 365.50 193.16 365.49 216.00 C 362.74 216.01 359.98 216.00 357.24 215.97 C 357.26 194.31 357.26 172.66 357.24 151.01 Z" />
	<path fill="#fff" opacity="1.00" d=" M 428.72 147.53 C 440.12 147.71 451.78 146.59 462.94 149.49 C 471.58 151.70 479.21 158.22 481.83 166.87 C 484.31 175.33 484.61 184.59 482.09 193.07 C 479.07 203.42 470.11 211.46 459.84 214.30 C 449.72 217.03 439.11 215.67 428.76 215.99 C 428.72 193.17 428.80 170.35 428.72 147.53 M 437.04 155.06 C 436.94 172.86 437.03 190.65 437.00 208.44 C 445.94 208.45 455.70 209.54 463.63 204.49 C 470.92 200.38 474.85 192.03 475.20 183.89 C 475.82 175.13 473.75 165.11 466.12 159.78 C 457.64 153.94 446.80 155.00 437.04 155.06 Z" />
	<path fill="#e97f12" opacity="1.00" d=" M 65.28 146.30 C 108.82 98.62 152.15 50.75 195.72 3.10 C 195.01 44.08 195.95 85.05 196.38 126.01 C 196.29 147.62 192.96 170.36 180.49 188.55 C 170.97 202.68 155.44 211.90 138.97 215.50 C 131.13 217.36 123.06 218.15 115.02 218.26 C 76.70 218.24 38.39 218.27 0.07 218.24 C 21.53 194.02 43.64 170.36 65.28 146.30 Z" />
</svg>
