<svg viewBox="0 0 650 650" xmlns="http://www.w3.org/2000/svg">
	<path fill="#38ae25" d=" M 110.30 0.00 L 117.38 0.00 C 142.84 1.24 167.82 11.18 186.83 28.22 C 201.06 40.80 212.07 57.02 218.39 74.94 C 337.92 75.07 457.45 74.96 576.98 75.00 C 584.66 75.06 592.46 74.60 600.02 76.28 C 617.36 79.71 632.89 90.99 641.64 106.33 C 646.54 114.61 649.13 124.07 650.00 133.61 L 650.00 200.00 C 616.67 200.00 583.34 199.99 550.00 200.01 C 550.00 327.34 550.00 454.67 550.00 582.00 C 550.06 588.06 550.01 594.17 548.70 600.12 C 545.69 615.03 536.91 628.64 524.67 637.67 C 514.86 645.06 502.80 649.22 490.57 650.00 L 58.75 650.00 C 42.73 648.82 27.15 641.59 16.37 629.59 C 6.57 619.02 0.84 604.95 0.00 590.59 L 0.00 525.00 C 33.33 525.00 66.66 525.01 100.00 524.99 C 100.01 466.66 99.99 408.33 100.01 350.00 C 108.34 350.00 116.67 349.99 125.00 350.01 C 125.01 408.34 124.99 466.67 125.01 525.00 C 233.34 525.01 341.66 524.99 449.99 525.00 C 450.05 546.36 449.92 567.71 450.05 589.07 C 450.42 606.22 464.15 621.77 481.07 624.44 C 497.26 627.56 514.65 618.39 521.43 603.42 C 524.56 597.10 525.26 589.95 525.01 583.00 C 524.99 434.64 525.01 286.29 525.00 137.93 C 524.83 124.30 529.61 110.84 537.79 100.00 C 433.29 100.01 328.79 100.00 224.29 100.00 C 227.75 129.47 218.71 160.03 200.01 183.04 C 199.97 222.71 200.04 262.38 199.98 302.04 C 199.96 310.99 194.66 319.64 186.72 323.76 C 178.89 328.00 168.81 327.56 161.40 322.61 C 145.11 311.77 128.84 300.88 112.56 290.02 C 96.19 300.79 79.94 311.78 63.60 322.61 C 56.19 327.55 46.11 328.01 38.28 323.75 C 30.34 319.64 25.02 310.99 25.02 302.04 C 24.97 262.37 25.03 222.71 24.99 183.05 C 9.96 164.55 1.22 141.24 0.00 117.46 L 0.00 107.60 C 1.34 80.02 12.95 53.05 32.50 33.49 C 52.78 12.77 81.30 0.46 110.30 0.00 M 107.15 25.18 C 82.71 26.50 59.23 38.84 44.08 58.03 C 31.25 73.98 24.37 94.57 25.06 115.03 C 25.54 134.97 33.24 154.61 46.33 169.64 C 60.11 185.67 79.88 196.48 100.87 199.19 C 118.41 201.62 136.66 198.45 152.39 190.31 C 169.71 181.46 183.88 166.65 192.00 148.97 C 201.08 129.43 202.47 106.47 195.86 85.97 C 190.38 68.62 179.26 53.13 164.65 42.30 C 148.31 30.01 127.54 23.87 107.15 25.18 M 563.05 109.10 C 554.98 115.94 550.08 126.37 550.01 136.97 C 549.98 149.64 550.01 162.32 550.00 175.00 C 575.00 175.00 600.00 175.00 624.99 175.00 C 624.99 162.33 625.02 149.66 624.98 136.99 C 624.91 128.52 621.80 120.13 616.39 113.62 C 609.52 105.24 598.88 100.06 588.03 100.02 C 578.96 99.82 569.88 103.13 563.05 109.10 M 50.01 205.97 C 49.99 237.86 50.00 269.75 50.00 301.64 C 66.15 290.90 82.24 280.08 98.40 269.36 C 106.45 263.79 117.78 263.58 125.98 268.97 C 142.34 279.84 158.66 290.77 175.02 301.64 C 175.04 269.75 175.02 237.86 175.00 205.97 C 157.61 217.60 136.95 224.35 116.01 224.94 C 92.74 225.75 69.33 218.95 50.01 205.97 M 25.00 550.00 C 25.01 562.68 24.98 575.36 25.01 588.04 C 25.09 597.48 28.97 606.79 35.55 613.54 C 42.63 620.92 52.81 625.19 63.05 625.00 C 187.86 625.00 312.67 625.00 437.48 625.00 C 429.58 614.37 425.04 601.26 425.01 588.00 C 424.98 575.33 425.01 562.67 425.00 550.00 C 291.67 550.00 158.33 550.00 25.00 550.00 Z" />
	<path fill="#38ae25" d=" M 103.42 50.66 C 117.44 48.62 132.16 51.41 144.33 58.70 C 157.25 66.32 167.27 78.75 171.89 93.03 C 176.03 105.60 176.02 119.50 171.85 132.07 C 167.50 145.40 158.45 157.09 146.73 164.76 C 135.92 171.86 122.88 175.51 109.96 174.94 C 95.18 174.38 80.69 168.32 69.90 158.19 C 58.69 147.84 51.52 133.23 50.25 118.02 C 48.84 102.68 53.35 86.89 62.74 74.67 C 72.48 61.77 87.39 52.91 103.42 50.66 Z" />
	<path fill="#38ae25" d=" M 275.00 200.00 C 350.00 200.00 425.00 200.00 500.00 200.01 C 500.00 208.33 500.00 216.66 500.00 225.00 C 425.00 225.00 350.00 225.00 275.00 225.00 C 275.00 216.66 275.00 208.33 275.00 200.00 Z" />
	<path fill="#38ae25" d=" M 275.01 250.00 C 333.34 250.00 391.67 250.00 450.00 250.00 C 450.00 258.33 450.00 266.66 450.00 275.00 C 391.66 275.00 333.33 275.00 275.00 275.00 C 275.00 266.66 274.99 258.33 275.01 250.00 Z" />
	<path fill="#38ae25" d=" M 275.01 300.00 C 316.67 300.00 358.33 300.00 400.00 300.00 C 400.00 308.33 400.00 316.66 400.00 325.00 C 358.33 325.00 316.67 325.00 275.00 325.00 C 275.00 316.66 274.99 308.33 275.01 300.00 Z" />
	<path fill="#38ae25" d=" M 428.47 375.83 C 440.93 373.49 454.23 376.17 464.82 383.14 C 476.74 390.85 485.07 403.87 486.99 417.95 C 489.03 431.78 484.89 446.38 475.83 457.03 C 466.21 468.66 451.11 475.52 436.01 474.98 C 421.40 474.62 407.20 467.39 398.23 455.88 C 389.16 444.58 385.56 429.19 388.50 415.02 C 392.25 395.44 408.81 379.18 428.47 375.83 M 432.43 400.53 C 420.43 402.75 411.35 414.80 412.59 426.96 C 413.29 438.63 423.22 448.77 434.83 449.85 C 446.91 451.39 459.15 442.71 461.79 430.84 C 464.09 421.75 460.66 411.56 453.35 405.69 C 447.64 400.90 439.71 399.01 432.43 400.53 Z" />
	<path fill="#38ae25" d=" M 150.00 400.00 C 158.33 400.00 166.67 400.00 175.00 400.01 C 175.00 416.67 175.00 433.33 174.99 450.00 C 166.66 450.00 158.33 450.00 150.00 450.00 C 150.00 433.33 150.00 416.67 150.00 400.00 Z" />
	<path fill="#38ae25" d=" M 200.00 400.00 C 208.33 399.99 216.66 400.00 225.00 400.00 C 225.00 416.67 225.00 433.33 225.00 450.00 C 216.66 450.00 208.33 450.00 200.01 450.00 C 200.00 433.33 200.00 416.67 200.00 400.00 Z" />
	<path fill="#38ae25" d=" M 250.00 400.00 C 258.33 400.00 266.66 400.00 275.00 400.00 C 275.00 416.67 275.00 433.33 275.00 450.00 C 266.66 450.00 258.33 450.00 250.00 450.00 C 250.00 433.33 250.00 416.67 250.00 400.00 Z" />
	<path fill="#38ae25" d=" M 300.00 400.00 C 308.33 400.00 316.66 400.00 325.00 400.00 C 325.00 416.67 325.00 433.33 325.00 450.00 C 316.66 450.00 308.33 450.00 300.00 450.00 C 300.00 433.33 300.00 416.67 300.00 400.00 Z" />
</svg>
