<svg viewBox="0 0 396 418" xmlns="http://www.w3.org/2000/svg">
	<path fill="#38ae25" d=" M 197.69 0.00 L 199.07 0.00 C 205.59 3.06 209.98 9.03 214.71 14.22 C 220.13 19.52 225.23 25.14 230.85 30.23 C 234.59 33.51 237.05 37.95 240.76 41.27 C 246.24 46.45 251.16 52.17 256.60 57.39 C 259.99 61.14 263.23 65.04 267.00 68.42 C 267.01 65.26 266.99 62.11 266.95 58.95 C 297.29 59.04 327.62 58.66 357.95 59.01 C 358.59 93.03 357.90 127.06 358.01 161.09 C 357.90 162.24 358.20 163.25 358.90 164.13 C 368.68 174.66 379.46 184.23 388.86 195.11 C 391.19 197.72 394.61 199.40 396.00 202.78 L 396.00 262.82 C 394.47 263.72 392.78 264.26 391.12 264.84 C 384.40 264.36 377.68 264.71 370.97 265.04 C 371.19 282.36 371.56 299.68 371.13 317.01 C 371.30 348.04 371.09 379.07 370.95 410.09 C 370.58 413.76 367.47 416.61 364.23 418.00 L 30.68 418.00 C 27.80 416.28 24.52 413.82 25.00 410.01 C 25.00 361.67 24.93 313.33 25.00 264.99 C 20.29 264.74 15.57 264.66 10.86 264.92 C 10.57 264.79 9.99 264.51 9.70 264.38 C 7.90 265.04 6.04 264.94 4.26 264.31 C 4.13 264.43 3.86 264.67 3.73 264.80 C 2.49 264.41 1.25 264.03 0.00 263.67 L 0.00 201.50 C 3.67 198.00 7.10 194.27 10.39 190.41 C 19.52 181.19 28.40 171.73 37.45 162.42 C 45.96 152.95 55.65 144.58 64.00 134.96 C 71.42 127.41 78.61 119.63 86.25 112.28 C 96.68 100.10 108.82 89.48 119.44 77.45 C 128.34 67.73 138.26 58.98 146.82 48.94 C 154.29 41.03 162.17 33.52 169.72 25.68 C 173.04 21.40 177.26 17.96 180.76 13.85 C 184.61 9.32 189.15 5.45 193.34 1.25 C 194.79 0.83 196.24 0.40 197.69 0.00 M 196.63 35.23 C 190.45 42.49 183.40 48.93 176.77 55.77 C 166.78 68.01 154.39 78.08 144.37 90.31 C 134.14 101.12 123.45 111.48 113.41 122.47 C 98.98 136.67 85.10 151.41 70.80 165.73 C 66.14 170.11 62.38 175.32 57.73 179.72 C 46.40 190.51 36.19 202.39 25.08 213.40 C 25.00 221.58 25.02 229.76 25.02 237.94 C 33.34 238.12 41.67 237.83 49.98 238.06 C 51.84 239.20 50.64 242.12 50.99 243.97 C 51.10 293.28 50.89 342.60 51.14 391.91 C 84.80 392.06 118.45 391.99 152.10 391.95 C 151.91 353.64 152.11 315.32 152.01 277.00 C 182.34 276.91 212.68 277.01 243.01 277.01 C 242.42 290.70 243.87 304.36 243.51 318.05 C 242.60 342.68 243.08 367.33 243.01 391.98 C 276.69 392.09 310.36 391.83 344.03 391.98 C 343.95 341.29 344.04 290.60 343.99 239.91 C 343.75 238.24 345.64 237.75 346.93 237.95 C 354.60 238.01 362.28 238.01 369.96 237.95 C 369.84 230.00 370.34 222.01 369.73 214.08 C 367.66 210.65 364.28 208.26 361.98 205.00 C 360.29 202.33 357.08 201.22 355.43 198.53 C 351.63 194.02 346.98 190.33 342.55 186.47 C 339.19 183.70 337.67 179.42 334.47 176.51 C 327.50 168.23 319.07 161.33 312.07 153.08 C 310.58 151.16 308.45 149.90 306.79 148.15 C 300.55 140.17 292.62 133.69 285.89 126.14 C 284.33 124.02 282.76 121.81 280.35 120.58 C 276.93 114.65 269.90 112.59 265.95 107.12 C 257.71 95.85 247.68 86.08 237.76 76.31 C 235.12 73.87 233.58 70.35 230.35 68.57 C 229.38 67.27 228.40 65.97 227.27 64.81 C 220.07 57.64 212.85 50.46 206.29 42.71 C 203.33 40.46 200.88 37.69 198.57 34.79 C 198.08 34.90 197.11 35.12 196.63 35.23 M 294.05 85.48 C 293.92 93.96 293.96 102.45 294.06 110.93 C 307.01 123.09 319.20 136.03 331.98 148.35 C 332.01 127.24 331.95 106.12 332.01 85.00 C 319.35 85.10 306.69 84.75 294.05 85.48 M 204.01 328.04 C 204.02 336.38 204.03 344.71 204.00 353.04 C 208.00 353.02 212.00 352.93 216.01 352.96 C 216.08 344.67 215.99 336.37 215.94 328.08 C 211.96 328.04 207.98 328.04 204.01 328.04 Z" />
	<path fill="#38ae25" d=" M 152.01 149.00 C 165.31 149.02 178.62 148.85 191.92 149.10 C 191.59 150.73 190.84 152.32 191.15 154.02 C 192.19 160.63 191.87 167.39 191.15 174.01 C 192.01 178.62 191.71 183.30 191.75 187.96 C 178.51 187.98 165.27 187.92 152.03 187.98 C 152.07 174.99 151.98 162.00 152.01 149.00 Z" />
	<path fill="#38ae25" d=" M 203.24 149.01 C 216.49 148.98 229.73 148.94 242.98 149.02 C 242.94 161.98 243.04 174.94 242.90 187.91 C 229.65 187.98 216.40 188.10 203.15 187.94 C 204.01 180.64 202.81 173.32 203.29 166.00 C 203.77 160.34 203.00 154.68 203.24 149.01 Z" />
	<path fill="#38ae25" d=" M 152.02 200.01 C 165.30 199.93 178.58 200.02 191.85 199.95 C 191.25 201.23 190.91 202.60 191.02 204.02 C 191.14 213.37 191.03 222.71 191.07 232.06 C 191.14 234.40 190.68 236.90 191.86 239.05 C 178.58 238.99 165.30 238.99 152.02 238.99 C 152.12 225.99 151.89 213.00 152.02 200.01 Z" />
	<path fill="#38ae25" d=" M 203.86 199.93 C 216.92 200.14 229.98 199.83 243.04 200.09 C 242.85 207.05 242.96 214.02 243.22 220.98 C 242.94 226.98 242.94 232.99 242.97 238.99 C 237.62 239.06 232.27 238.82 226.93 239.24 C 219.18 239.91 211.44 238.61 203.69 239.10 C 202.39 231.79 203.98 224.36 203.30 217.01 C 203.17 211.31 203.01 205.58 203.86 199.93 Z" />
</svg>
