<svg viewBox="0 0 1300 1100" xmlns="http://www.w3.org/2000/svg">
	<path fill="#0098dc" d=" M 121.34 0.00 L 953.61 0.00 C 986.33 0.95 1018.45 15.25 1040.77 39.24 C 1062.38 61.79 1074.84 92.75 1074.97 123.98 C 1075.03 157.65 1074.98 191.32 1075.00 225.00 C 1058.33 225.00 1041.67 225.00 1025.00 225.00 C 1024.99 194.33 1025.00 163.67 1025.00 133.00 C 1024.97 127.31 1025.25 121.60 1024.45 115.94 C 1022.53 99.67 1014.99 84.14 1003.45 72.52 C 990.10 58.70 971.22 50.47 952.02 50.00 C 677.03 49.99 402.03 50.02 127.03 49.98 C 108.83 49.48 90.56 55.88 76.70 67.69 C 60.51 81.25 50.45 101.84 50.01 122.98 C 49.99 325.01 50.00 527.04 50.00 729.07 C 50.32 741.21 48.98 753.53 51.62 765.50 C 55.50 784.30 67.07 801.29 82.95 812.03 C 94.68 820.08 108.76 824.59 122.98 825.00 C 223.65 825.01 324.32 824.99 425.00 825.00 C 425.00 841.67 425.00 858.33 425.00 875.00 C 333.01 875.00 241.02 875.00 149.03 875.00 C 136.30 874.79 123.51 875.59 110.83 874.16 C 74.87 870.32 41.30 849.67 21.29 819.61 C 8.03 800.26 0.85 777.02 0.00 753.63 L 0.00 121.33 C 0.97 88.62 15.24 56.49 39.26 34.21 C 61.14 13.14 91.04 0.95 121.34 0.00 Z" />
	<path fill="#0098dc" d=" M 150.00 150.00 C 266.67 150.00 383.33 150.00 500.00 150.00 C 500.00 166.67 500.00 183.33 500.00 200.00 C 383.33 200.00 266.67 200.00 150.00 200.00 C 150.00 183.33 150.00 166.67 150.00 150.00 Z" />
	<path fill="#0098dc" d=" M 644.51 150.63 C 646.64 150.13 648.84 150.00 651.03 149.99 C 734.01 150.02 817.00 149.99 899.98 150.00 C 910.29 149.94 920.21 156.84 923.51 166.66 C 924.91 170.25 925.05 174.16 925.02 177.97 C 924.95 210.65 925.08 243.33 924.95 276.00 C 924.70 289.00 912.95 300.26 899.96 299.99 C 816.97 300.02 733.98 299.98 651.00 300.01 C 641.50 300.33 631.93 294.93 627.79 286.30 C 625.96 282.81 625.02 278.90 625.01 274.97 C 624.98 242.96 625.02 210.95 624.99 178.94 C 624.81 173.75 625.22 168.36 627.76 163.72 C 630.95 157.06 637.39 152.32 644.51 150.63 Z" />
	<path fill="#0098dc" d=" M 150.00 250.00 C 266.67 250.00 383.33 250.00 500.00 250.00 C 500.00 266.67 500.00 283.33 500.00 300.00 C 383.33 300.00 266.67 300.00 150.00 300.00 C 150.00 283.33 150.00 266.67 150.00 250.00 Z" />
	<path fill="#0098dc" d=" M 1093.38 288.31 C 1102.50 280.95 1114.21 276.73 1125.96 277.04 C 1147.86 277.29 1168.51 293.47 1173.46 314.90 C 1175.36 321.76 1174.98 328.95 1175.00 336.00 C 1175.00 391.40 1174.99 446.81 1175.00 502.21 C 1191.53 505.16 1207.64 510.64 1222.31 518.84 C 1251.37 534.78 1274.89 560.64 1287.88 591.15 C 1295.28 607.94 1299.01 626.15 1300.00 644.43 L 1300.00 657.16 C 1298.71 674.67 1295.20 692.12 1288.14 708.26 C 1274.88 739.73 1250.44 766.32 1220.24 782.26 C 1206.12 789.85 1190.75 794.95 1175.00 797.81 C 1175.01 853.87 1174.99 909.92 1175.00 965.98 C 1175.14 973.58 1175.02 981.34 1172.46 988.59 C 1167.15 1005.32 1152.24 1018.41 1135.07 1021.83 C 1124.09 1024.27 1112.35 1022.60 1102.36 1017.50 C 1096.77 1014.75 1092.06 1010.62 1087.22 1006.78 C 1026.49 958.19 965.73 909.63 905.01 861.03 C 900.54 857.37 895.84 853.99 891.64 850.02 C 861.09 849.98 830.55 850.01 800.00 850.00 C 799.99 893.69 800.00 937.38 800.00 981.07 C 799.85 993.55 800.70 1006.16 798.25 1018.48 C 792.17 1052.12 767.48 1081.57 735.44 1093.46 C 725.29 1097.38 714.48 1099.39 703.64 1100.00 L 696.39 1100.00 C 688.65 1099.50 680.92 1098.49 673.44 1096.37 C 643.62 1088.36 618.33 1065.57 607.06 1036.84 C 602.15 1024.51 599.82 1011.20 600.00 997.94 C 600.00 948.63 600.00 899.32 600.00 850.01 C 585.52 849.91 571.03 847.48 557.44 842.49 C 527.81 831.86 502.70 809.47 488.49 781.41 C 479.60 764.03 475.08 744.51 474.98 725.00 C 458.33 724.98 441.68 725.02 425.04 724.99 C 411.94 724.97 398.90 719.63 389.73 710.26 C 380.35 701.10 375.04 688.06 375.01 674.98 C 374.98 658.64 375.01 642.31 375.00 625.97 C 374.32 604.05 389.75 582.97 410.88 577.08 C 416.42 575.38 422.24 574.90 428.01 574.99 C 443.66 575.01 459.31 574.99 474.97 575.00 C 475.03 547.48 484.28 520.04 501.31 498.39 C 524.09 468.80 560.58 450.35 597.97 450.03 C 695.85 449.94 793.72 450.05 891.60 449.98 C 907.09 436.93 923.19 424.61 938.92 411.84 C 990.41 370.66 1041.89 329.48 1093.38 288.31 M 1074.98 367.12 C 1075.02 461.41 1074.99 555.70 1075.00 650.00 C 1058.33 650.00 1041.67 650.00 1025.00 650.00 C 1024.99 569.02 1025.01 488.04 1024.99 407.06 C 991.64 433.70 958.29 460.34 924.99 487.04 C 925.01 595.69 925.01 704.33 924.99 812.97 C 991.69 866.30 1058.34 919.72 1125.10 972.97 C 1125.06 757.68 1125.00 542.40 1125.01 327.11 C 1108.33 340.43 1091.63 353.75 1074.98 367.12 M 547.02 522.03 C 533.45 535.36 525.46 554.07 525.00 573.08 C 525.00 624.37 525.00 675.66 525.00 726.95 C 525.46 745.00 532.68 762.80 545.08 775.94 C 556.94 788.85 573.48 797.38 590.90 799.43 C 596.58 800.28 602.33 799.94 608.05 800.00 C 697.03 800.00 786.01 800.00 875.00 800.00 C 875.00 700.00 875.00 600.00 875.00 500.00 C 782.66 500.00 690.32 500.01 597.98 500.00 C 579.00 500.48 560.34 508.50 547.02 522.03 M 1175.01 553.54 C 1175.00 617.84 1174.99 682.15 1175.01 746.45 C 1204.83 738.86 1230.60 716.70 1242.31 688.22 C 1251.47 666.72 1252.42 641.95 1245.31 619.72 C 1235.15 587.59 1207.65 561.78 1175.01 553.54 M 425.00 625.00 C 425.00 641.67 425.00 658.33 425.00 675.00 C 441.67 675.00 458.33 675.00 475.00 675.00 C 475.00 658.33 475.00 641.67 475.00 625.00 C 458.33 625.00 441.67 625.00 425.00 625.00 M 650.00 850.00 C 650.00 894.32 650.00 938.64 650.00 982.97 C 650.29 992.26 649.14 1001.70 651.21 1010.86 C 655.29 1030.07 671.67 1045.85 691.04 1049.16 C 711.19 1053.21 733.05 1042.96 743.17 1025.14 C 748.11 1016.68 750.44 1006.79 750.01 997.02 C 749.98 948.01 750.01 899.01 750.00 850.00 C 716.66 850.00 683.33 850.00 650.00 850.00 Z" />
	<path fill="#0098dc" d=" M 150.00 350.00 C 233.33 350.00 316.67 350.00 400.00 350.00 C 400.00 366.67 400.00 383.33 400.00 400.00 C 316.67 400.00 233.33 400.00 150.00 400.00 C 150.00 383.33 150.00 366.67 150.00 350.00 Z" />
	<path fill="#0098dc" d=" M 150.00 450.00 C 216.67 450.00 283.33 450.00 350.00 450.00 C 350.00 466.67 350.00 483.33 350.00 500.00 C 283.33 500.00 216.67 500.00 150.00 500.00 C 150.00 483.33 150.00 466.67 150.00 450.00 Z" />
	<path fill="#0098dc" d=" M 578.53 581.67 C 585.50 563.67 603.61 550.64 622.96 550.07 C 640.30 549.90 657.65 550.04 675.00 550.00 C 675.00 566.67 675.00 583.33 675.00 600.00 C 658.33 600.01 641.67 599.99 625.00 600.00 C 624.99 616.67 625.01 633.33 625.00 650.00 C 608.33 650.00 591.67 650.00 575.00 650.00 C 574.99 633.65 575.00 617.30 575.00 600.95 C 574.94 594.37 576.11 587.79 578.53 581.67 Z" />
</svg>
