<svg viewBox="0 0 126 198" xmlns="http://www.w3.org/2000/svg">
	<path fill="#0098dc" d=" M 9.41 1.63 C 11.53 0.91 13.80 0.91 16.01 0.88 C 45.35 0.96 74.69 0.85 104.03 0.93 C 110.98 0.69 117.19 6.98 116.92 13.92 C 116.95 43.97 116.91 74.02 116.94 104.07 C 116.85 105.31 117.00 106.91 115.75 107.67 C 113.93 109.19 110.95 107.43 111.30 105.11 C 111.16 74.73 111.33 44.34 111.22 13.96 C 111.46 10.00 107.92 6.41 103.95 6.62 C 73.98 6.56 44.00 6.59 14.03 6.61 C 9.95 6.31 6.25 9.95 6.53 14.05 C 6.48 56.36 6.52 98.67 6.51 140.98 C 6.06 145.17 9.65 149.18 13.92 148.90 C 27.95 149.00 41.98 148.83 56.01 148.96 C 58.17 148.59 60.09 150.84 59.18 152.90 C 58.29 154.98 55.76 154.55 53.95 154.63 C 40.36 154.54 26.77 154.69 13.18 154.57 C 6.58 154.51 0.75 148.57 0.86 141.96 C 0.79 99.31 0.83 56.66 0.84 14.01 C 0.66 8.59 4.29 3.38 9.41 1.63 Z" />
	<path fill="#0098dc" d=" M 24.09 27.14 C 46.72 26.72 69.39 27.04 92.03 26.98 C 95.03 25.99 96.15 31.06 93.01 31.13 C 70.33 31.29 47.64 31.26 24.96 31.15 C 22.70 31.43 21.94 27.86 24.09 27.14 Z" />
	<path fill="#0098dc" d=" M 23.39 46.34 C 24.67 45.34 26.48 45.87 27.98 45.69 C 49.35 45.78 70.71 45.66 92.07 45.75 C 93.82 45.28 95.55 47.01 94.79 48.74 C 94.13 50.25 92.33 49.89 91.02 50.00 C 69.32 49.96 47.62 50.00 25.92 49.98 C 23.81 50.53 21.68 48.14 23.39 46.34 Z" />
	<path fill="#0098dc" d=" M 23.29 65.23 C 24.53 64.05 26.46 64.67 28.00 64.47 C 46.65 64.53 65.30 64.48 83.96 64.50 C 87.28 64.55 90.65 64.25 93.95 64.75 C 96.12 66.11 94.46 69.36 92.08 68.74 C 69.73 68.73 47.38 68.82 25.03 68.69 C 23.22 68.91 22.06 66.59 23.29 65.23 Z" />
	<path fill="#0098dc" d=" M 24.35 83.42 C 46.21 83.03 68.11 83.42 89.99 83.24 C 91.72 83.36 94.44 82.75 94.98 85.05 C 95.21 86.78 93.54 87.73 92.02 87.52 C 69.71 87.50 47.39 87.60 25.07 87.47 C 22.63 87.88 21.87 83.80 24.35 83.42 Z" />
	<path fill="#0098dc" d=" M 24.22 102.20 C 35.15 101.81 46.12 102.18 57.07 102.02 C 58.51 101.99 61.12 101.98 60.95 104.08 C 61.31 105.71 59.38 106.51 58.05 106.28 C 47.01 106.29 35.95 106.38 24.91 106.23 C 22.62 106.52 21.96 102.73 24.22 102.20 Z" />
	<path fill="#0098dc" d=" M 90.33 108.35 C 93.49 106.11 96.57 109.27 99.15 110.87 C 102.24 113.28 106.55 111.29 109.83 113.12 C 112.12 115.22 112.06 118.71 113.76 121.21 C 115.52 123.15 117.99 124.30 119.68 126.31 C 121.26 128.70 119.57 131.49 119.13 133.97 C 117.72 137.72 120.56 141.28 120.32 145.02 C 119.68 147.55 117.01 148.64 115.22 150.25 C 112.13 152.30 112.50 156.56 110.31 159.26 C 108.40 161.06 105.51 160.34 103.13 160.65 C 99.10 160.54 96.75 164.80 92.91 165.27 C 90.33 165.14 88.47 163.05 86.33 161.85 C 83.18 159.44 78.69 161.71 75.53 159.46 C 73.65 157.37 73.49 154.34 72.12 151.96 C 70.31 149.45 66.88 148.46 65.49 145.62 C 64.58 141.73 68.04 138.01 66.54 134.09 C 66.11 131.71 64.60 129.19 65.67 126.79 C 67.23 124.34 70.20 123.28 72.01 121.05 C 73.25 118.81 73.67 116.21 74.96 113.99 C 76.56 111.77 79.63 112.44 81.97 112.18 C 85.31 112.46 87.65 109.83 90.33 108.35 M 90.34 117.47 C 82.32 118.39 75.38 124.96 74.04 132.92 C 72.60 140.13 75.83 147.95 81.89 152.08 C 87.91 156.37 96.47 156.65 102.74 152.73 C 109.12 148.95 112.83 141.23 111.75 133.88 C 110.67 123.75 100.41 115.88 90.34 117.47 Z" />
	<path fill="#0098dc" d=" M 89.16 120.15 C 98.27 117.82 108.24 124.72 109.30 134.04 C 110.91 143.23 103.35 152.60 94.05 153.01 C 85.29 153.91 76.82 146.70 76.24 137.93 C 75.31 129.86 81.21 121.78 89.16 120.15 Z" />
	<path fill="#0098dc" d=" M 113.71 158.93 C 117.50 169.60 121.35 180.24 125.18 190.89 C 121.25 189.01 117.33 187.13 113.41 185.25 C 111.58 189.19 109.77 193.14 107.93 197.09 C 104.28 186.85 100.54 176.64 96.94 166.39 C 98.44 165.38 99.87 164.23 101.51 163.46 C 104.17 162.68 107.04 163.30 109.70 162.51 C 111.49 161.95 112.57 160.29 113.71 158.93 Z" />
	<path fill="#0098dc" d=" M 71.89 158.99 C 73.68 161.77 76.65 163.36 79.98 163.00 C 83.39 162.54 86.20 164.44 88.72 166.46 C 84.96 176.63 81.52 186.92 77.61 197.02 C 75.87 193.07 74.04 189.17 72.22 185.26 C 68.30 187.12 64.38 189.01 60.47 190.89 C 64.26 180.25 68.14 169.65 71.89 158.99 Z" />
</svg>
