<svg viewBox="0 0 209 102" xmlns="http://www.w3.org/2000/svg">
	<path fill="#0098dc" d=" M 32.82 0.00 L 113.83 0.00 C 117.87 0.74 121.90 2.12 124.98 4.93 C 132.54 11.75 140.09 18.59 147.60 25.45 C 149.37 26.98 150.98 29.08 153.51 29.22 C 167.96 31.00 182.44 32.66 196.89 34.44 C 202.14 35.01 206.67 39.08 207.86 44.21 C 208.82 49.08 207.23 53.97 206.82 58.83 C 205.93 64.01 206.44 70.23 202.07 74.01 C 198.12 77.73 192.35 76.96 187.38 77.00 C 187.38 83.42 185.22 89.96 180.48 94.44 C 173.14 102.09 160.37 103.36 151.57 97.50 C 144.61 93.19 140.85 85.05 140.86 77.00 C 117.37 77.00 93.88 77.00 70.39 77.00 C 70.22 83.18 68.30 89.46 63.92 93.96 C 59.74 98.52 53.68 100.90 47.58 101.29 C 47.59 101.46 47.63 101.82 47.64 102.00 L 46.35 102.00 C 46.37 101.82 46.41 101.47 46.42 101.29 C 37.64 100.91 29.26 95.44 25.81 87.30 C 24.20 83.86 24.00 80.02 23.88 76.29 C 17.40 75.02 10.94 73.66 4.48 72.36 C 2.70 72.12 1.23 71.08 0.00 69.83 L 0.00 52.50 C 1.22 50.66 3.21 49.67 5.12 48.70 C 6.62 36.56 9.99 24.58 15.71 13.74 C 18.77 6.68 24.95 0.90 32.82 0.00 M 24.72 14.69 C 18.07 26.18 14.08 39.29 13.33 52.54 C 12.89 54.92 10.20 55.61 8.33 56.54 C 8.24 59.25 8.23 61.97 8.26 64.68 C 14.16 65.80 20.02 67.11 25.91 68.24 C 29.82 60.38 38.10 54.64 47.04 54.95 C 56.12 54.68 64.68 60.52 68.34 68.73 C 93.14 68.78 117.95 68.72 142.75 68.76 C 146.54 60.68 154.88 54.75 163.95 54.96 C 173.08 54.62 181.74 60.44 185.44 68.70 C 188.29 68.74 191.16 68.86 194.02 68.70 C 195.59 68.70 197.31 67.58 197.48 65.93 C 198.38 59.97 199.10 53.99 199.88 48.02 C 200.30 45.44 198.15 42.85 195.58 42.63 C 180.59 40.79 165.58 39.03 150.57 37.22 C 148.57 37.06 146.79 36.07 145.37 34.69 C 136.81 26.88 128.19 19.13 119.62 11.32 C 117.59 9.39 114.80 8.39 112.01 8.49 C 86.02 8.54 60.02 8.46 34.03 8.53 C 30.00 8.50 26.55 11.26 24.72 14.69 M 43.50 63.63 C 36.30 65.26 31.14 72.85 32.36 80.15 C 33.35 87.97 41.32 94.06 49.14 92.74 C 57.28 91.73 63.60 83.06 61.58 75.00 C 60.09 67.06 51.33 61.45 43.50 63.63 M 161.37 63.45 C 154.95 64.64 149.80 70.47 149.30 76.96 C 148.76 84.08 153.97 91.13 161.00 92.55 C 169.10 94.58 177.94 88.31 178.87 80.05 C 180.58 70.44 170.87 61.27 161.37 63.45 Z" />
	<path fill="#0098dc" d=" M 36.37 30.40 C 38.86 29.77 41.46 30.04 44.00 29.99 C 68.68 30.01 93.36 30.00 118.04 29.99 C 119.63 29.98 121.41 30.16 122.57 31.39 C 124.66 33.61 123.42 38.29 120.06 38.23 C 92.72 38.27 65.38 38.25 38.04 38.24 C 33.70 38.55 32.56 32.06 36.37 30.40 Z" />
</svg>
