<svg viewBox="0 0 755 535" xmlns="http://www.w3.org/2000/svg">
	<path fill="#fff" d=" M 29.70 0.95 C 261.49 1.05 493.29 1.01 725.08 0.97 C 723.66 5.48 719.20 7.85 716.13 11.13 C 708.61 18.93 700.44 26.09 693.14 34.11 C 685.15 42.45 676.55 50.19 668.64 58.62 C 660.97 65.93 653.44 73.40 646.18 81.14 C 626.81 99.80 608.17 119.20 588.99 138.06 C 552.66 174.68 515.96 210.93 479.54 247.48 C 470.30 257.25 460.35 266.31 451.04 276.01 C 441.11 285.77 431.54 295.89 421.46 305.50 C 415.42 311.82 408.25 316.84 401.45 322.24 C 398.29 323.37 395.07 324.42 392.24 326.25 C 388.06 329.10 382.78 328.63 377.99 329.20 C 372.50 329.11 366.57 329.16 361.75 326.14 C 358.93 324.46 355.75 323.55 352.88 322.01 C 344.76 316.28 337.57 309.38 330.33 302.60 C 285.92 258.39 241.69 213.98 197.33 169.71 C 189.21 161.16 180.34 153.38 172.39 144.68 C 146.97 119.41 121.72 94.00 96.34 68.68 C 76.16 48.87 56.48 28.56 36.31 8.74 C 33.67 6.54 30.97 4.26 29.70 0.95 Z" />
	<path fill="#fff" d=" M 742.11 43.11 C 746.23 39.51 748.84 34.29 753.88 31.76 C 754.05 76.51 753.91 121.26 753.96 166.00 C 753.91 278.41 754.05 390.82 753.88 503.23 C 750.23 501.68 748.05 498.33 745.54 495.46 C 703.08 452.91 660.49 410.50 618.04 367.95 C 585.29 335.37 552.81 302.47 519.90 270.05 C 517.52 266.42 521.63 263.26 524.08 261.08 C 596.79 188.46 669.41 115.74 742.11 43.11 Z" />
	<path fill="#fff" d=" M 1.25 33.50 C 2.80 33.88 4.66 33.89 5.75 35.24 C 10.42 40.56 15.36 45.63 20.33 50.67 C 29.42 58.90 37.31 68.36 46.46 76.53 C 52.34 81.99 57.47 88.20 63.37 93.65 C 72.29 101.72 80.09 110.93 88.94 119.06 C 97.24 127.10 104.93 135.76 113.52 143.50 C 118.69 148.65 123.48 154.18 128.91 159.08 C 138.32 167.67 146.48 177.53 156.00 186.00 C 162.96 193.05 169.66 200.37 176.96 207.07 C 182.60 212.41 187.65 218.36 193.34 223.65 C 198.01 227.65 202.10 232.25 206.34 236.68 C 213.19 244.17 221.18 250.48 227.83 258.16 C 230.50 261.13 233.85 263.44 236.41 266.53 C 237.66 269.74 233.33 271.43 231.63 273.56 C 158.12 347.06 84.57 420.55 11.11 494.12 C 7.88 496.90 6.03 502.02 1.12 502.02 C 0.95 347.35 1.13 192.67 1.03 38.00 C 1.03 36.49 1.11 35.00 1.25 33.50 Z" />
	<path fill="#fff" d=" M 255.08 308.13 C 258.91 304.76 261.95 300.56 265.99 297.42 C 268.45 298.18 269.99 300.51 271.86 302.15 C 283.22 313.12 293.94 324.76 305.84 335.15 C 312.59 342.12 320.35 347.98 327.66 354.33 C 331.76 356.46 334.76 360.16 338.97 362.08 C 342.30 363.66 344.68 366.84 348.36 367.75 C 352.64 368.77 355.45 372.97 359.98 373.14 C 364.36 373.57 368.64 374.65 372.99 375.34 C 380.42 376.28 387.71 374.23 394.99 373.10 C 398.34 372.71 400.86 370.29 403.83 368.97 C 412.80 365.64 420.16 359.32 427.92 353.92 C 435.04 347.69 442.55 341.89 449.10 335.04 C 458.59 327.25 466.61 317.92 475.61 309.61 C 479.34 306.01 482.72 302.05 486.65 298.66 C 490.25 296.77 492.72 300.99 494.95 303.13 C 522.08 330.65 549.59 357.77 576.81 385.20 C 606.65 414.71 636.11 444.59 665.86 474.17 C 684.75 492.93 703.36 512.00 722.53 530.48 C 723.17 531.56 723.50 532.79 723.51 534.16 C 721.40 534.03 719.31 533.84 717.22 533.74 C 712.64 532.12 707.75 532.78 703.00 532.67 C 483.31 532.67 263.62 532.70 43.93 532.65 C 42.44 532.58 41.12 533.38 39.71 533.73 C 37.33 533.89 34.95 534.04 32.57 534.21 C 32.50 532.82 32.54 531.43 32.68 530.05 C 38.23 525.16 43.27 519.73 48.60 514.61 C 117.42 445.78 186.22 376.92 255.08 308.13 Z" />
</svg>
